G75*
%MOIN*%
%OFA0B0*%
%FSLAX24Y24*%
%IPPOS*%
%LPD*%
%AMOC8*
5,1,8,0,0,1.08239X$1,22.5*
%
%ADD10C,0.0160*%
%ADD11C,0.0060*%
%ADD12C,0.0070*%
%ADD13C,0.0080*%
%ADD14C,0.0010*%
%ADD15C,0.0050*%
%ADD16C,0.0020*%
%ADD17R,0.0850X0.0200*%
%ADD18C,0.0059*%
D10*
X004100Y016100D02*
X004100Y017100D01*
X004600Y016600D02*
X004600Y019600D01*
X018600Y019600D01*
X018600Y016600D01*
X012100Y016600D01*
X012100Y016100D01*
X019100Y016100D01*
X019100Y020100D01*
X004100Y020100D01*
X004100Y018100D01*
X004600Y016600D02*
X011100Y016600D01*
X011100Y016100D01*
X004100Y016100D01*
D11*
X003100Y002700D02*
X003200Y002600D01*
X004400Y002600D01*
X004400Y002700D01*
X004700Y002700D01*
X005500Y002700D01*
X005800Y002700D01*
X007100Y002700D01*
X007000Y002600D01*
X005800Y002600D01*
X005800Y002700D01*
X005500Y002700D02*
X005500Y002550D01*
X004700Y002550D01*
X004700Y002700D01*
X004400Y002700D02*
X003100Y002700D01*
X002700Y003100D01*
X002700Y003600D01*
X002700Y004650D02*
X002700Y005550D01*
X002700Y006600D02*
X002700Y007100D01*
X003100Y007500D01*
X003200Y007600D01*
X004400Y007600D01*
X004400Y007500D01*
X004700Y007500D01*
X005500Y007500D01*
X005800Y007500D01*
X005800Y007600D01*
X007000Y007600D01*
X007100Y007500D01*
X005800Y007500D01*
X005500Y007500D02*
X005500Y007650D01*
X004700Y007650D01*
X004700Y007500D01*
X004400Y007500D02*
X003100Y007500D01*
X004350Y005850D02*
X004350Y004350D01*
X005850Y004350D01*
X005850Y005850D01*
X004350Y005850D01*
X003700Y005100D02*
X003702Y005175D01*
X003708Y005249D01*
X003718Y005323D01*
X003732Y005396D01*
X003749Y005468D01*
X003771Y005540D01*
X003796Y005610D01*
X003825Y005678D01*
X003858Y005746D01*
X003894Y005811D01*
X003933Y005874D01*
X003976Y005935D01*
X004022Y005994D01*
X004071Y006050D01*
X004123Y006103D01*
X004178Y006154D01*
X004235Y006201D01*
X004295Y006246D01*
X004357Y006287D01*
X004422Y006325D01*
X004488Y006359D01*
X004556Y006390D01*
X004625Y006417D01*
X004696Y006440D01*
X004768Y006460D01*
X004841Y006476D01*
X004914Y006488D01*
X004988Y006496D01*
X005063Y006500D01*
X005137Y006500D01*
X005212Y006496D01*
X005286Y006488D01*
X005359Y006476D01*
X005432Y006460D01*
X005504Y006440D01*
X005575Y006417D01*
X005644Y006390D01*
X005712Y006359D01*
X005778Y006325D01*
X005843Y006287D01*
X005905Y006246D01*
X005965Y006201D01*
X006022Y006154D01*
X006077Y006103D01*
X006129Y006050D01*
X006178Y005994D01*
X006224Y005935D01*
X006267Y005874D01*
X006306Y005811D01*
X006342Y005746D01*
X006375Y005678D01*
X006404Y005610D01*
X006429Y005540D01*
X006451Y005468D01*
X006468Y005396D01*
X006482Y005323D01*
X006492Y005249D01*
X006498Y005175D01*
X006500Y005100D01*
X006498Y005025D01*
X006492Y004951D01*
X006482Y004877D01*
X006468Y004804D01*
X006451Y004732D01*
X006429Y004660D01*
X006404Y004590D01*
X006375Y004522D01*
X006342Y004454D01*
X006306Y004389D01*
X006267Y004326D01*
X006224Y004265D01*
X006178Y004206D01*
X006129Y004150D01*
X006077Y004097D01*
X006022Y004046D01*
X005965Y003999D01*
X005905Y003954D01*
X005843Y003913D01*
X005778Y003875D01*
X005712Y003841D01*
X005644Y003810D01*
X005575Y003783D01*
X005504Y003760D01*
X005432Y003740D01*
X005359Y003724D01*
X005286Y003712D01*
X005212Y003704D01*
X005137Y003700D01*
X005063Y003700D01*
X004988Y003704D01*
X004914Y003712D01*
X004841Y003724D01*
X004768Y003740D01*
X004696Y003760D01*
X004625Y003783D01*
X004556Y003810D01*
X004488Y003841D01*
X004422Y003875D01*
X004357Y003913D01*
X004295Y003954D01*
X004235Y003999D01*
X004178Y004046D01*
X004123Y004097D01*
X004071Y004150D01*
X004022Y004206D01*
X003976Y004265D01*
X003933Y004326D01*
X003894Y004389D01*
X003858Y004454D01*
X003825Y004522D01*
X003796Y004590D01*
X003771Y004660D01*
X003749Y004732D01*
X003732Y004804D01*
X003718Y004877D01*
X003708Y004951D01*
X003702Y005025D01*
X003700Y005100D01*
X007100Y002700D02*
X007500Y003100D01*
X007500Y003600D01*
X007500Y004650D02*
X007500Y005550D01*
X007500Y006600D02*
X007500Y007100D01*
X007100Y007500D01*
X008130Y007630D02*
X008557Y008057D01*
X008557Y008164D01*
X008450Y008271D01*
X008237Y008271D01*
X008130Y008164D01*
X008130Y008680D02*
X008130Y009321D01*
X008557Y009321D01*
X008344Y009000D02*
X008130Y009000D01*
X008775Y008787D02*
X008881Y008680D01*
X009202Y008680D01*
X009202Y009000D01*
X009095Y009107D01*
X008881Y009107D01*
X008881Y008894D02*
X009202Y008894D01*
X009419Y009107D02*
X009739Y009107D01*
X009846Y009000D01*
X009846Y008787D01*
X009739Y008680D01*
X009419Y008680D01*
X009419Y009321D01*
X010064Y009214D02*
X010064Y008787D01*
X010170Y008680D01*
X010384Y008680D01*
X010491Y008787D01*
X010708Y008787D02*
X010815Y008680D01*
X011135Y008680D01*
X011135Y009000D01*
X011028Y009107D01*
X010815Y009107D01*
X010815Y008894D02*
X011135Y008894D01*
X011353Y009107D02*
X011353Y008680D01*
X011566Y008680D02*
X011566Y009000D01*
X011673Y009107D01*
X011780Y009000D01*
X011780Y008680D01*
X011997Y008680D02*
X012318Y008680D01*
X012424Y008787D01*
X012424Y009000D01*
X012318Y009107D01*
X011997Y009107D01*
X011997Y008466D01*
X011566Y009000D02*
X011460Y009107D01*
X011353Y009107D01*
X010815Y008894D02*
X010708Y008787D01*
X010491Y009214D02*
X010384Y009321D01*
X010170Y009321D01*
X010064Y009214D01*
X010064Y008271D02*
X010064Y007950D01*
X010277Y008057D01*
X010384Y008057D01*
X010491Y007950D01*
X010491Y007737D01*
X010384Y007630D01*
X010170Y007630D01*
X010064Y007737D01*
X009846Y007630D02*
X009419Y007630D01*
X009633Y007630D02*
X009633Y008271D01*
X009419Y008057D01*
X009202Y008164D02*
X008775Y007737D01*
X008881Y007630D01*
X009095Y007630D01*
X009202Y007737D01*
X009202Y008164D01*
X009095Y008271D01*
X008881Y008271D01*
X008775Y008164D01*
X008775Y007737D01*
X008557Y007630D02*
X008130Y007630D01*
X008775Y008787D02*
X008881Y008894D01*
X010064Y008271D02*
X010491Y008271D01*
X013286Y008680D02*
X013713Y009107D01*
X013713Y009214D01*
X013607Y009321D01*
X013393Y009321D01*
X013286Y009214D01*
X013286Y008680D02*
X013713Y008680D01*
X013931Y008680D02*
X013931Y008787D01*
X014038Y008787D01*
X014038Y008680D01*
X013931Y008680D01*
X014253Y008787D02*
X014680Y009214D01*
X014680Y008787D01*
X014573Y008680D01*
X014360Y008680D01*
X014253Y008787D01*
X014253Y009214D01*
X014360Y009321D01*
X014573Y009321D01*
X014680Y009214D01*
X015700Y010600D02*
X015600Y010700D01*
X016900Y010700D01*
X017200Y010700D01*
X018000Y010700D01*
X018300Y010700D01*
X019600Y010700D01*
X019500Y010600D01*
X018300Y010600D01*
X018300Y010700D01*
X018000Y010700D02*
X018000Y010550D01*
X017200Y010550D01*
X017200Y010700D01*
X016900Y010700D02*
X016900Y010600D01*
X015700Y010600D01*
X015600Y010700D02*
X015200Y011100D01*
X015200Y011600D01*
X015200Y012650D02*
X015200Y013550D01*
X015200Y014600D02*
X015200Y015100D01*
X015600Y015500D01*
X015700Y015600D01*
X016900Y015600D01*
X016900Y015500D01*
X017200Y015500D01*
X018000Y015500D01*
X018300Y015500D01*
X018300Y015600D01*
X019500Y015600D01*
X019600Y015500D01*
X018300Y015500D01*
X018000Y015500D02*
X018000Y015650D01*
X017200Y015650D01*
X017200Y015500D01*
X016900Y015500D02*
X015600Y015500D01*
X016850Y013850D02*
X016850Y012350D01*
X018350Y012350D01*
X018350Y013850D01*
X016850Y013850D01*
X016200Y013100D02*
X016202Y013175D01*
X016208Y013249D01*
X016218Y013323D01*
X016232Y013396D01*
X016249Y013468D01*
X016271Y013540D01*
X016296Y013610D01*
X016325Y013678D01*
X016358Y013746D01*
X016394Y013811D01*
X016433Y013874D01*
X016476Y013935D01*
X016522Y013994D01*
X016571Y014050D01*
X016623Y014103D01*
X016678Y014154D01*
X016735Y014201D01*
X016795Y014246D01*
X016857Y014287D01*
X016922Y014325D01*
X016988Y014359D01*
X017056Y014390D01*
X017125Y014417D01*
X017196Y014440D01*
X017268Y014460D01*
X017341Y014476D01*
X017414Y014488D01*
X017488Y014496D01*
X017563Y014500D01*
X017637Y014500D01*
X017712Y014496D01*
X017786Y014488D01*
X017859Y014476D01*
X017932Y014460D01*
X018004Y014440D01*
X018075Y014417D01*
X018144Y014390D01*
X018212Y014359D01*
X018278Y014325D01*
X018343Y014287D01*
X018405Y014246D01*
X018465Y014201D01*
X018522Y014154D01*
X018577Y014103D01*
X018629Y014050D01*
X018678Y013994D01*
X018724Y013935D01*
X018767Y013874D01*
X018806Y013811D01*
X018842Y013746D01*
X018875Y013678D01*
X018904Y013610D01*
X018929Y013540D01*
X018951Y013468D01*
X018968Y013396D01*
X018982Y013323D01*
X018992Y013249D01*
X018998Y013175D01*
X019000Y013100D01*
X018998Y013025D01*
X018992Y012951D01*
X018982Y012877D01*
X018968Y012804D01*
X018951Y012732D01*
X018929Y012660D01*
X018904Y012590D01*
X018875Y012522D01*
X018842Y012454D01*
X018806Y012389D01*
X018767Y012326D01*
X018724Y012265D01*
X018678Y012206D01*
X018629Y012150D01*
X018577Y012097D01*
X018522Y012046D01*
X018465Y011999D01*
X018405Y011954D01*
X018343Y011913D01*
X018278Y011875D01*
X018212Y011841D01*
X018144Y011810D01*
X018075Y011783D01*
X018004Y011760D01*
X017932Y011740D01*
X017859Y011724D01*
X017786Y011712D01*
X017712Y011704D01*
X017637Y011700D01*
X017563Y011700D01*
X017488Y011704D01*
X017414Y011712D01*
X017341Y011724D01*
X017268Y011740D01*
X017196Y011760D01*
X017125Y011783D01*
X017056Y011810D01*
X016988Y011841D01*
X016922Y011875D01*
X016857Y011913D01*
X016795Y011954D01*
X016735Y011999D01*
X016678Y012046D01*
X016623Y012097D01*
X016571Y012150D01*
X016522Y012206D01*
X016476Y012265D01*
X016433Y012326D01*
X016394Y012389D01*
X016358Y012454D01*
X016325Y012522D01*
X016296Y012590D01*
X016271Y012660D01*
X016249Y012732D01*
X016232Y012804D01*
X016218Y012877D01*
X016208Y012951D01*
X016202Y013025D01*
X016200Y013100D01*
X019600Y010700D02*
X020000Y011100D01*
X020000Y011600D01*
X020000Y012650D02*
X020000Y013550D01*
X020000Y014600D02*
X020000Y015100D01*
X019600Y015500D01*
X021600Y013100D02*
X021602Y013163D01*
X021608Y013225D01*
X021618Y013287D01*
X021631Y013349D01*
X021649Y013409D01*
X021670Y013468D01*
X021695Y013526D01*
X021724Y013582D01*
X021756Y013636D01*
X021791Y013688D01*
X021829Y013737D01*
X021871Y013785D01*
X021915Y013829D01*
X021963Y013871D01*
X022012Y013909D01*
X022064Y013944D01*
X022118Y013976D01*
X022174Y014005D01*
X022232Y014030D01*
X022291Y014051D01*
X022351Y014069D01*
X022413Y014082D01*
X022475Y014092D01*
X022537Y014098D01*
X022600Y014100D01*
X022663Y014098D01*
X022725Y014092D01*
X022787Y014082D01*
X022849Y014069D01*
X022909Y014051D01*
X022968Y014030D01*
X023026Y014005D01*
X023082Y013976D01*
X023136Y013944D01*
X023188Y013909D01*
X023237Y013871D01*
X023285Y013829D01*
X023329Y013785D01*
X023371Y013737D01*
X023409Y013688D01*
X023444Y013636D01*
X023476Y013582D01*
X023505Y013526D01*
X023530Y013468D01*
X023551Y013409D01*
X023569Y013349D01*
X023582Y013287D01*
X023592Y013225D01*
X023598Y013163D01*
X023600Y013100D01*
X023598Y013037D01*
X023592Y012975D01*
X023582Y012913D01*
X023569Y012851D01*
X023551Y012791D01*
X023530Y012732D01*
X023505Y012674D01*
X023476Y012618D01*
X023444Y012564D01*
X023409Y012512D01*
X023371Y012463D01*
X023329Y012415D01*
X023285Y012371D01*
X023237Y012329D01*
X023188Y012291D01*
X023136Y012256D01*
X023082Y012224D01*
X023026Y012195D01*
X022968Y012170D01*
X022909Y012149D01*
X022849Y012131D01*
X022787Y012118D01*
X022725Y012108D01*
X022663Y012102D01*
X022600Y012100D01*
X022537Y012102D01*
X022475Y012108D01*
X022413Y012118D01*
X022351Y012131D01*
X022291Y012149D01*
X022232Y012170D01*
X022174Y012195D01*
X022118Y012224D01*
X022064Y012256D01*
X022012Y012291D01*
X021963Y012329D01*
X021915Y012371D01*
X021871Y012415D01*
X021829Y012463D01*
X021791Y012512D01*
X021756Y012564D01*
X021724Y012618D01*
X021695Y012674D01*
X021670Y012732D01*
X021649Y012791D01*
X021631Y012851D01*
X021618Y012913D01*
X021608Y012975D01*
X021602Y013037D01*
X021600Y013100D01*
X018000Y007650D02*
X017200Y007650D01*
X017200Y007500D01*
X016900Y007500D01*
X016900Y007600D01*
X015700Y007600D01*
X015600Y007500D01*
X015200Y007100D01*
X015200Y006600D01*
X015600Y007500D02*
X016900Y007500D01*
X017200Y007500D02*
X018000Y007500D01*
X018300Y007500D01*
X018300Y007600D01*
X019500Y007600D01*
X019600Y007500D01*
X018300Y007500D01*
X018000Y007500D02*
X018000Y007650D01*
X019600Y007500D02*
X020000Y007100D01*
X020000Y006600D01*
X020000Y005550D02*
X020000Y004650D01*
X020000Y003600D02*
X020000Y003100D01*
X019600Y002700D01*
X019500Y002600D01*
X018300Y002600D01*
X018300Y002700D01*
X019600Y002700D01*
X018300Y002700D02*
X018000Y002700D01*
X017200Y002700D01*
X016900Y002700D01*
X016900Y002600D01*
X015700Y002600D01*
X015600Y002700D01*
X016900Y002700D01*
X017200Y002700D02*
X017200Y002550D01*
X018000Y002550D01*
X018000Y002700D01*
X018350Y004350D02*
X016850Y004350D01*
X016850Y005850D01*
X018350Y005850D01*
X018350Y004350D01*
X016200Y005100D02*
X016202Y005175D01*
X016208Y005249D01*
X016218Y005323D01*
X016232Y005396D01*
X016249Y005468D01*
X016271Y005540D01*
X016296Y005610D01*
X016325Y005678D01*
X016358Y005746D01*
X016394Y005811D01*
X016433Y005874D01*
X016476Y005935D01*
X016522Y005994D01*
X016571Y006050D01*
X016623Y006103D01*
X016678Y006154D01*
X016735Y006201D01*
X016795Y006246D01*
X016857Y006287D01*
X016922Y006325D01*
X016988Y006359D01*
X017056Y006390D01*
X017125Y006417D01*
X017196Y006440D01*
X017268Y006460D01*
X017341Y006476D01*
X017414Y006488D01*
X017488Y006496D01*
X017563Y006500D01*
X017637Y006500D01*
X017712Y006496D01*
X017786Y006488D01*
X017859Y006476D01*
X017932Y006460D01*
X018004Y006440D01*
X018075Y006417D01*
X018144Y006390D01*
X018212Y006359D01*
X018278Y006325D01*
X018343Y006287D01*
X018405Y006246D01*
X018465Y006201D01*
X018522Y006154D01*
X018577Y006103D01*
X018629Y006050D01*
X018678Y005994D01*
X018724Y005935D01*
X018767Y005874D01*
X018806Y005811D01*
X018842Y005746D01*
X018875Y005678D01*
X018904Y005610D01*
X018929Y005540D01*
X018951Y005468D01*
X018968Y005396D01*
X018982Y005323D01*
X018992Y005249D01*
X018998Y005175D01*
X019000Y005100D01*
X018998Y005025D01*
X018992Y004951D01*
X018982Y004877D01*
X018968Y004804D01*
X018951Y004732D01*
X018929Y004660D01*
X018904Y004590D01*
X018875Y004522D01*
X018842Y004454D01*
X018806Y004389D01*
X018767Y004326D01*
X018724Y004265D01*
X018678Y004206D01*
X018629Y004150D01*
X018577Y004097D01*
X018522Y004046D01*
X018465Y003999D01*
X018405Y003954D01*
X018343Y003913D01*
X018278Y003875D01*
X018212Y003841D01*
X018144Y003810D01*
X018075Y003783D01*
X018004Y003760D01*
X017932Y003740D01*
X017859Y003724D01*
X017786Y003712D01*
X017712Y003704D01*
X017637Y003700D01*
X017563Y003700D01*
X017488Y003704D01*
X017414Y003712D01*
X017341Y003724D01*
X017268Y003740D01*
X017196Y003760D01*
X017125Y003783D01*
X017056Y003810D01*
X016988Y003841D01*
X016922Y003875D01*
X016857Y003913D01*
X016795Y003954D01*
X016735Y003999D01*
X016678Y004046D01*
X016623Y004097D01*
X016571Y004150D01*
X016522Y004206D01*
X016476Y004265D01*
X016433Y004326D01*
X016394Y004389D01*
X016358Y004454D01*
X016325Y004522D01*
X016296Y004590D01*
X016271Y004660D01*
X016249Y004732D01*
X016232Y004804D01*
X016218Y004877D01*
X016208Y004951D01*
X016202Y005025D01*
X016200Y005100D01*
X015200Y005550D02*
X015200Y004650D01*
X015200Y003600D02*
X015200Y003100D01*
X015600Y002700D01*
X009100Y005100D02*
X009102Y005163D01*
X009108Y005225D01*
X009118Y005287D01*
X009131Y005349D01*
X009149Y005409D01*
X009170Y005468D01*
X009195Y005526D01*
X009224Y005582D01*
X009256Y005636D01*
X009291Y005688D01*
X009329Y005737D01*
X009371Y005785D01*
X009415Y005829D01*
X009463Y005871D01*
X009512Y005909D01*
X009564Y005944D01*
X009618Y005976D01*
X009674Y006005D01*
X009732Y006030D01*
X009791Y006051D01*
X009851Y006069D01*
X009913Y006082D01*
X009975Y006092D01*
X010037Y006098D01*
X010100Y006100D01*
X010163Y006098D01*
X010225Y006092D01*
X010287Y006082D01*
X010349Y006069D01*
X010409Y006051D01*
X010468Y006030D01*
X010526Y006005D01*
X010582Y005976D01*
X010636Y005944D01*
X010688Y005909D01*
X010737Y005871D01*
X010785Y005829D01*
X010829Y005785D01*
X010871Y005737D01*
X010909Y005688D01*
X010944Y005636D01*
X010976Y005582D01*
X011005Y005526D01*
X011030Y005468D01*
X011051Y005409D01*
X011069Y005349D01*
X011082Y005287D01*
X011092Y005225D01*
X011098Y005163D01*
X011100Y005100D01*
X011098Y005037D01*
X011092Y004975D01*
X011082Y004913D01*
X011069Y004851D01*
X011051Y004791D01*
X011030Y004732D01*
X011005Y004674D01*
X010976Y004618D01*
X010944Y004564D01*
X010909Y004512D01*
X010871Y004463D01*
X010829Y004415D01*
X010785Y004371D01*
X010737Y004329D01*
X010688Y004291D01*
X010636Y004256D01*
X010582Y004224D01*
X010526Y004195D01*
X010468Y004170D01*
X010409Y004149D01*
X010349Y004131D01*
X010287Y004118D01*
X010225Y004108D01*
X010163Y004102D01*
X010100Y004100D01*
X010037Y004102D01*
X009975Y004108D01*
X009913Y004118D01*
X009851Y004131D01*
X009791Y004149D01*
X009732Y004170D01*
X009674Y004195D01*
X009618Y004224D01*
X009564Y004256D01*
X009512Y004291D01*
X009463Y004329D01*
X009415Y004371D01*
X009371Y004415D01*
X009329Y004463D01*
X009291Y004512D01*
X009256Y004564D01*
X009224Y004618D01*
X009195Y004674D01*
X009170Y004732D01*
X009149Y004791D01*
X009131Y004851D01*
X009118Y004913D01*
X009108Y004975D01*
X009102Y005037D01*
X009100Y005100D01*
X005500Y010550D02*
X004700Y010550D01*
X004700Y010700D01*
X004400Y010700D01*
X004400Y010600D01*
X003200Y010600D01*
X003100Y010700D01*
X004400Y010700D01*
X004700Y010700D02*
X005500Y010700D01*
X005800Y010700D01*
X007100Y010700D01*
X007000Y010600D01*
X005800Y010600D01*
X005800Y010700D01*
X005500Y010700D02*
X005500Y010550D01*
X007100Y010700D02*
X007500Y011100D01*
X007500Y011600D01*
X007500Y012650D02*
X007500Y013550D01*
X007500Y014600D02*
X007500Y015100D01*
X007100Y015500D01*
X007000Y015600D01*
X005800Y015600D01*
X005800Y015500D01*
X005500Y015500D01*
X005500Y015650D01*
X004700Y015650D01*
X004700Y015500D01*
X004400Y015500D01*
X004400Y015600D01*
X003200Y015600D01*
X003100Y015500D01*
X002700Y015100D01*
X002700Y014600D01*
X003100Y015500D02*
X004400Y015500D01*
X004700Y015500D02*
X005500Y015500D01*
X005800Y015500D02*
X007100Y015500D01*
X005850Y013850D02*
X005850Y012350D01*
X004350Y012350D01*
X004350Y013850D01*
X005850Y013850D01*
X003700Y013100D02*
X003702Y013175D01*
X003708Y013249D01*
X003718Y013323D01*
X003732Y013396D01*
X003749Y013468D01*
X003771Y013540D01*
X003796Y013610D01*
X003825Y013678D01*
X003858Y013746D01*
X003894Y013811D01*
X003933Y013874D01*
X003976Y013935D01*
X004022Y013994D01*
X004071Y014050D01*
X004123Y014103D01*
X004178Y014154D01*
X004235Y014201D01*
X004295Y014246D01*
X004357Y014287D01*
X004422Y014325D01*
X004488Y014359D01*
X004556Y014390D01*
X004625Y014417D01*
X004696Y014440D01*
X004768Y014460D01*
X004841Y014476D01*
X004914Y014488D01*
X004988Y014496D01*
X005063Y014500D01*
X005137Y014500D01*
X005212Y014496D01*
X005286Y014488D01*
X005359Y014476D01*
X005432Y014460D01*
X005504Y014440D01*
X005575Y014417D01*
X005644Y014390D01*
X005712Y014359D01*
X005778Y014325D01*
X005843Y014287D01*
X005905Y014246D01*
X005965Y014201D01*
X006022Y014154D01*
X006077Y014103D01*
X006129Y014050D01*
X006178Y013994D01*
X006224Y013935D01*
X006267Y013874D01*
X006306Y013811D01*
X006342Y013746D01*
X006375Y013678D01*
X006404Y013610D01*
X006429Y013540D01*
X006451Y013468D01*
X006468Y013396D01*
X006482Y013323D01*
X006492Y013249D01*
X006498Y013175D01*
X006500Y013100D01*
X006498Y013025D01*
X006492Y012951D01*
X006482Y012877D01*
X006468Y012804D01*
X006451Y012732D01*
X006429Y012660D01*
X006404Y012590D01*
X006375Y012522D01*
X006342Y012454D01*
X006306Y012389D01*
X006267Y012326D01*
X006224Y012265D01*
X006178Y012206D01*
X006129Y012150D01*
X006077Y012097D01*
X006022Y012046D01*
X005965Y011999D01*
X005905Y011954D01*
X005843Y011913D01*
X005778Y011875D01*
X005712Y011841D01*
X005644Y011810D01*
X005575Y011783D01*
X005504Y011760D01*
X005432Y011740D01*
X005359Y011724D01*
X005286Y011712D01*
X005212Y011704D01*
X005137Y011700D01*
X005063Y011700D01*
X004988Y011704D01*
X004914Y011712D01*
X004841Y011724D01*
X004768Y011740D01*
X004696Y011760D01*
X004625Y011783D01*
X004556Y011810D01*
X004488Y011841D01*
X004422Y011875D01*
X004357Y011913D01*
X004295Y011954D01*
X004235Y011999D01*
X004178Y012046D01*
X004123Y012097D01*
X004071Y012150D01*
X004022Y012206D01*
X003976Y012265D01*
X003933Y012326D01*
X003894Y012389D01*
X003858Y012454D01*
X003825Y012522D01*
X003796Y012590D01*
X003771Y012660D01*
X003749Y012732D01*
X003732Y012804D01*
X003718Y012877D01*
X003708Y012951D01*
X003702Y013025D01*
X003700Y013100D01*
X002700Y013550D02*
X002700Y012650D01*
X002700Y011600D02*
X002700Y011100D01*
X003100Y010700D01*
X009100Y013100D02*
X009102Y013163D01*
X009108Y013225D01*
X009118Y013287D01*
X009131Y013349D01*
X009149Y013409D01*
X009170Y013468D01*
X009195Y013526D01*
X009224Y013582D01*
X009256Y013636D01*
X009291Y013688D01*
X009329Y013737D01*
X009371Y013785D01*
X009415Y013829D01*
X009463Y013871D01*
X009512Y013909D01*
X009564Y013944D01*
X009618Y013976D01*
X009674Y014005D01*
X009732Y014030D01*
X009791Y014051D01*
X009851Y014069D01*
X009913Y014082D01*
X009975Y014092D01*
X010037Y014098D01*
X010100Y014100D01*
X010163Y014098D01*
X010225Y014092D01*
X010287Y014082D01*
X010349Y014069D01*
X010409Y014051D01*
X010468Y014030D01*
X010526Y014005D01*
X010582Y013976D01*
X010636Y013944D01*
X010688Y013909D01*
X010737Y013871D01*
X010785Y013829D01*
X010829Y013785D01*
X010871Y013737D01*
X010909Y013688D01*
X010944Y013636D01*
X010976Y013582D01*
X011005Y013526D01*
X011030Y013468D01*
X011051Y013409D01*
X011069Y013349D01*
X011082Y013287D01*
X011092Y013225D01*
X011098Y013163D01*
X011100Y013100D01*
X011098Y013037D01*
X011092Y012975D01*
X011082Y012913D01*
X011069Y012851D01*
X011051Y012791D01*
X011030Y012732D01*
X011005Y012674D01*
X010976Y012618D01*
X010944Y012564D01*
X010909Y012512D01*
X010871Y012463D01*
X010829Y012415D01*
X010785Y012371D01*
X010737Y012329D01*
X010688Y012291D01*
X010636Y012256D01*
X010582Y012224D01*
X010526Y012195D01*
X010468Y012170D01*
X010409Y012149D01*
X010349Y012131D01*
X010287Y012118D01*
X010225Y012108D01*
X010163Y012102D01*
X010100Y012100D01*
X010037Y012102D01*
X009975Y012108D01*
X009913Y012118D01*
X009851Y012131D01*
X009791Y012149D01*
X009732Y012170D01*
X009674Y012195D01*
X009618Y012224D01*
X009564Y012256D01*
X009512Y012291D01*
X009463Y012329D01*
X009415Y012371D01*
X009371Y012415D01*
X009329Y012463D01*
X009291Y012512D01*
X009256Y012564D01*
X009224Y012618D01*
X009195Y012674D01*
X009170Y012732D01*
X009149Y012791D01*
X009131Y012851D01*
X009118Y012913D01*
X009108Y012975D01*
X009102Y013037D01*
X009100Y013100D01*
X021600Y005100D02*
X021602Y005163D01*
X021608Y005225D01*
X021618Y005287D01*
X021631Y005349D01*
X021649Y005409D01*
X021670Y005468D01*
X021695Y005526D01*
X021724Y005582D01*
X021756Y005636D01*
X021791Y005688D01*
X021829Y005737D01*
X021871Y005785D01*
X021915Y005829D01*
X021963Y005871D01*
X022012Y005909D01*
X022064Y005944D01*
X022118Y005976D01*
X022174Y006005D01*
X022232Y006030D01*
X022291Y006051D01*
X022351Y006069D01*
X022413Y006082D01*
X022475Y006092D01*
X022537Y006098D01*
X022600Y006100D01*
X022663Y006098D01*
X022725Y006092D01*
X022787Y006082D01*
X022849Y006069D01*
X022909Y006051D01*
X022968Y006030D01*
X023026Y006005D01*
X023082Y005976D01*
X023136Y005944D01*
X023188Y005909D01*
X023237Y005871D01*
X023285Y005829D01*
X023329Y005785D01*
X023371Y005737D01*
X023409Y005688D01*
X023444Y005636D01*
X023476Y005582D01*
X023505Y005526D01*
X023530Y005468D01*
X023551Y005409D01*
X023569Y005349D01*
X023582Y005287D01*
X023592Y005225D01*
X023598Y005163D01*
X023600Y005100D01*
X023598Y005037D01*
X023592Y004975D01*
X023582Y004913D01*
X023569Y004851D01*
X023551Y004791D01*
X023530Y004732D01*
X023505Y004674D01*
X023476Y004618D01*
X023444Y004564D01*
X023409Y004512D01*
X023371Y004463D01*
X023329Y004415D01*
X023285Y004371D01*
X023237Y004329D01*
X023188Y004291D01*
X023136Y004256D01*
X023082Y004224D01*
X023026Y004195D01*
X022968Y004170D01*
X022909Y004149D01*
X022849Y004131D01*
X022787Y004118D01*
X022725Y004108D01*
X022663Y004102D01*
X022600Y004100D01*
X022537Y004102D01*
X022475Y004108D01*
X022413Y004118D01*
X022351Y004131D01*
X022291Y004149D01*
X022232Y004170D01*
X022174Y004195D01*
X022118Y004224D01*
X022064Y004256D01*
X022012Y004291D01*
X021963Y004329D01*
X021915Y004371D01*
X021871Y004415D01*
X021829Y004463D01*
X021791Y004512D01*
X021756Y004564D01*
X021724Y004618D01*
X021695Y004674D01*
X021670Y004732D01*
X021649Y004791D01*
X021631Y004851D01*
X021618Y004913D01*
X021608Y004975D01*
X021602Y005037D01*
X021600Y005100D01*
D12*
X009982Y009635D02*
X009719Y009635D01*
X009851Y009635D02*
X009851Y010426D01*
X009982Y010426D02*
X009719Y010426D01*
X009454Y010294D02*
X009322Y010426D01*
X009059Y010426D01*
X008927Y010294D01*
X008927Y009767D01*
X009059Y009635D01*
X009322Y009635D01*
X009454Y009767D01*
X008662Y009767D02*
X008662Y010426D01*
X008135Y010426D02*
X008135Y009767D01*
X008267Y009635D01*
X008530Y009635D01*
X008662Y009767D01*
D13*
X006340Y009572D02*
X006340Y008628D01*
X003860Y008628D01*
X003860Y009572D01*
X006340Y009572D01*
X009100Y012350D02*
X009100Y013850D01*
X008850Y017100D02*
X008600Y017350D01*
X008600Y018850D01*
X008350Y019100D01*
X007850Y019100D01*
X007600Y018850D01*
X007600Y017350D01*
X007350Y017100D01*
X006850Y017100D01*
X006600Y017350D01*
X006600Y018850D01*
X006850Y019100D01*
X007350Y019100D01*
X007600Y018850D01*
X006600Y018850D02*
X006350Y019100D01*
X005850Y019100D01*
X005600Y018850D01*
X005600Y018350D01*
X005850Y018100D01*
X005600Y017850D01*
X005600Y017350D01*
X005850Y017100D01*
X006350Y017100D01*
X006600Y017350D01*
X007600Y017350D02*
X007850Y017100D01*
X008350Y017100D01*
X008600Y017350D01*
X008850Y017100D02*
X009350Y017100D01*
X009600Y017350D01*
X009600Y018850D01*
X009850Y019100D01*
X010350Y019100D01*
X010600Y018850D01*
X010600Y017350D01*
X010350Y017100D01*
X009850Y017100D01*
X009600Y017350D01*
X010600Y017350D02*
X010850Y017100D01*
X011350Y017100D01*
X011600Y017350D01*
X011600Y018850D01*
X011350Y019100D01*
X010850Y019100D01*
X010600Y018850D01*
X009600Y018850D02*
X009350Y019100D01*
X008850Y019100D01*
X008600Y018850D01*
X011600Y018850D02*
X011850Y019100D01*
X012350Y019100D01*
X012600Y018850D01*
X012600Y017350D01*
X012350Y017100D01*
X011850Y017100D01*
X011600Y017350D01*
X012600Y017350D02*
X012850Y017100D01*
X013350Y017100D01*
X013600Y017350D01*
X013600Y018850D01*
X013850Y019100D01*
X014350Y019100D01*
X014600Y018850D01*
X014600Y017350D01*
X014350Y017100D01*
X013850Y017100D01*
X013600Y017350D01*
X014600Y017350D02*
X014850Y017100D01*
X015350Y017100D01*
X015600Y017350D01*
X015600Y018850D01*
X015350Y019100D01*
X014850Y019100D01*
X014600Y018850D01*
X013600Y018850D02*
X013350Y019100D01*
X012850Y019100D01*
X012600Y018850D01*
X015600Y018850D02*
X015850Y019100D01*
X016350Y019100D01*
X016600Y018850D01*
X016600Y017350D01*
X016850Y017100D01*
X017350Y017100D01*
X017600Y017350D01*
X017600Y018850D01*
X017350Y019100D01*
X016850Y019100D01*
X016600Y018850D01*
X017600Y018850D02*
X017850Y019100D01*
X018350Y019100D01*
X018600Y018850D01*
X018600Y018350D01*
X018350Y018100D01*
X018600Y017850D01*
X018600Y017350D01*
X018350Y017100D01*
X017850Y017100D01*
X017600Y017350D01*
X016600Y017350D02*
X016350Y017100D01*
X015850Y017100D01*
X015600Y017350D01*
X021600Y013850D02*
X021600Y012350D01*
X018840Y009572D02*
X018840Y008628D01*
X016360Y008628D01*
X016360Y009572D01*
X018840Y009572D01*
X021600Y005850D02*
X021600Y004350D01*
X018840Y002072D02*
X018840Y001128D01*
X016360Y001128D01*
X016360Y002072D01*
X018840Y002072D01*
X009100Y004350D02*
X009100Y005850D01*
X006340Y002072D02*
X006340Y001128D01*
X003860Y001128D01*
X003860Y002072D01*
X006340Y002072D01*
D14*
X009068Y004320D02*
X009140Y004374D01*
X009139Y004373D02*
X009182Y004320D01*
X009227Y004269D01*
X009276Y004221D01*
X009327Y004176D01*
X009381Y004133D01*
X009437Y004094D01*
X009495Y004058D01*
X009555Y004025D01*
X009616Y003996D01*
X009680Y003971D01*
X009744Y003949D01*
X009810Y003930D01*
X009877Y003916D01*
X009944Y003905D01*
X010012Y003898D01*
X010080Y003895D01*
X010149Y003896D01*
X010217Y003901D01*
X010285Y003909D01*
X010352Y003922D01*
X010418Y003938D01*
X010483Y003958D01*
X010548Y003981D01*
X010610Y004008D01*
X010671Y004039D01*
X010730Y004073D01*
X010788Y004110D01*
X010843Y004151D01*
X010895Y004195D01*
X010945Y004241D01*
X010992Y004290D01*
X011037Y004342D01*
X011078Y004396D01*
X011117Y004453D01*
X011152Y004512D01*
X011183Y004572D01*
X011211Y004634D01*
X011236Y004698D01*
X011257Y004763D01*
X011274Y004829D01*
X011288Y004896D01*
X011297Y004964D01*
X011303Y005032D01*
X011305Y005100D01*
X011303Y005168D01*
X011297Y005236D01*
X011288Y005304D01*
X011274Y005371D01*
X011257Y005437D01*
X011236Y005502D01*
X011211Y005566D01*
X011183Y005628D01*
X011152Y005688D01*
X011117Y005747D01*
X011078Y005804D01*
X011037Y005858D01*
X010992Y005910D01*
X010945Y005959D01*
X010895Y006005D01*
X010843Y006049D01*
X010788Y006090D01*
X010730Y006127D01*
X010671Y006161D01*
X010610Y006192D01*
X010548Y006219D01*
X010483Y006242D01*
X010418Y006262D01*
X010352Y006278D01*
X010285Y006291D01*
X010217Y006299D01*
X010149Y006304D01*
X010080Y006305D01*
X010012Y006302D01*
X009944Y006295D01*
X009877Y006284D01*
X009810Y006270D01*
X009744Y006251D01*
X009680Y006229D01*
X009616Y006204D01*
X009555Y006175D01*
X009495Y006142D01*
X009437Y006106D01*
X009381Y006067D01*
X009327Y006024D01*
X009276Y005979D01*
X009227Y005931D01*
X009182Y005880D01*
X009139Y005827D01*
X009068Y005880D01*
X009067Y005881D01*
X009111Y005936D01*
X009159Y005989D01*
X009209Y006040D01*
X009262Y006087D01*
X009317Y006131D01*
X009375Y006173D01*
X009435Y006211D01*
X009496Y006246D01*
X009560Y006277D01*
X009625Y006305D01*
X009692Y006329D01*
X009760Y006350D01*
X009829Y006366D01*
X009899Y006379D01*
X009969Y006388D01*
X010040Y006394D01*
X010111Y006395D01*
X010182Y006392D01*
X010253Y006386D01*
X010323Y006376D01*
X010392Y006362D01*
X010461Y006344D01*
X010529Y006322D01*
X010595Y006297D01*
X010660Y006268D01*
X010723Y006235D01*
X010784Y006199D01*
X010843Y006160D01*
X010900Y006118D01*
X010955Y006073D01*
X011007Y006024D01*
X011056Y005973D01*
X011103Y005920D01*
X011146Y005863D01*
X011186Y005805D01*
X011223Y005744D01*
X011257Y005682D01*
X011287Y005618D01*
X011314Y005552D01*
X011337Y005485D01*
X011356Y005416D01*
X011371Y005347D01*
X011383Y005277D01*
X011391Y005206D01*
X011395Y005135D01*
X011395Y005065D01*
X011391Y004994D01*
X011383Y004923D01*
X011371Y004853D01*
X011356Y004784D01*
X011337Y004715D01*
X011314Y004648D01*
X011287Y004582D01*
X011257Y004518D01*
X011223Y004456D01*
X011186Y004395D01*
X011146Y004337D01*
X011103Y004280D01*
X011056Y004227D01*
X011007Y004176D01*
X010955Y004127D01*
X010900Y004082D01*
X010843Y004040D01*
X010784Y004001D01*
X010723Y003965D01*
X010660Y003932D01*
X010595Y003903D01*
X010529Y003878D01*
X010461Y003856D01*
X010392Y003838D01*
X010323Y003824D01*
X010253Y003814D01*
X010182Y003808D01*
X010111Y003805D01*
X010040Y003806D01*
X009969Y003812D01*
X009899Y003821D01*
X009829Y003834D01*
X009760Y003850D01*
X009692Y003871D01*
X009625Y003895D01*
X009560Y003923D01*
X009496Y003954D01*
X009435Y003989D01*
X009375Y004027D01*
X009317Y004069D01*
X009262Y004113D01*
X009209Y004160D01*
X009159Y004211D01*
X009111Y004264D01*
X009067Y004319D01*
X009074Y004324D01*
X009119Y004269D01*
X009166Y004216D01*
X009217Y004165D01*
X009270Y004118D01*
X009326Y004073D01*
X009384Y004032D01*
X009444Y003994D01*
X009506Y003959D01*
X009570Y003928D01*
X009636Y003901D01*
X009703Y003877D01*
X009772Y003857D01*
X009841Y003840D01*
X009911Y003828D01*
X009982Y003819D01*
X010053Y003815D01*
X010124Y003814D01*
X010195Y003818D01*
X010266Y003825D01*
X010337Y003836D01*
X010406Y003851D01*
X010475Y003870D01*
X010543Y003893D01*
X010609Y003919D01*
X010674Y003949D01*
X010736Y003983D01*
X010797Y004019D01*
X010856Y004060D01*
X010913Y004103D01*
X010967Y004150D01*
X011018Y004199D01*
X011066Y004252D01*
X011112Y004306D01*
X011154Y004364D01*
X011193Y004423D01*
X011229Y004485D01*
X011262Y004548D01*
X011290Y004613D01*
X011316Y004680D01*
X011337Y004748D01*
X011355Y004817D01*
X011368Y004887D01*
X011378Y004958D01*
X011384Y005029D01*
X011386Y005100D01*
X011384Y005171D01*
X011378Y005242D01*
X011368Y005313D01*
X011355Y005383D01*
X011337Y005452D01*
X011316Y005520D01*
X011290Y005587D01*
X011262Y005652D01*
X011229Y005715D01*
X011193Y005777D01*
X011154Y005836D01*
X011112Y005894D01*
X011066Y005948D01*
X011018Y006001D01*
X010967Y006050D01*
X010913Y006097D01*
X010856Y006140D01*
X010797Y006181D01*
X010736Y006217D01*
X010674Y006251D01*
X010609Y006281D01*
X010543Y006307D01*
X010475Y006330D01*
X010406Y006349D01*
X010337Y006364D01*
X010266Y006375D01*
X010195Y006382D01*
X010124Y006386D01*
X010053Y006385D01*
X009982Y006381D01*
X009911Y006372D01*
X009841Y006360D01*
X009772Y006343D01*
X009703Y006323D01*
X009636Y006299D01*
X009570Y006272D01*
X009506Y006241D01*
X009444Y006206D01*
X009384Y006168D01*
X009326Y006127D01*
X009270Y006082D01*
X009217Y006035D01*
X009166Y005984D01*
X009119Y005931D01*
X009074Y005876D01*
X009081Y005870D01*
X009126Y005925D01*
X009173Y005978D01*
X009223Y006028D01*
X009276Y006075D01*
X009331Y006119D01*
X009389Y006161D01*
X009448Y006198D01*
X009510Y006233D01*
X009574Y006264D01*
X009639Y006291D01*
X009706Y006315D01*
X009774Y006335D01*
X009843Y006351D01*
X009912Y006363D01*
X009983Y006372D01*
X010053Y006376D01*
X010124Y006377D01*
X010195Y006373D01*
X010265Y006366D01*
X010335Y006355D01*
X010404Y006340D01*
X010472Y006321D01*
X010540Y006299D01*
X010605Y006273D01*
X010670Y006243D01*
X010732Y006210D01*
X010792Y006173D01*
X010851Y006133D01*
X010907Y006090D01*
X010961Y006044D01*
X011011Y005994D01*
X011060Y005943D01*
X011105Y005888D01*
X011147Y005831D01*
X011186Y005772D01*
X011221Y005711D01*
X011254Y005648D01*
X011282Y005583D01*
X011307Y005517D01*
X011328Y005449D01*
X011346Y005381D01*
X011359Y005311D01*
X011369Y005241D01*
X011375Y005171D01*
X011377Y005100D01*
X011375Y005029D01*
X011369Y004959D01*
X011359Y004889D01*
X011346Y004819D01*
X011328Y004751D01*
X011307Y004683D01*
X011282Y004617D01*
X011254Y004552D01*
X011221Y004489D01*
X011186Y004428D01*
X011147Y004369D01*
X011105Y004312D01*
X011060Y004257D01*
X011011Y004206D01*
X010961Y004156D01*
X010907Y004110D01*
X010851Y004067D01*
X010792Y004027D01*
X010732Y003990D01*
X010670Y003957D01*
X010605Y003927D01*
X010540Y003901D01*
X010472Y003879D01*
X010404Y003860D01*
X010335Y003845D01*
X010265Y003834D01*
X010195Y003827D01*
X010124Y003823D01*
X010053Y003824D01*
X009983Y003828D01*
X009912Y003837D01*
X009843Y003849D01*
X009774Y003865D01*
X009706Y003885D01*
X009639Y003909D01*
X009574Y003936D01*
X009510Y003967D01*
X009448Y004002D01*
X009389Y004039D01*
X009331Y004081D01*
X009276Y004125D01*
X009223Y004172D01*
X009173Y004222D01*
X009126Y004275D01*
X009081Y004330D01*
X009089Y004335D01*
X009133Y004280D01*
X009181Y004227D01*
X009231Y004177D01*
X009284Y004129D01*
X009340Y004085D01*
X009398Y004044D01*
X009458Y004007D01*
X009520Y003972D01*
X009584Y003942D01*
X009650Y003915D01*
X009717Y003891D01*
X009785Y003872D01*
X009855Y003856D01*
X009925Y003844D01*
X009995Y003836D01*
X010066Y003832D01*
X010137Y003833D01*
X010208Y003837D01*
X010279Y003845D01*
X010349Y003857D01*
X010418Y003873D01*
X010486Y003892D01*
X010554Y003916D01*
X010619Y003943D01*
X010683Y003974D01*
X010745Y004008D01*
X010805Y004046D01*
X010863Y004088D01*
X010919Y004132D01*
X010972Y004179D01*
X011022Y004230D01*
X011069Y004283D01*
X011114Y004338D01*
X011155Y004396D01*
X011192Y004456D01*
X011227Y004519D01*
X011258Y004583D01*
X011285Y004648D01*
X011308Y004715D01*
X011328Y004784D01*
X011344Y004853D01*
X011356Y004923D01*
X011364Y004994D01*
X011368Y005064D01*
X011368Y005136D01*
X011364Y005206D01*
X011356Y005277D01*
X011344Y005347D01*
X011328Y005416D01*
X011308Y005485D01*
X011285Y005552D01*
X011258Y005617D01*
X011227Y005681D01*
X011192Y005744D01*
X011155Y005804D01*
X011114Y005862D01*
X011069Y005917D01*
X011022Y005970D01*
X010972Y006021D01*
X010919Y006068D01*
X010863Y006112D01*
X010805Y006154D01*
X010745Y006192D01*
X010683Y006226D01*
X010619Y006257D01*
X010554Y006284D01*
X010486Y006308D01*
X010418Y006327D01*
X010349Y006343D01*
X010279Y006355D01*
X010208Y006363D01*
X010137Y006367D01*
X010066Y006368D01*
X009995Y006364D01*
X009925Y006356D01*
X009855Y006344D01*
X009785Y006328D01*
X009717Y006309D01*
X009650Y006285D01*
X009584Y006258D01*
X009520Y006228D01*
X009458Y006193D01*
X009398Y006156D01*
X009340Y006115D01*
X009284Y006071D01*
X009231Y006023D01*
X009181Y005973D01*
X009133Y005920D01*
X009089Y005865D01*
X009096Y005859D01*
X009140Y005914D01*
X009187Y005967D01*
X009237Y006017D01*
X009290Y006064D01*
X009345Y006108D01*
X009403Y006148D01*
X009462Y006186D01*
X009524Y006220D01*
X009588Y006250D01*
X009653Y006277D01*
X009720Y006300D01*
X009788Y006320D01*
X009856Y006335D01*
X009926Y006347D01*
X009996Y006355D01*
X010067Y006359D01*
X010137Y006358D01*
X010208Y006354D01*
X010278Y006346D01*
X010347Y006334D01*
X010416Y006319D01*
X010484Y006299D01*
X010550Y006276D01*
X010615Y006249D01*
X010679Y006218D01*
X010741Y006184D01*
X010800Y006146D01*
X010858Y006105D01*
X010913Y006061D01*
X010966Y006014D01*
X011015Y005964D01*
X011062Y005912D01*
X011106Y005856D01*
X011147Y005799D01*
X011185Y005739D01*
X011219Y005677D01*
X011249Y005614D01*
X011276Y005549D01*
X011300Y005482D01*
X011319Y005414D01*
X011335Y005345D01*
X011347Y005276D01*
X011355Y005206D01*
X011359Y005135D01*
X011359Y005065D01*
X011355Y004994D01*
X011347Y004924D01*
X011335Y004855D01*
X011319Y004786D01*
X011300Y004718D01*
X011276Y004651D01*
X011249Y004586D01*
X011219Y004523D01*
X011185Y004461D01*
X011147Y004401D01*
X011106Y004344D01*
X011062Y004288D01*
X011015Y004236D01*
X010966Y004186D01*
X010913Y004139D01*
X010858Y004095D01*
X010800Y004054D01*
X010741Y004016D01*
X010679Y003982D01*
X010615Y003951D01*
X010550Y003924D01*
X010484Y003901D01*
X010416Y003881D01*
X010347Y003866D01*
X010278Y003854D01*
X010208Y003846D01*
X010137Y003842D01*
X010067Y003841D01*
X009996Y003845D01*
X009926Y003853D01*
X009856Y003865D01*
X009788Y003880D01*
X009720Y003900D01*
X009653Y003923D01*
X009588Y003950D01*
X009524Y003980D01*
X009462Y004014D01*
X009403Y004052D01*
X009345Y004092D01*
X009290Y004136D01*
X009237Y004183D01*
X009187Y004233D01*
X009140Y004286D01*
X009096Y004341D01*
X009103Y004346D01*
X009147Y004291D01*
X009194Y004239D01*
X009243Y004190D01*
X009296Y004143D01*
X009350Y004100D01*
X009408Y004059D01*
X009467Y004022D01*
X009528Y003988D01*
X009592Y003958D01*
X009656Y003931D01*
X009723Y003908D01*
X009790Y003889D01*
X009858Y003874D01*
X009927Y003862D01*
X009997Y003854D01*
X010067Y003850D01*
X010137Y003851D01*
X010207Y003855D01*
X010276Y003863D01*
X010345Y003874D01*
X010414Y003890D01*
X010481Y003909D01*
X010547Y003933D01*
X010612Y003960D01*
X010675Y003990D01*
X010736Y004024D01*
X010795Y004061D01*
X010853Y004102D01*
X010907Y004146D01*
X010959Y004192D01*
X011009Y004242D01*
X011056Y004294D01*
X011099Y004349D01*
X011140Y004406D01*
X011177Y004465D01*
X011211Y004527D01*
X011241Y004590D01*
X011268Y004655D01*
X011291Y004721D01*
X011310Y004788D01*
X011326Y004856D01*
X011338Y004925D01*
X011346Y004995D01*
X011350Y005065D01*
X011350Y005135D01*
X011346Y005205D01*
X011338Y005275D01*
X011326Y005344D01*
X011310Y005412D01*
X011291Y005479D01*
X011268Y005545D01*
X011241Y005610D01*
X011211Y005673D01*
X011177Y005735D01*
X011140Y005794D01*
X011099Y005851D01*
X011056Y005906D01*
X011009Y005958D01*
X010959Y006008D01*
X010907Y006054D01*
X010853Y006098D01*
X010795Y006139D01*
X010736Y006176D01*
X010675Y006210D01*
X010612Y006240D01*
X010547Y006267D01*
X010481Y006291D01*
X010414Y006310D01*
X010345Y006326D01*
X010276Y006337D01*
X010207Y006345D01*
X010137Y006349D01*
X010067Y006350D01*
X009997Y006346D01*
X009927Y006338D01*
X009858Y006326D01*
X009790Y006311D01*
X009723Y006292D01*
X009656Y006269D01*
X009592Y006242D01*
X009528Y006212D01*
X009467Y006178D01*
X009408Y006141D01*
X009350Y006100D01*
X009296Y006057D01*
X009243Y006010D01*
X009194Y005961D01*
X009147Y005909D01*
X009103Y005854D01*
X009110Y005849D01*
X009154Y005903D01*
X009200Y005955D01*
X009249Y006004D01*
X009301Y006050D01*
X009356Y006093D01*
X009413Y006133D01*
X009472Y006170D01*
X009533Y006204D01*
X009595Y006234D01*
X009660Y006260D01*
X009725Y006283D01*
X009792Y006302D01*
X009860Y006318D01*
X009929Y006329D01*
X009998Y006337D01*
X010067Y006341D01*
X010137Y006340D01*
X010206Y006336D01*
X010275Y006329D01*
X010344Y006317D01*
X010411Y006301D01*
X010478Y006282D01*
X010544Y006259D01*
X010608Y006232D01*
X010671Y006202D01*
X010732Y006168D01*
X010790Y006131D01*
X010847Y006091D01*
X010901Y006048D01*
X010953Y006001D01*
X011002Y005952D01*
X011049Y005900D01*
X011092Y005846D01*
X011132Y005789D01*
X011169Y005730D01*
X011203Y005669D01*
X011233Y005606D01*
X011260Y005542D01*
X011283Y005477D01*
X011302Y005410D01*
X011317Y005342D01*
X011329Y005273D01*
X011337Y005204D01*
X011341Y005135D01*
X011341Y005065D01*
X011337Y004996D01*
X011329Y004927D01*
X011317Y004858D01*
X011302Y004790D01*
X011283Y004723D01*
X011260Y004658D01*
X011233Y004594D01*
X011203Y004531D01*
X011169Y004470D01*
X011132Y004411D01*
X011092Y004354D01*
X011049Y004300D01*
X011002Y004248D01*
X010953Y004199D01*
X010901Y004152D01*
X010847Y004109D01*
X010790Y004069D01*
X010732Y004032D01*
X010671Y003998D01*
X010608Y003968D01*
X010544Y003941D01*
X010478Y003918D01*
X010411Y003899D01*
X010344Y003883D01*
X010275Y003871D01*
X010206Y003864D01*
X010137Y003860D01*
X010067Y003859D01*
X009998Y003863D01*
X009929Y003871D01*
X009860Y003882D01*
X009792Y003898D01*
X009725Y003917D01*
X009660Y003940D01*
X009595Y003966D01*
X009533Y003996D01*
X009472Y004030D01*
X009413Y004067D01*
X009356Y004107D01*
X009301Y004150D01*
X009249Y004196D01*
X009200Y004245D01*
X009154Y004297D01*
X009110Y004351D01*
X009117Y004357D01*
X009161Y004303D01*
X009207Y004252D01*
X009256Y004203D01*
X009307Y004157D01*
X009361Y004114D01*
X009418Y004074D01*
X009476Y004038D01*
X009537Y004004D01*
X009599Y003974D01*
X009663Y003948D01*
X009728Y003926D01*
X009794Y003907D01*
X009862Y003891D01*
X009930Y003880D01*
X009998Y003872D01*
X010067Y003868D01*
X010136Y003869D01*
X010205Y003873D01*
X010274Y003880D01*
X010342Y003892D01*
X010409Y003907D01*
X010476Y003927D01*
X010541Y003950D01*
X010604Y003976D01*
X010667Y004006D01*
X010727Y004039D01*
X010785Y004076D01*
X010842Y004116D01*
X010896Y004159D01*
X010947Y004205D01*
X010996Y004254D01*
X011042Y004306D01*
X011085Y004360D01*
X011125Y004416D01*
X011161Y004475D01*
X011195Y004535D01*
X011225Y004597D01*
X011251Y004661D01*
X011274Y004726D01*
X011293Y004793D01*
X011308Y004860D01*
X011320Y004928D01*
X011328Y004997D01*
X011332Y005065D01*
X011332Y005135D01*
X011328Y005203D01*
X011320Y005272D01*
X011308Y005340D01*
X011293Y005407D01*
X011274Y005474D01*
X011251Y005539D01*
X011225Y005603D01*
X011195Y005665D01*
X011161Y005725D01*
X011125Y005784D01*
X011085Y005840D01*
X011042Y005894D01*
X010996Y005946D01*
X010947Y005995D01*
X010896Y006041D01*
X010842Y006084D01*
X010785Y006124D01*
X010727Y006161D01*
X010667Y006194D01*
X010604Y006224D01*
X010541Y006250D01*
X010476Y006273D01*
X010409Y006293D01*
X010342Y006308D01*
X010274Y006320D01*
X010205Y006327D01*
X010136Y006331D01*
X010067Y006332D01*
X009998Y006328D01*
X009930Y006320D01*
X009862Y006309D01*
X009794Y006293D01*
X009728Y006274D01*
X009663Y006252D01*
X009599Y006226D01*
X009537Y006196D01*
X009476Y006162D01*
X009418Y006126D01*
X009361Y006086D01*
X009307Y006043D01*
X009256Y005997D01*
X009207Y005948D01*
X009161Y005897D01*
X009117Y005843D01*
X009125Y005838D01*
X009168Y005892D01*
X009214Y005943D01*
X009264Y005992D01*
X009315Y006038D01*
X009370Y006081D01*
X009427Y006121D01*
X009485Y006157D01*
X009546Y006191D01*
X009609Y006220D01*
X009673Y006246D01*
X009739Y006268D01*
X009806Y006287D01*
X009873Y006302D01*
X009942Y006313D01*
X010011Y006320D01*
X010080Y006323D01*
X010149Y006322D01*
X010219Y006317D01*
X010287Y006309D01*
X010355Y006296D01*
X010423Y006280D01*
X010489Y006259D01*
X010554Y006236D01*
X010618Y006208D01*
X010680Y006177D01*
X010740Y006142D01*
X010798Y006104D01*
X010854Y006063D01*
X010907Y006019D01*
X010958Y005972D01*
X011006Y005922D01*
X011051Y005869D01*
X011093Y005814D01*
X011132Y005757D01*
X011167Y005697D01*
X011199Y005636D01*
X011228Y005573D01*
X011253Y005508D01*
X011274Y005442D01*
X011292Y005375D01*
X011305Y005307D01*
X011315Y005238D01*
X011321Y005169D01*
X011323Y005100D01*
X011321Y005031D01*
X011315Y004962D01*
X011305Y004893D01*
X011292Y004825D01*
X011274Y004758D01*
X011253Y004692D01*
X011228Y004627D01*
X011199Y004564D01*
X011167Y004503D01*
X011132Y004443D01*
X011093Y004386D01*
X011051Y004331D01*
X011006Y004278D01*
X010958Y004228D01*
X010907Y004181D01*
X010854Y004137D01*
X010798Y004096D01*
X010740Y004058D01*
X010680Y004023D01*
X010618Y003992D01*
X010554Y003964D01*
X010489Y003941D01*
X010423Y003920D01*
X010355Y003904D01*
X010287Y003891D01*
X010219Y003883D01*
X010149Y003878D01*
X010080Y003877D01*
X010011Y003880D01*
X009942Y003887D01*
X009873Y003898D01*
X009806Y003913D01*
X009739Y003932D01*
X009673Y003954D01*
X009609Y003980D01*
X009546Y004009D01*
X009485Y004043D01*
X009427Y004079D01*
X009370Y004119D01*
X009315Y004162D01*
X009264Y004208D01*
X009214Y004257D01*
X009168Y004308D01*
X009125Y004362D01*
X009132Y004368D01*
X009175Y004314D01*
X009221Y004263D01*
X009270Y004214D01*
X009321Y004169D01*
X009375Y004126D01*
X009432Y004087D01*
X009490Y004050D01*
X009550Y004017D01*
X009613Y003988D01*
X009676Y003962D01*
X009742Y003940D01*
X009808Y003922D01*
X009875Y003907D01*
X009943Y003896D01*
X010012Y003889D01*
X010080Y003886D01*
X010149Y003887D01*
X010218Y003892D01*
X010286Y003900D01*
X010354Y003913D01*
X010420Y003929D01*
X010486Y003949D01*
X010551Y003973D01*
X010614Y004000D01*
X010675Y004031D01*
X010735Y004065D01*
X010793Y004103D01*
X010848Y004144D01*
X010901Y004188D01*
X010951Y004235D01*
X010999Y004284D01*
X011044Y004336D01*
X011086Y004391D01*
X011124Y004448D01*
X011159Y004507D01*
X011191Y004568D01*
X011220Y004631D01*
X011244Y004695D01*
X011266Y004761D01*
X011283Y004827D01*
X011296Y004895D01*
X011306Y004963D01*
X011312Y005031D01*
X011314Y005100D01*
X011312Y005169D01*
X011306Y005237D01*
X011296Y005305D01*
X011283Y005373D01*
X011266Y005439D01*
X011244Y005505D01*
X011220Y005569D01*
X011191Y005632D01*
X011159Y005693D01*
X011124Y005752D01*
X011086Y005809D01*
X011044Y005864D01*
X010999Y005916D01*
X010951Y005965D01*
X010901Y006012D01*
X010848Y006056D01*
X010793Y006097D01*
X010735Y006135D01*
X010675Y006169D01*
X010614Y006200D01*
X010551Y006227D01*
X010486Y006251D01*
X010420Y006271D01*
X010354Y006287D01*
X010286Y006300D01*
X010218Y006308D01*
X010149Y006313D01*
X010080Y006314D01*
X010012Y006311D01*
X009943Y006304D01*
X009875Y006293D01*
X009808Y006278D01*
X009742Y006260D01*
X009676Y006238D01*
X009613Y006212D01*
X009550Y006183D01*
X009490Y006150D01*
X009432Y006113D01*
X009375Y006074D01*
X009321Y006031D01*
X009270Y005986D01*
X009221Y005937D01*
X009175Y005886D01*
X009132Y005832D01*
X009068Y012320D02*
X009140Y012374D01*
X009139Y012373D02*
X009182Y012320D01*
X009227Y012269D01*
X009276Y012221D01*
X009327Y012176D01*
X009381Y012133D01*
X009437Y012094D01*
X009495Y012058D01*
X009555Y012025D01*
X009616Y011996D01*
X009680Y011971D01*
X009744Y011949D01*
X009810Y011930D01*
X009877Y011916D01*
X009944Y011905D01*
X010012Y011898D01*
X010080Y011895D01*
X010149Y011896D01*
X010217Y011901D01*
X010285Y011909D01*
X010352Y011922D01*
X010418Y011938D01*
X010483Y011958D01*
X010548Y011981D01*
X010610Y012008D01*
X010671Y012039D01*
X010730Y012073D01*
X010788Y012110D01*
X010843Y012151D01*
X010895Y012195D01*
X010945Y012241D01*
X010992Y012290D01*
X011037Y012342D01*
X011078Y012396D01*
X011117Y012453D01*
X011152Y012512D01*
X011183Y012572D01*
X011211Y012634D01*
X011236Y012698D01*
X011257Y012763D01*
X011274Y012829D01*
X011288Y012896D01*
X011297Y012964D01*
X011303Y013032D01*
X011305Y013100D01*
X011303Y013168D01*
X011297Y013236D01*
X011288Y013304D01*
X011274Y013371D01*
X011257Y013437D01*
X011236Y013502D01*
X011211Y013566D01*
X011183Y013628D01*
X011152Y013688D01*
X011117Y013747D01*
X011078Y013804D01*
X011037Y013858D01*
X010992Y013910D01*
X010945Y013959D01*
X010895Y014005D01*
X010843Y014049D01*
X010788Y014090D01*
X010730Y014127D01*
X010671Y014161D01*
X010610Y014192D01*
X010548Y014219D01*
X010483Y014242D01*
X010418Y014262D01*
X010352Y014278D01*
X010285Y014291D01*
X010217Y014299D01*
X010149Y014304D01*
X010080Y014305D01*
X010012Y014302D01*
X009944Y014295D01*
X009877Y014284D01*
X009810Y014270D01*
X009744Y014251D01*
X009680Y014229D01*
X009616Y014204D01*
X009555Y014175D01*
X009495Y014142D01*
X009437Y014106D01*
X009381Y014067D01*
X009327Y014024D01*
X009276Y013979D01*
X009227Y013931D01*
X009182Y013880D01*
X009139Y013827D01*
X009068Y013880D01*
X009067Y013881D01*
X009111Y013936D01*
X009159Y013989D01*
X009209Y014040D01*
X009262Y014087D01*
X009317Y014131D01*
X009375Y014173D01*
X009435Y014211D01*
X009496Y014246D01*
X009560Y014277D01*
X009625Y014305D01*
X009692Y014329D01*
X009760Y014350D01*
X009829Y014366D01*
X009899Y014379D01*
X009969Y014388D01*
X010040Y014394D01*
X010111Y014395D01*
X010182Y014392D01*
X010253Y014386D01*
X010323Y014376D01*
X010392Y014362D01*
X010461Y014344D01*
X010529Y014322D01*
X010595Y014297D01*
X010660Y014268D01*
X010723Y014235D01*
X010784Y014199D01*
X010843Y014160D01*
X010900Y014118D01*
X010955Y014073D01*
X011007Y014024D01*
X011056Y013973D01*
X011103Y013920D01*
X011146Y013863D01*
X011186Y013805D01*
X011223Y013744D01*
X011257Y013682D01*
X011287Y013618D01*
X011314Y013552D01*
X011337Y013485D01*
X011356Y013416D01*
X011371Y013347D01*
X011383Y013277D01*
X011391Y013206D01*
X011395Y013135D01*
X011395Y013065D01*
X011391Y012994D01*
X011383Y012923D01*
X011371Y012853D01*
X011356Y012784D01*
X011337Y012715D01*
X011314Y012648D01*
X011287Y012582D01*
X011257Y012518D01*
X011223Y012456D01*
X011186Y012395D01*
X011146Y012337D01*
X011103Y012280D01*
X011056Y012227D01*
X011007Y012176D01*
X010955Y012127D01*
X010900Y012082D01*
X010843Y012040D01*
X010784Y012001D01*
X010723Y011965D01*
X010660Y011932D01*
X010595Y011903D01*
X010529Y011878D01*
X010461Y011856D01*
X010392Y011838D01*
X010323Y011824D01*
X010253Y011814D01*
X010182Y011808D01*
X010111Y011805D01*
X010040Y011806D01*
X009969Y011812D01*
X009899Y011821D01*
X009829Y011834D01*
X009760Y011850D01*
X009692Y011871D01*
X009625Y011895D01*
X009560Y011923D01*
X009496Y011954D01*
X009435Y011989D01*
X009375Y012027D01*
X009317Y012069D01*
X009262Y012113D01*
X009209Y012160D01*
X009159Y012211D01*
X009111Y012264D01*
X009067Y012319D01*
X009074Y012324D01*
X009119Y012269D01*
X009166Y012216D01*
X009217Y012165D01*
X009270Y012118D01*
X009326Y012073D01*
X009384Y012032D01*
X009444Y011994D01*
X009506Y011959D01*
X009570Y011928D01*
X009636Y011901D01*
X009703Y011877D01*
X009772Y011857D01*
X009841Y011840D01*
X009911Y011828D01*
X009982Y011819D01*
X010053Y011815D01*
X010124Y011814D01*
X010195Y011818D01*
X010266Y011825D01*
X010337Y011836D01*
X010406Y011851D01*
X010475Y011870D01*
X010543Y011893D01*
X010609Y011919D01*
X010674Y011949D01*
X010736Y011983D01*
X010797Y012019D01*
X010856Y012060D01*
X010913Y012103D01*
X010967Y012150D01*
X011018Y012199D01*
X011066Y012252D01*
X011112Y012306D01*
X011154Y012364D01*
X011193Y012423D01*
X011229Y012485D01*
X011262Y012548D01*
X011290Y012613D01*
X011316Y012680D01*
X011337Y012748D01*
X011355Y012817D01*
X011368Y012887D01*
X011378Y012958D01*
X011384Y013029D01*
X011386Y013100D01*
X011384Y013171D01*
X011378Y013242D01*
X011368Y013313D01*
X011355Y013383D01*
X011337Y013452D01*
X011316Y013520D01*
X011290Y013587D01*
X011262Y013652D01*
X011229Y013715D01*
X011193Y013777D01*
X011154Y013836D01*
X011112Y013894D01*
X011066Y013948D01*
X011018Y014001D01*
X010967Y014050D01*
X010913Y014097D01*
X010856Y014140D01*
X010797Y014181D01*
X010736Y014217D01*
X010674Y014251D01*
X010609Y014281D01*
X010543Y014307D01*
X010475Y014330D01*
X010406Y014349D01*
X010337Y014364D01*
X010266Y014375D01*
X010195Y014382D01*
X010124Y014386D01*
X010053Y014385D01*
X009982Y014381D01*
X009911Y014372D01*
X009841Y014360D01*
X009772Y014343D01*
X009703Y014323D01*
X009636Y014299D01*
X009570Y014272D01*
X009506Y014241D01*
X009444Y014206D01*
X009384Y014168D01*
X009326Y014127D01*
X009270Y014082D01*
X009217Y014035D01*
X009166Y013984D01*
X009119Y013931D01*
X009074Y013876D01*
X009081Y013870D01*
X009126Y013925D01*
X009173Y013978D01*
X009223Y014028D01*
X009276Y014075D01*
X009331Y014119D01*
X009389Y014161D01*
X009448Y014198D01*
X009510Y014233D01*
X009574Y014264D01*
X009639Y014291D01*
X009706Y014315D01*
X009774Y014335D01*
X009843Y014351D01*
X009912Y014363D01*
X009983Y014372D01*
X010053Y014376D01*
X010124Y014377D01*
X010195Y014373D01*
X010265Y014366D01*
X010335Y014355D01*
X010404Y014340D01*
X010472Y014321D01*
X010540Y014299D01*
X010605Y014273D01*
X010670Y014243D01*
X010732Y014210D01*
X010792Y014173D01*
X010851Y014133D01*
X010907Y014090D01*
X010961Y014044D01*
X011011Y013994D01*
X011060Y013943D01*
X011105Y013888D01*
X011147Y013831D01*
X011186Y013772D01*
X011221Y013711D01*
X011254Y013648D01*
X011282Y013583D01*
X011307Y013517D01*
X011328Y013449D01*
X011346Y013381D01*
X011359Y013311D01*
X011369Y013241D01*
X011375Y013171D01*
X011377Y013100D01*
X011375Y013029D01*
X011369Y012959D01*
X011359Y012889D01*
X011346Y012819D01*
X011328Y012751D01*
X011307Y012683D01*
X011282Y012617D01*
X011254Y012552D01*
X011221Y012489D01*
X011186Y012428D01*
X011147Y012369D01*
X011105Y012312D01*
X011060Y012257D01*
X011011Y012206D01*
X010961Y012156D01*
X010907Y012110D01*
X010851Y012067D01*
X010792Y012027D01*
X010732Y011990D01*
X010670Y011957D01*
X010605Y011927D01*
X010540Y011901D01*
X010472Y011879D01*
X010404Y011860D01*
X010335Y011845D01*
X010265Y011834D01*
X010195Y011827D01*
X010124Y011823D01*
X010053Y011824D01*
X009983Y011828D01*
X009912Y011837D01*
X009843Y011849D01*
X009774Y011865D01*
X009706Y011885D01*
X009639Y011909D01*
X009574Y011936D01*
X009510Y011967D01*
X009448Y012002D01*
X009389Y012039D01*
X009331Y012081D01*
X009276Y012125D01*
X009223Y012172D01*
X009173Y012222D01*
X009126Y012275D01*
X009081Y012330D01*
X009089Y012335D01*
X009133Y012280D01*
X009181Y012227D01*
X009231Y012177D01*
X009284Y012129D01*
X009340Y012085D01*
X009398Y012044D01*
X009458Y012007D01*
X009520Y011972D01*
X009584Y011942D01*
X009650Y011915D01*
X009717Y011891D01*
X009785Y011872D01*
X009855Y011856D01*
X009925Y011844D01*
X009995Y011836D01*
X010066Y011832D01*
X010137Y011833D01*
X010208Y011837D01*
X010279Y011845D01*
X010349Y011857D01*
X010418Y011873D01*
X010486Y011892D01*
X010554Y011916D01*
X010619Y011943D01*
X010683Y011974D01*
X010745Y012008D01*
X010805Y012046D01*
X010863Y012088D01*
X010919Y012132D01*
X010972Y012179D01*
X011022Y012230D01*
X011069Y012283D01*
X011114Y012338D01*
X011155Y012396D01*
X011192Y012456D01*
X011227Y012519D01*
X011258Y012583D01*
X011285Y012648D01*
X011308Y012715D01*
X011328Y012784D01*
X011344Y012853D01*
X011356Y012923D01*
X011364Y012994D01*
X011368Y013064D01*
X011368Y013136D01*
X011364Y013206D01*
X011356Y013277D01*
X011344Y013347D01*
X011328Y013416D01*
X011308Y013485D01*
X011285Y013552D01*
X011258Y013617D01*
X011227Y013681D01*
X011192Y013744D01*
X011155Y013804D01*
X011114Y013862D01*
X011069Y013917D01*
X011022Y013970D01*
X010972Y014021D01*
X010919Y014068D01*
X010863Y014112D01*
X010805Y014154D01*
X010745Y014192D01*
X010683Y014226D01*
X010619Y014257D01*
X010554Y014284D01*
X010486Y014308D01*
X010418Y014327D01*
X010349Y014343D01*
X010279Y014355D01*
X010208Y014363D01*
X010137Y014367D01*
X010066Y014368D01*
X009995Y014364D01*
X009925Y014356D01*
X009855Y014344D01*
X009785Y014328D01*
X009717Y014309D01*
X009650Y014285D01*
X009584Y014258D01*
X009520Y014228D01*
X009458Y014193D01*
X009398Y014156D01*
X009340Y014115D01*
X009284Y014071D01*
X009231Y014023D01*
X009181Y013973D01*
X009133Y013920D01*
X009089Y013865D01*
X009096Y013859D01*
X009140Y013914D01*
X009187Y013967D01*
X009237Y014017D01*
X009290Y014064D01*
X009345Y014108D01*
X009403Y014148D01*
X009462Y014186D01*
X009524Y014220D01*
X009588Y014250D01*
X009653Y014277D01*
X009720Y014300D01*
X009788Y014320D01*
X009856Y014335D01*
X009926Y014347D01*
X009996Y014355D01*
X010067Y014359D01*
X010137Y014358D01*
X010208Y014354D01*
X010278Y014346D01*
X010347Y014334D01*
X010416Y014319D01*
X010484Y014299D01*
X010550Y014276D01*
X010615Y014249D01*
X010679Y014218D01*
X010741Y014184D01*
X010800Y014146D01*
X010858Y014105D01*
X010913Y014061D01*
X010966Y014014D01*
X011015Y013964D01*
X011062Y013912D01*
X011106Y013856D01*
X011147Y013799D01*
X011185Y013739D01*
X011219Y013677D01*
X011249Y013614D01*
X011276Y013549D01*
X011300Y013482D01*
X011319Y013414D01*
X011335Y013345D01*
X011347Y013276D01*
X011355Y013206D01*
X011359Y013135D01*
X011359Y013065D01*
X011355Y012994D01*
X011347Y012924D01*
X011335Y012855D01*
X011319Y012786D01*
X011300Y012718D01*
X011276Y012651D01*
X011249Y012586D01*
X011219Y012523D01*
X011185Y012461D01*
X011147Y012401D01*
X011106Y012344D01*
X011062Y012288D01*
X011015Y012236D01*
X010966Y012186D01*
X010913Y012139D01*
X010858Y012095D01*
X010800Y012054D01*
X010741Y012016D01*
X010679Y011982D01*
X010615Y011951D01*
X010550Y011924D01*
X010484Y011901D01*
X010416Y011881D01*
X010347Y011866D01*
X010278Y011854D01*
X010208Y011846D01*
X010137Y011842D01*
X010067Y011841D01*
X009996Y011845D01*
X009926Y011853D01*
X009856Y011865D01*
X009788Y011880D01*
X009720Y011900D01*
X009653Y011923D01*
X009588Y011950D01*
X009524Y011980D01*
X009462Y012014D01*
X009403Y012052D01*
X009345Y012092D01*
X009290Y012136D01*
X009237Y012183D01*
X009187Y012233D01*
X009140Y012286D01*
X009096Y012341D01*
X009103Y012346D01*
X009147Y012291D01*
X009194Y012239D01*
X009243Y012190D01*
X009296Y012143D01*
X009350Y012100D01*
X009408Y012059D01*
X009467Y012022D01*
X009528Y011988D01*
X009592Y011958D01*
X009656Y011931D01*
X009723Y011908D01*
X009790Y011889D01*
X009858Y011874D01*
X009927Y011862D01*
X009997Y011854D01*
X010067Y011850D01*
X010137Y011851D01*
X010207Y011855D01*
X010276Y011863D01*
X010345Y011874D01*
X010414Y011890D01*
X010481Y011909D01*
X010547Y011933D01*
X010612Y011960D01*
X010675Y011990D01*
X010736Y012024D01*
X010795Y012061D01*
X010853Y012102D01*
X010907Y012146D01*
X010959Y012192D01*
X011009Y012242D01*
X011056Y012294D01*
X011099Y012349D01*
X011140Y012406D01*
X011177Y012465D01*
X011211Y012527D01*
X011241Y012590D01*
X011268Y012655D01*
X011291Y012721D01*
X011310Y012788D01*
X011326Y012856D01*
X011338Y012925D01*
X011346Y012995D01*
X011350Y013065D01*
X011350Y013135D01*
X011346Y013205D01*
X011338Y013275D01*
X011326Y013344D01*
X011310Y013412D01*
X011291Y013479D01*
X011268Y013545D01*
X011241Y013610D01*
X011211Y013673D01*
X011177Y013735D01*
X011140Y013794D01*
X011099Y013851D01*
X011056Y013906D01*
X011009Y013958D01*
X010959Y014008D01*
X010907Y014054D01*
X010853Y014098D01*
X010795Y014139D01*
X010736Y014176D01*
X010675Y014210D01*
X010612Y014240D01*
X010547Y014267D01*
X010481Y014291D01*
X010414Y014310D01*
X010345Y014326D01*
X010276Y014337D01*
X010207Y014345D01*
X010137Y014349D01*
X010067Y014350D01*
X009997Y014346D01*
X009927Y014338D01*
X009858Y014326D01*
X009790Y014311D01*
X009723Y014292D01*
X009656Y014269D01*
X009592Y014242D01*
X009528Y014212D01*
X009467Y014178D01*
X009408Y014141D01*
X009350Y014100D01*
X009296Y014057D01*
X009243Y014010D01*
X009194Y013961D01*
X009147Y013909D01*
X009103Y013854D01*
X009110Y013849D01*
X009154Y013903D01*
X009200Y013955D01*
X009249Y014004D01*
X009301Y014050D01*
X009356Y014093D01*
X009413Y014133D01*
X009472Y014170D01*
X009533Y014204D01*
X009595Y014234D01*
X009660Y014260D01*
X009725Y014283D01*
X009792Y014302D01*
X009860Y014318D01*
X009929Y014329D01*
X009998Y014337D01*
X010067Y014341D01*
X010137Y014340D01*
X010206Y014336D01*
X010275Y014329D01*
X010344Y014317D01*
X010411Y014301D01*
X010478Y014282D01*
X010544Y014259D01*
X010608Y014232D01*
X010671Y014202D01*
X010732Y014168D01*
X010790Y014131D01*
X010847Y014091D01*
X010901Y014048D01*
X010953Y014001D01*
X011002Y013952D01*
X011049Y013900D01*
X011092Y013846D01*
X011132Y013789D01*
X011169Y013730D01*
X011203Y013669D01*
X011233Y013606D01*
X011260Y013542D01*
X011283Y013477D01*
X011302Y013410D01*
X011317Y013342D01*
X011329Y013273D01*
X011337Y013204D01*
X011341Y013135D01*
X011341Y013065D01*
X011337Y012996D01*
X011329Y012927D01*
X011317Y012858D01*
X011302Y012790D01*
X011283Y012723D01*
X011260Y012658D01*
X011233Y012594D01*
X011203Y012531D01*
X011169Y012470D01*
X011132Y012411D01*
X011092Y012354D01*
X011049Y012300D01*
X011002Y012248D01*
X010953Y012199D01*
X010901Y012152D01*
X010847Y012109D01*
X010790Y012069D01*
X010732Y012032D01*
X010671Y011998D01*
X010608Y011968D01*
X010544Y011941D01*
X010478Y011918D01*
X010411Y011899D01*
X010344Y011883D01*
X010275Y011871D01*
X010206Y011864D01*
X010137Y011860D01*
X010067Y011859D01*
X009998Y011863D01*
X009929Y011871D01*
X009860Y011882D01*
X009792Y011898D01*
X009725Y011917D01*
X009660Y011940D01*
X009595Y011966D01*
X009533Y011996D01*
X009472Y012030D01*
X009413Y012067D01*
X009356Y012107D01*
X009301Y012150D01*
X009249Y012196D01*
X009200Y012245D01*
X009154Y012297D01*
X009110Y012351D01*
X009117Y012357D01*
X009161Y012303D01*
X009207Y012252D01*
X009256Y012203D01*
X009307Y012157D01*
X009361Y012114D01*
X009418Y012074D01*
X009476Y012038D01*
X009537Y012004D01*
X009599Y011974D01*
X009663Y011948D01*
X009728Y011926D01*
X009794Y011907D01*
X009862Y011891D01*
X009930Y011880D01*
X009998Y011872D01*
X010067Y011868D01*
X010136Y011869D01*
X010205Y011873D01*
X010274Y011880D01*
X010342Y011892D01*
X010409Y011907D01*
X010476Y011927D01*
X010541Y011950D01*
X010604Y011976D01*
X010667Y012006D01*
X010727Y012039D01*
X010785Y012076D01*
X010842Y012116D01*
X010896Y012159D01*
X010947Y012205D01*
X010996Y012254D01*
X011042Y012306D01*
X011085Y012360D01*
X011125Y012416D01*
X011161Y012475D01*
X011195Y012535D01*
X011225Y012597D01*
X011251Y012661D01*
X011274Y012726D01*
X011293Y012793D01*
X011308Y012860D01*
X011320Y012928D01*
X011328Y012997D01*
X011332Y013065D01*
X011332Y013135D01*
X011328Y013203D01*
X011320Y013272D01*
X011308Y013340D01*
X011293Y013407D01*
X011274Y013474D01*
X011251Y013539D01*
X011225Y013603D01*
X011195Y013665D01*
X011161Y013725D01*
X011125Y013784D01*
X011085Y013840D01*
X011042Y013894D01*
X010996Y013946D01*
X010947Y013995D01*
X010896Y014041D01*
X010842Y014084D01*
X010785Y014124D01*
X010727Y014161D01*
X010667Y014194D01*
X010604Y014224D01*
X010541Y014250D01*
X010476Y014273D01*
X010409Y014293D01*
X010342Y014308D01*
X010274Y014320D01*
X010205Y014327D01*
X010136Y014331D01*
X010067Y014332D01*
X009998Y014328D01*
X009930Y014320D01*
X009862Y014309D01*
X009794Y014293D01*
X009728Y014274D01*
X009663Y014252D01*
X009599Y014226D01*
X009537Y014196D01*
X009476Y014162D01*
X009418Y014126D01*
X009361Y014086D01*
X009307Y014043D01*
X009256Y013997D01*
X009207Y013948D01*
X009161Y013897D01*
X009117Y013843D01*
X009125Y013838D01*
X009168Y013892D01*
X009214Y013943D01*
X009264Y013992D01*
X009315Y014038D01*
X009370Y014081D01*
X009427Y014121D01*
X009485Y014157D01*
X009546Y014191D01*
X009609Y014220D01*
X009673Y014246D01*
X009739Y014268D01*
X009806Y014287D01*
X009873Y014302D01*
X009942Y014313D01*
X010011Y014320D01*
X010080Y014323D01*
X010149Y014322D01*
X010219Y014317D01*
X010287Y014309D01*
X010355Y014296D01*
X010423Y014280D01*
X010489Y014259D01*
X010554Y014236D01*
X010618Y014208D01*
X010680Y014177D01*
X010740Y014142D01*
X010798Y014104D01*
X010854Y014063D01*
X010907Y014019D01*
X010958Y013972D01*
X011006Y013922D01*
X011051Y013869D01*
X011093Y013814D01*
X011132Y013757D01*
X011167Y013697D01*
X011199Y013636D01*
X011228Y013573D01*
X011253Y013508D01*
X011274Y013442D01*
X011292Y013375D01*
X011305Y013307D01*
X011315Y013238D01*
X011321Y013169D01*
X011323Y013100D01*
X011321Y013031D01*
X011315Y012962D01*
X011305Y012893D01*
X011292Y012825D01*
X011274Y012758D01*
X011253Y012692D01*
X011228Y012627D01*
X011199Y012564D01*
X011167Y012503D01*
X011132Y012443D01*
X011093Y012386D01*
X011051Y012331D01*
X011006Y012278D01*
X010958Y012228D01*
X010907Y012181D01*
X010854Y012137D01*
X010798Y012096D01*
X010740Y012058D01*
X010680Y012023D01*
X010618Y011992D01*
X010554Y011964D01*
X010489Y011941D01*
X010423Y011920D01*
X010355Y011904D01*
X010287Y011891D01*
X010219Y011883D01*
X010149Y011878D01*
X010080Y011877D01*
X010011Y011880D01*
X009942Y011887D01*
X009873Y011898D01*
X009806Y011913D01*
X009739Y011932D01*
X009673Y011954D01*
X009609Y011980D01*
X009546Y012009D01*
X009485Y012043D01*
X009427Y012079D01*
X009370Y012119D01*
X009315Y012162D01*
X009264Y012208D01*
X009214Y012257D01*
X009168Y012308D01*
X009125Y012362D01*
X009132Y012368D01*
X009175Y012314D01*
X009221Y012263D01*
X009270Y012214D01*
X009321Y012169D01*
X009375Y012126D01*
X009432Y012087D01*
X009490Y012050D01*
X009550Y012017D01*
X009613Y011988D01*
X009676Y011962D01*
X009742Y011940D01*
X009808Y011922D01*
X009875Y011907D01*
X009943Y011896D01*
X010012Y011889D01*
X010080Y011886D01*
X010149Y011887D01*
X010218Y011892D01*
X010286Y011900D01*
X010354Y011913D01*
X010420Y011929D01*
X010486Y011949D01*
X010551Y011973D01*
X010614Y012000D01*
X010675Y012031D01*
X010735Y012065D01*
X010793Y012103D01*
X010848Y012144D01*
X010901Y012188D01*
X010951Y012235D01*
X010999Y012284D01*
X011044Y012336D01*
X011086Y012391D01*
X011124Y012448D01*
X011159Y012507D01*
X011191Y012568D01*
X011220Y012631D01*
X011244Y012695D01*
X011266Y012761D01*
X011283Y012827D01*
X011296Y012895D01*
X011306Y012963D01*
X011312Y013031D01*
X011314Y013100D01*
X011312Y013169D01*
X011306Y013237D01*
X011296Y013305D01*
X011283Y013373D01*
X011266Y013439D01*
X011244Y013505D01*
X011220Y013569D01*
X011191Y013632D01*
X011159Y013693D01*
X011124Y013752D01*
X011086Y013809D01*
X011044Y013864D01*
X010999Y013916D01*
X010951Y013965D01*
X010901Y014012D01*
X010848Y014056D01*
X010793Y014097D01*
X010735Y014135D01*
X010675Y014169D01*
X010614Y014200D01*
X010551Y014227D01*
X010486Y014251D01*
X010420Y014271D01*
X010354Y014287D01*
X010286Y014300D01*
X010218Y014308D01*
X010149Y014313D01*
X010080Y014314D01*
X010012Y014311D01*
X009943Y014304D01*
X009875Y014293D01*
X009808Y014278D01*
X009742Y014260D01*
X009676Y014238D01*
X009613Y014212D01*
X009550Y014183D01*
X009490Y014150D01*
X009432Y014113D01*
X009375Y014074D01*
X009321Y014031D01*
X009270Y013986D01*
X009221Y013937D01*
X009175Y013886D01*
X009132Y013832D01*
X021568Y012320D02*
X021640Y012374D01*
X021639Y012373D02*
X021682Y012320D01*
X021727Y012269D01*
X021776Y012221D01*
X021827Y012176D01*
X021881Y012133D01*
X021937Y012094D01*
X021995Y012058D01*
X022055Y012025D01*
X022116Y011996D01*
X022180Y011971D01*
X022244Y011949D01*
X022310Y011930D01*
X022377Y011916D01*
X022444Y011905D01*
X022512Y011898D01*
X022580Y011895D01*
X022649Y011896D01*
X022717Y011901D01*
X022785Y011909D01*
X022852Y011922D01*
X022918Y011938D01*
X022983Y011958D01*
X023048Y011981D01*
X023110Y012008D01*
X023171Y012039D01*
X023230Y012073D01*
X023288Y012110D01*
X023343Y012151D01*
X023395Y012195D01*
X023445Y012241D01*
X023492Y012290D01*
X023537Y012342D01*
X023578Y012396D01*
X023617Y012453D01*
X023652Y012512D01*
X023683Y012572D01*
X023711Y012634D01*
X023736Y012698D01*
X023757Y012763D01*
X023774Y012829D01*
X023788Y012896D01*
X023797Y012964D01*
X023803Y013032D01*
X023805Y013100D01*
X023803Y013168D01*
X023797Y013236D01*
X023788Y013304D01*
X023774Y013371D01*
X023757Y013437D01*
X023736Y013502D01*
X023711Y013566D01*
X023683Y013628D01*
X023652Y013688D01*
X023617Y013747D01*
X023578Y013804D01*
X023537Y013858D01*
X023492Y013910D01*
X023445Y013959D01*
X023395Y014005D01*
X023343Y014049D01*
X023288Y014090D01*
X023230Y014127D01*
X023171Y014161D01*
X023110Y014192D01*
X023048Y014219D01*
X022983Y014242D01*
X022918Y014262D01*
X022852Y014278D01*
X022785Y014291D01*
X022717Y014299D01*
X022649Y014304D01*
X022580Y014305D01*
X022512Y014302D01*
X022444Y014295D01*
X022377Y014284D01*
X022310Y014270D01*
X022244Y014251D01*
X022180Y014229D01*
X022116Y014204D01*
X022055Y014175D01*
X021995Y014142D01*
X021937Y014106D01*
X021881Y014067D01*
X021827Y014024D01*
X021776Y013979D01*
X021727Y013931D01*
X021682Y013880D01*
X021639Y013827D01*
X021568Y013880D01*
X021567Y013881D01*
X021611Y013936D01*
X021659Y013989D01*
X021709Y014040D01*
X021762Y014087D01*
X021817Y014131D01*
X021875Y014173D01*
X021935Y014211D01*
X021996Y014246D01*
X022060Y014277D01*
X022125Y014305D01*
X022192Y014329D01*
X022260Y014350D01*
X022329Y014366D01*
X022399Y014379D01*
X022469Y014388D01*
X022540Y014394D01*
X022611Y014395D01*
X022682Y014392D01*
X022753Y014386D01*
X022823Y014376D01*
X022892Y014362D01*
X022961Y014344D01*
X023029Y014322D01*
X023095Y014297D01*
X023160Y014268D01*
X023223Y014235D01*
X023284Y014199D01*
X023343Y014160D01*
X023400Y014118D01*
X023455Y014073D01*
X023507Y014024D01*
X023556Y013973D01*
X023603Y013920D01*
X023646Y013863D01*
X023686Y013805D01*
X023723Y013744D01*
X023757Y013682D01*
X023787Y013618D01*
X023814Y013552D01*
X023837Y013485D01*
X023856Y013416D01*
X023871Y013347D01*
X023883Y013277D01*
X023891Y013206D01*
X023895Y013135D01*
X023895Y013065D01*
X023891Y012994D01*
X023883Y012923D01*
X023871Y012853D01*
X023856Y012784D01*
X023837Y012715D01*
X023814Y012648D01*
X023787Y012582D01*
X023757Y012518D01*
X023723Y012456D01*
X023686Y012395D01*
X023646Y012337D01*
X023603Y012280D01*
X023556Y012227D01*
X023507Y012176D01*
X023455Y012127D01*
X023400Y012082D01*
X023343Y012040D01*
X023284Y012001D01*
X023223Y011965D01*
X023160Y011932D01*
X023095Y011903D01*
X023029Y011878D01*
X022961Y011856D01*
X022892Y011838D01*
X022823Y011824D01*
X022753Y011814D01*
X022682Y011808D01*
X022611Y011805D01*
X022540Y011806D01*
X022469Y011812D01*
X022399Y011821D01*
X022329Y011834D01*
X022260Y011850D01*
X022192Y011871D01*
X022125Y011895D01*
X022060Y011923D01*
X021996Y011954D01*
X021935Y011989D01*
X021875Y012027D01*
X021817Y012069D01*
X021762Y012113D01*
X021709Y012160D01*
X021659Y012211D01*
X021611Y012264D01*
X021567Y012319D01*
X021574Y012324D01*
X021619Y012269D01*
X021666Y012216D01*
X021717Y012165D01*
X021770Y012118D01*
X021826Y012073D01*
X021884Y012032D01*
X021944Y011994D01*
X022006Y011959D01*
X022070Y011928D01*
X022136Y011901D01*
X022203Y011877D01*
X022272Y011857D01*
X022341Y011840D01*
X022411Y011828D01*
X022482Y011819D01*
X022553Y011815D01*
X022624Y011814D01*
X022695Y011818D01*
X022766Y011825D01*
X022837Y011836D01*
X022906Y011851D01*
X022975Y011870D01*
X023043Y011893D01*
X023109Y011919D01*
X023174Y011949D01*
X023236Y011983D01*
X023297Y012019D01*
X023356Y012060D01*
X023413Y012103D01*
X023467Y012150D01*
X023518Y012199D01*
X023566Y012252D01*
X023612Y012306D01*
X023654Y012364D01*
X023693Y012423D01*
X023729Y012485D01*
X023762Y012548D01*
X023790Y012613D01*
X023816Y012680D01*
X023837Y012748D01*
X023855Y012817D01*
X023868Y012887D01*
X023878Y012958D01*
X023884Y013029D01*
X023886Y013100D01*
X023884Y013171D01*
X023878Y013242D01*
X023868Y013313D01*
X023855Y013383D01*
X023837Y013452D01*
X023816Y013520D01*
X023790Y013587D01*
X023762Y013652D01*
X023729Y013715D01*
X023693Y013777D01*
X023654Y013836D01*
X023612Y013894D01*
X023566Y013948D01*
X023518Y014001D01*
X023467Y014050D01*
X023413Y014097D01*
X023356Y014140D01*
X023297Y014181D01*
X023236Y014217D01*
X023174Y014251D01*
X023109Y014281D01*
X023043Y014307D01*
X022975Y014330D01*
X022906Y014349D01*
X022837Y014364D01*
X022766Y014375D01*
X022695Y014382D01*
X022624Y014386D01*
X022553Y014385D01*
X022482Y014381D01*
X022411Y014372D01*
X022341Y014360D01*
X022272Y014343D01*
X022203Y014323D01*
X022136Y014299D01*
X022070Y014272D01*
X022006Y014241D01*
X021944Y014206D01*
X021884Y014168D01*
X021826Y014127D01*
X021770Y014082D01*
X021717Y014035D01*
X021666Y013984D01*
X021619Y013931D01*
X021574Y013876D01*
X021581Y013870D01*
X021626Y013925D01*
X021673Y013978D01*
X021723Y014028D01*
X021776Y014075D01*
X021831Y014119D01*
X021889Y014161D01*
X021948Y014198D01*
X022010Y014233D01*
X022074Y014264D01*
X022139Y014291D01*
X022206Y014315D01*
X022274Y014335D01*
X022343Y014351D01*
X022412Y014363D01*
X022483Y014372D01*
X022553Y014376D01*
X022624Y014377D01*
X022695Y014373D01*
X022765Y014366D01*
X022835Y014355D01*
X022904Y014340D01*
X022972Y014321D01*
X023040Y014299D01*
X023105Y014273D01*
X023170Y014243D01*
X023232Y014210D01*
X023292Y014173D01*
X023351Y014133D01*
X023407Y014090D01*
X023461Y014044D01*
X023511Y013994D01*
X023560Y013943D01*
X023605Y013888D01*
X023647Y013831D01*
X023686Y013772D01*
X023721Y013711D01*
X023754Y013648D01*
X023782Y013583D01*
X023807Y013517D01*
X023828Y013449D01*
X023846Y013381D01*
X023859Y013311D01*
X023869Y013241D01*
X023875Y013171D01*
X023877Y013100D01*
X023875Y013029D01*
X023869Y012959D01*
X023859Y012889D01*
X023846Y012819D01*
X023828Y012751D01*
X023807Y012683D01*
X023782Y012617D01*
X023754Y012552D01*
X023721Y012489D01*
X023686Y012428D01*
X023647Y012369D01*
X023605Y012312D01*
X023560Y012257D01*
X023511Y012206D01*
X023461Y012156D01*
X023407Y012110D01*
X023351Y012067D01*
X023292Y012027D01*
X023232Y011990D01*
X023170Y011957D01*
X023105Y011927D01*
X023040Y011901D01*
X022972Y011879D01*
X022904Y011860D01*
X022835Y011845D01*
X022765Y011834D01*
X022695Y011827D01*
X022624Y011823D01*
X022553Y011824D01*
X022483Y011828D01*
X022412Y011837D01*
X022343Y011849D01*
X022274Y011865D01*
X022206Y011885D01*
X022139Y011909D01*
X022074Y011936D01*
X022010Y011967D01*
X021948Y012002D01*
X021889Y012039D01*
X021831Y012081D01*
X021776Y012125D01*
X021723Y012172D01*
X021673Y012222D01*
X021626Y012275D01*
X021581Y012330D01*
X021589Y012335D01*
X021633Y012280D01*
X021681Y012227D01*
X021731Y012177D01*
X021784Y012129D01*
X021840Y012085D01*
X021898Y012044D01*
X021958Y012007D01*
X022020Y011972D01*
X022084Y011942D01*
X022150Y011915D01*
X022217Y011891D01*
X022285Y011872D01*
X022355Y011856D01*
X022425Y011844D01*
X022495Y011836D01*
X022566Y011832D01*
X022637Y011833D01*
X022708Y011837D01*
X022779Y011845D01*
X022849Y011857D01*
X022918Y011873D01*
X022986Y011892D01*
X023054Y011916D01*
X023119Y011943D01*
X023183Y011974D01*
X023245Y012008D01*
X023305Y012046D01*
X023363Y012088D01*
X023419Y012132D01*
X023472Y012179D01*
X023522Y012230D01*
X023569Y012283D01*
X023614Y012338D01*
X023655Y012396D01*
X023692Y012456D01*
X023727Y012519D01*
X023758Y012583D01*
X023785Y012648D01*
X023808Y012715D01*
X023828Y012784D01*
X023844Y012853D01*
X023856Y012923D01*
X023864Y012994D01*
X023868Y013064D01*
X023868Y013136D01*
X023864Y013206D01*
X023856Y013277D01*
X023844Y013347D01*
X023828Y013416D01*
X023808Y013485D01*
X023785Y013552D01*
X023758Y013617D01*
X023727Y013681D01*
X023692Y013744D01*
X023655Y013804D01*
X023614Y013862D01*
X023569Y013917D01*
X023522Y013970D01*
X023472Y014021D01*
X023419Y014068D01*
X023363Y014112D01*
X023305Y014154D01*
X023245Y014192D01*
X023183Y014226D01*
X023119Y014257D01*
X023054Y014284D01*
X022986Y014308D01*
X022918Y014327D01*
X022849Y014343D01*
X022779Y014355D01*
X022708Y014363D01*
X022637Y014367D01*
X022566Y014368D01*
X022495Y014364D01*
X022425Y014356D01*
X022355Y014344D01*
X022285Y014328D01*
X022217Y014309D01*
X022150Y014285D01*
X022084Y014258D01*
X022020Y014228D01*
X021958Y014193D01*
X021898Y014156D01*
X021840Y014115D01*
X021784Y014071D01*
X021731Y014023D01*
X021681Y013973D01*
X021633Y013920D01*
X021589Y013865D01*
X021596Y013859D01*
X021640Y013914D01*
X021687Y013967D01*
X021737Y014017D01*
X021790Y014064D01*
X021845Y014108D01*
X021903Y014148D01*
X021962Y014186D01*
X022024Y014220D01*
X022088Y014250D01*
X022153Y014277D01*
X022220Y014300D01*
X022288Y014320D01*
X022356Y014335D01*
X022426Y014347D01*
X022496Y014355D01*
X022567Y014359D01*
X022637Y014358D01*
X022708Y014354D01*
X022778Y014346D01*
X022847Y014334D01*
X022916Y014319D01*
X022984Y014299D01*
X023050Y014276D01*
X023115Y014249D01*
X023179Y014218D01*
X023241Y014184D01*
X023300Y014146D01*
X023358Y014105D01*
X023413Y014061D01*
X023466Y014014D01*
X023515Y013964D01*
X023562Y013912D01*
X023606Y013856D01*
X023647Y013799D01*
X023685Y013739D01*
X023719Y013677D01*
X023749Y013614D01*
X023776Y013549D01*
X023800Y013482D01*
X023819Y013414D01*
X023835Y013345D01*
X023847Y013276D01*
X023855Y013206D01*
X023859Y013135D01*
X023859Y013065D01*
X023855Y012994D01*
X023847Y012924D01*
X023835Y012855D01*
X023819Y012786D01*
X023800Y012718D01*
X023776Y012651D01*
X023749Y012586D01*
X023719Y012523D01*
X023685Y012461D01*
X023647Y012401D01*
X023606Y012344D01*
X023562Y012288D01*
X023515Y012236D01*
X023466Y012186D01*
X023413Y012139D01*
X023358Y012095D01*
X023300Y012054D01*
X023241Y012016D01*
X023179Y011982D01*
X023115Y011951D01*
X023050Y011924D01*
X022984Y011901D01*
X022916Y011881D01*
X022847Y011866D01*
X022778Y011854D01*
X022708Y011846D01*
X022637Y011842D01*
X022567Y011841D01*
X022496Y011845D01*
X022426Y011853D01*
X022356Y011865D01*
X022288Y011880D01*
X022220Y011900D01*
X022153Y011923D01*
X022088Y011950D01*
X022024Y011980D01*
X021962Y012014D01*
X021903Y012052D01*
X021845Y012092D01*
X021790Y012136D01*
X021737Y012183D01*
X021687Y012233D01*
X021640Y012286D01*
X021596Y012341D01*
X021603Y012346D01*
X021647Y012291D01*
X021694Y012239D01*
X021743Y012190D01*
X021796Y012143D01*
X021850Y012100D01*
X021908Y012059D01*
X021967Y012022D01*
X022028Y011988D01*
X022092Y011958D01*
X022156Y011931D01*
X022223Y011908D01*
X022290Y011889D01*
X022358Y011874D01*
X022427Y011862D01*
X022497Y011854D01*
X022567Y011850D01*
X022637Y011851D01*
X022707Y011855D01*
X022776Y011863D01*
X022845Y011874D01*
X022914Y011890D01*
X022981Y011909D01*
X023047Y011933D01*
X023112Y011960D01*
X023175Y011990D01*
X023236Y012024D01*
X023295Y012061D01*
X023353Y012102D01*
X023407Y012146D01*
X023459Y012192D01*
X023509Y012242D01*
X023556Y012294D01*
X023599Y012349D01*
X023640Y012406D01*
X023677Y012465D01*
X023711Y012527D01*
X023741Y012590D01*
X023768Y012655D01*
X023791Y012721D01*
X023810Y012788D01*
X023826Y012856D01*
X023838Y012925D01*
X023846Y012995D01*
X023850Y013065D01*
X023850Y013135D01*
X023846Y013205D01*
X023838Y013275D01*
X023826Y013344D01*
X023810Y013412D01*
X023791Y013479D01*
X023768Y013545D01*
X023741Y013610D01*
X023711Y013673D01*
X023677Y013735D01*
X023640Y013794D01*
X023599Y013851D01*
X023556Y013906D01*
X023509Y013958D01*
X023459Y014008D01*
X023407Y014054D01*
X023353Y014098D01*
X023295Y014139D01*
X023236Y014176D01*
X023175Y014210D01*
X023112Y014240D01*
X023047Y014267D01*
X022981Y014291D01*
X022914Y014310D01*
X022845Y014326D01*
X022776Y014337D01*
X022707Y014345D01*
X022637Y014349D01*
X022567Y014350D01*
X022497Y014346D01*
X022427Y014338D01*
X022358Y014326D01*
X022290Y014311D01*
X022223Y014292D01*
X022156Y014269D01*
X022092Y014242D01*
X022028Y014212D01*
X021967Y014178D01*
X021908Y014141D01*
X021850Y014100D01*
X021796Y014057D01*
X021743Y014010D01*
X021694Y013961D01*
X021647Y013909D01*
X021603Y013854D01*
X021610Y013849D01*
X021654Y013903D01*
X021700Y013955D01*
X021749Y014004D01*
X021801Y014050D01*
X021856Y014093D01*
X021913Y014133D01*
X021972Y014170D01*
X022033Y014204D01*
X022095Y014234D01*
X022160Y014260D01*
X022225Y014283D01*
X022292Y014302D01*
X022360Y014318D01*
X022429Y014329D01*
X022498Y014337D01*
X022567Y014341D01*
X022637Y014340D01*
X022706Y014336D01*
X022775Y014329D01*
X022844Y014317D01*
X022911Y014301D01*
X022978Y014282D01*
X023044Y014259D01*
X023108Y014232D01*
X023171Y014202D01*
X023232Y014168D01*
X023290Y014131D01*
X023347Y014091D01*
X023401Y014048D01*
X023453Y014001D01*
X023502Y013952D01*
X023549Y013900D01*
X023592Y013846D01*
X023632Y013789D01*
X023669Y013730D01*
X023703Y013669D01*
X023733Y013606D01*
X023760Y013542D01*
X023783Y013477D01*
X023802Y013410D01*
X023817Y013342D01*
X023829Y013273D01*
X023837Y013204D01*
X023841Y013135D01*
X023841Y013065D01*
X023837Y012996D01*
X023829Y012927D01*
X023817Y012858D01*
X023802Y012790D01*
X023783Y012723D01*
X023760Y012658D01*
X023733Y012594D01*
X023703Y012531D01*
X023669Y012470D01*
X023632Y012411D01*
X023592Y012354D01*
X023549Y012300D01*
X023502Y012248D01*
X023453Y012199D01*
X023401Y012152D01*
X023347Y012109D01*
X023290Y012069D01*
X023232Y012032D01*
X023171Y011998D01*
X023108Y011968D01*
X023044Y011941D01*
X022978Y011918D01*
X022911Y011899D01*
X022844Y011883D01*
X022775Y011871D01*
X022706Y011864D01*
X022637Y011860D01*
X022567Y011859D01*
X022498Y011863D01*
X022429Y011871D01*
X022360Y011882D01*
X022292Y011898D01*
X022225Y011917D01*
X022160Y011940D01*
X022095Y011966D01*
X022033Y011996D01*
X021972Y012030D01*
X021913Y012067D01*
X021856Y012107D01*
X021801Y012150D01*
X021749Y012196D01*
X021700Y012245D01*
X021654Y012297D01*
X021610Y012351D01*
X021617Y012357D01*
X021661Y012303D01*
X021707Y012252D01*
X021756Y012203D01*
X021807Y012157D01*
X021861Y012114D01*
X021918Y012074D01*
X021976Y012038D01*
X022037Y012004D01*
X022099Y011974D01*
X022163Y011948D01*
X022228Y011926D01*
X022294Y011907D01*
X022362Y011891D01*
X022430Y011880D01*
X022498Y011872D01*
X022567Y011868D01*
X022636Y011869D01*
X022705Y011873D01*
X022774Y011880D01*
X022842Y011892D01*
X022909Y011907D01*
X022976Y011927D01*
X023041Y011950D01*
X023104Y011976D01*
X023167Y012006D01*
X023227Y012039D01*
X023285Y012076D01*
X023342Y012116D01*
X023396Y012159D01*
X023447Y012205D01*
X023496Y012254D01*
X023542Y012306D01*
X023585Y012360D01*
X023625Y012416D01*
X023661Y012475D01*
X023695Y012535D01*
X023725Y012597D01*
X023751Y012661D01*
X023774Y012726D01*
X023793Y012793D01*
X023808Y012860D01*
X023820Y012928D01*
X023828Y012997D01*
X023832Y013065D01*
X023832Y013135D01*
X023828Y013203D01*
X023820Y013272D01*
X023808Y013340D01*
X023793Y013407D01*
X023774Y013474D01*
X023751Y013539D01*
X023725Y013603D01*
X023695Y013665D01*
X023661Y013725D01*
X023625Y013784D01*
X023585Y013840D01*
X023542Y013894D01*
X023496Y013946D01*
X023447Y013995D01*
X023396Y014041D01*
X023342Y014084D01*
X023285Y014124D01*
X023227Y014161D01*
X023167Y014194D01*
X023104Y014224D01*
X023041Y014250D01*
X022976Y014273D01*
X022909Y014293D01*
X022842Y014308D01*
X022774Y014320D01*
X022705Y014327D01*
X022636Y014331D01*
X022567Y014332D01*
X022498Y014328D01*
X022430Y014320D01*
X022362Y014309D01*
X022294Y014293D01*
X022228Y014274D01*
X022163Y014252D01*
X022099Y014226D01*
X022037Y014196D01*
X021976Y014162D01*
X021918Y014126D01*
X021861Y014086D01*
X021807Y014043D01*
X021756Y013997D01*
X021707Y013948D01*
X021661Y013897D01*
X021617Y013843D01*
X021625Y013838D01*
X021668Y013892D01*
X021714Y013943D01*
X021764Y013992D01*
X021815Y014038D01*
X021870Y014081D01*
X021927Y014121D01*
X021985Y014157D01*
X022046Y014191D01*
X022109Y014220D01*
X022173Y014246D01*
X022239Y014268D01*
X022306Y014287D01*
X022373Y014302D01*
X022442Y014313D01*
X022511Y014320D01*
X022580Y014323D01*
X022649Y014322D01*
X022719Y014317D01*
X022787Y014309D01*
X022855Y014296D01*
X022923Y014280D01*
X022989Y014259D01*
X023054Y014236D01*
X023118Y014208D01*
X023180Y014177D01*
X023240Y014142D01*
X023298Y014104D01*
X023354Y014063D01*
X023407Y014019D01*
X023458Y013972D01*
X023506Y013922D01*
X023551Y013869D01*
X023593Y013814D01*
X023632Y013757D01*
X023667Y013697D01*
X023699Y013636D01*
X023728Y013573D01*
X023753Y013508D01*
X023774Y013442D01*
X023792Y013375D01*
X023805Y013307D01*
X023815Y013238D01*
X023821Y013169D01*
X023823Y013100D01*
X023821Y013031D01*
X023815Y012962D01*
X023805Y012893D01*
X023792Y012825D01*
X023774Y012758D01*
X023753Y012692D01*
X023728Y012627D01*
X023699Y012564D01*
X023667Y012503D01*
X023632Y012443D01*
X023593Y012386D01*
X023551Y012331D01*
X023506Y012278D01*
X023458Y012228D01*
X023407Y012181D01*
X023354Y012137D01*
X023298Y012096D01*
X023240Y012058D01*
X023180Y012023D01*
X023118Y011992D01*
X023054Y011964D01*
X022989Y011941D01*
X022923Y011920D01*
X022855Y011904D01*
X022787Y011891D01*
X022719Y011883D01*
X022649Y011878D01*
X022580Y011877D01*
X022511Y011880D01*
X022442Y011887D01*
X022373Y011898D01*
X022306Y011913D01*
X022239Y011932D01*
X022173Y011954D01*
X022109Y011980D01*
X022046Y012009D01*
X021985Y012043D01*
X021927Y012079D01*
X021870Y012119D01*
X021815Y012162D01*
X021764Y012208D01*
X021714Y012257D01*
X021668Y012308D01*
X021625Y012362D01*
X021632Y012368D01*
X021675Y012314D01*
X021721Y012263D01*
X021770Y012214D01*
X021821Y012169D01*
X021875Y012126D01*
X021932Y012087D01*
X021990Y012050D01*
X022050Y012017D01*
X022113Y011988D01*
X022176Y011962D01*
X022242Y011940D01*
X022308Y011922D01*
X022375Y011907D01*
X022443Y011896D01*
X022512Y011889D01*
X022580Y011886D01*
X022649Y011887D01*
X022718Y011892D01*
X022786Y011900D01*
X022854Y011913D01*
X022920Y011929D01*
X022986Y011949D01*
X023051Y011973D01*
X023114Y012000D01*
X023175Y012031D01*
X023235Y012065D01*
X023293Y012103D01*
X023348Y012144D01*
X023401Y012188D01*
X023451Y012235D01*
X023499Y012284D01*
X023544Y012336D01*
X023586Y012391D01*
X023624Y012448D01*
X023659Y012507D01*
X023691Y012568D01*
X023720Y012631D01*
X023744Y012695D01*
X023766Y012761D01*
X023783Y012827D01*
X023796Y012895D01*
X023806Y012963D01*
X023812Y013031D01*
X023814Y013100D01*
X023812Y013169D01*
X023806Y013237D01*
X023796Y013305D01*
X023783Y013373D01*
X023766Y013439D01*
X023744Y013505D01*
X023720Y013569D01*
X023691Y013632D01*
X023659Y013693D01*
X023624Y013752D01*
X023586Y013809D01*
X023544Y013864D01*
X023499Y013916D01*
X023451Y013965D01*
X023401Y014012D01*
X023348Y014056D01*
X023293Y014097D01*
X023235Y014135D01*
X023175Y014169D01*
X023114Y014200D01*
X023051Y014227D01*
X022986Y014251D01*
X022920Y014271D01*
X022854Y014287D01*
X022786Y014300D01*
X022718Y014308D01*
X022649Y014313D01*
X022580Y014314D01*
X022512Y014311D01*
X022443Y014304D01*
X022375Y014293D01*
X022308Y014278D01*
X022242Y014260D01*
X022176Y014238D01*
X022113Y014212D01*
X022050Y014183D01*
X021990Y014150D01*
X021932Y014113D01*
X021875Y014074D01*
X021821Y014031D01*
X021770Y013986D01*
X021721Y013937D01*
X021675Y013886D01*
X021632Y013832D01*
X021568Y004320D02*
X021640Y004374D01*
X021639Y004373D02*
X021682Y004320D01*
X021727Y004269D01*
X021776Y004221D01*
X021827Y004176D01*
X021881Y004133D01*
X021937Y004094D01*
X021995Y004058D01*
X022055Y004025D01*
X022116Y003996D01*
X022180Y003971D01*
X022244Y003949D01*
X022310Y003930D01*
X022377Y003916D01*
X022444Y003905D01*
X022512Y003898D01*
X022580Y003895D01*
X022649Y003896D01*
X022717Y003901D01*
X022785Y003909D01*
X022852Y003922D01*
X022918Y003938D01*
X022983Y003958D01*
X023048Y003981D01*
X023110Y004008D01*
X023171Y004039D01*
X023230Y004073D01*
X023288Y004110D01*
X023343Y004151D01*
X023395Y004195D01*
X023445Y004241D01*
X023492Y004290D01*
X023537Y004342D01*
X023578Y004396D01*
X023617Y004453D01*
X023652Y004512D01*
X023683Y004572D01*
X023711Y004634D01*
X023736Y004698D01*
X023757Y004763D01*
X023774Y004829D01*
X023788Y004896D01*
X023797Y004964D01*
X023803Y005032D01*
X023805Y005100D01*
X023803Y005168D01*
X023797Y005236D01*
X023788Y005304D01*
X023774Y005371D01*
X023757Y005437D01*
X023736Y005502D01*
X023711Y005566D01*
X023683Y005628D01*
X023652Y005688D01*
X023617Y005747D01*
X023578Y005804D01*
X023537Y005858D01*
X023492Y005910D01*
X023445Y005959D01*
X023395Y006005D01*
X023343Y006049D01*
X023288Y006090D01*
X023230Y006127D01*
X023171Y006161D01*
X023110Y006192D01*
X023048Y006219D01*
X022983Y006242D01*
X022918Y006262D01*
X022852Y006278D01*
X022785Y006291D01*
X022717Y006299D01*
X022649Y006304D01*
X022580Y006305D01*
X022512Y006302D01*
X022444Y006295D01*
X022377Y006284D01*
X022310Y006270D01*
X022244Y006251D01*
X022180Y006229D01*
X022116Y006204D01*
X022055Y006175D01*
X021995Y006142D01*
X021937Y006106D01*
X021881Y006067D01*
X021827Y006024D01*
X021776Y005979D01*
X021727Y005931D01*
X021682Y005880D01*
X021639Y005827D01*
X021568Y005880D01*
X021567Y005881D01*
X021611Y005936D01*
X021659Y005989D01*
X021709Y006040D01*
X021762Y006087D01*
X021817Y006131D01*
X021875Y006173D01*
X021935Y006211D01*
X021996Y006246D01*
X022060Y006277D01*
X022125Y006305D01*
X022192Y006329D01*
X022260Y006350D01*
X022329Y006366D01*
X022399Y006379D01*
X022469Y006388D01*
X022540Y006394D01*
X022611Y006395D01*
X022682Y006392D01*
X022753Y006386D01*
X022823Y006376D01*
X022892Y006362D01*
X022961Y006344D01*
X023029Y006322D01*
X023095Y006297D01*
X023160Y006268D01*
X023223Y006235D01*
X023284Y006199D01*
X023343Y006160D01*
X023400Y006118D01*
X023455Y006073D01*
X023507Y006024D01*
X023556Y005973D01*
X023603Y005920D01*
X023646Y005863D01*
X023686Y005805D01*
X023723Y005744D01*
X023757Y005682D01*
X023787Y005618D01*
X023814Y005552D01*
X023837Y005485D01*
X023856Y005416D01*
X023871Y005347D01*
X023883Y005277D01*
X023891Y005206D01*
X023895Y005135D01*
X023895Y005065D01*
X023891Y004994D01*
X023883Y004923D01*
X023871Y004853D01*
X023856Y004784D01*
X023837Y004715D01*
X023814Y004648D01*
X023787Y004582D01*
X023757Y004518D01*
X023723Y004456D01*
X023686Y004395D01*
X023646Y004337D01*
X023603Y004280D01*
X023556Y004227D01*
X023507Y004176D01*
X023455Y004127D01*
X023400Y004082D01*
X023343Y004040D01*
X023284Y004001D01*
X023223Y003965D01*
X023160Y003932D01*
X023095Y003903D01*
X023029Y003878D01*
X022961Y003856D01*
X022892Y003838D01*
X022823Y003824D01*
X022753Y003814D01*
X022682Y003808D01*
X022611Y003805D01*
X022540Y003806D01*
X022469Y003812D01*
X022399Y003821D01*
X022329Y003834D01*
X022260Y003850D01*
X022192Y003871D01*
X022125Y003895D01*
X022060Y003923D01*
X021996Y003954D01*
X021935Y003989D01*
X021875Y004027D01*
X021817Y004069D01*
X021762Y004113D01*
X021709Y004160D01*
X021659Y004211D01*
X021611Y004264D01*
X021567Y004319D01*
X021574Y004324D01*
X021619Y004269D01*
X021666Y004216D01*
X021717Y004165D01*
X021770Y004118D01*
X021826Y004073D01*
X021884Y004032D01*
X021944Y003994D01*
X022006Y003959D01*
X022070Y003928D01*
X022136Y003901D01*
X022203Y003877D01*
X022272Y003857D01*
X022341Y003840D01*
X022411Y003828D01*
X022482Y003819D01*
X022553Y003815D01*
X022624Y003814D01*
X022695Y003818D01*
X022766Y003825D01*
X022837Y003836D01*
X022906Y003851D01*
X022975Y003870D01*
X023043Y003893D01*
X023109Y003919D01*
X023174Y003949D01*
X023236Y003983D01*
X023297Y004019D01*
X023356Y004060D01*
X023413Y004103D01*
X023467Y004150D01*
X023518Y004199D01*
X023566Y004252D01*
X023612Y004306D01*
X023654Y004364D01*
X023693Y004423D01*
X023729Y004485D01*
X023762Y004548D01*
X023790Y004613D01*
X023816Y004680D01*
X023837Y004748D01*
X023855Y004817D01*
X023868Y004887D01*
X023878Y004958D01*
X023884Y005029D01*
X023886Y005100D01*
X023884Y005171D01*
X023878Y005242D01*
X023868Y005313D01*
X023855Y005383D01*
X023837Y005452D01*
X023816Y005520D01*
X023790Y005587D01*
X023762Y005652D01*
X023729Y005715D01*
X023693Y005777D01*
X023654Y005836D01*
X023612Y005894D01*
X023566Y005948D01*
X023518Y006001D01*
X023467Y006050D01*
X023413Y006097D01*
X023356Y006140D01*
X023297Y006181D01*
X023236Y006217D01*
X023174Y006251D01*
X023109Y006281D01*
X023043Y006307D01*
X022975Y006330D01*
X022906Y006349D01*
X022837Y006364D01*
X022766Y006375D01*
X022695Y006382D01*
X022624Y006386D01*
X022553Y006385D01*
X022482Y006381D01*
X022411Y006372D01*
X022341Y006360D01*
X022272Y006343D01*
X022203Y006323D01*
X022136Y006299D01*
X022070Y006272D01*
X022006Y006241D01*
X021944Y006206D01*
X021884Y006168D01*
X021826Y006127D01*
X021770Y006082D01*
X021717Y006035D01*
X021666Y005984D01*
X021619Y005931D01*
X021574Y005876D01*
X021581Y005870D01*
X021626Y005925D01*
X021673Y005978D01*
X021723Y006028D01*
X021776Y006075D01*
X021831Y006119D01*
X021889Y006161D01*
X021948Y006198D01*
X022010Y006233D01*
X022074Y006264D01*
X022139Y006291D01*
X022206Y006315D01*
X022274Y006335D01*
X022343Y006351D01*
X022412Y006363D01*
X022483Y006372D01*
X022553Y006376D01*
X022624Y006377D01*
X022695Y006373D01*
X022765Y006366D01*
X022835Y006355D01*
X022904Y006340D01*
X022972Y006321D01*
X023040Y006299D01*
X023105Y006273D01*
X023170Y006243D01*
X023232Y006210D01*
X023292Y006173D01*
X023351Y006133D01*
X023407Y006090D01*
X023461Y006044D01*
X023511Y005994D01*
X023560Y005943D01*
X023605Y005888D01*
X023647Y005831D01*
X023686Y005772D01*
X023721Y005711D01*
X023754Y005648D01*
X023782Y005583D01*
X023807Y005517D01*
X023828Y005449D01*
X023846Y005381D01*
X023859Y005311D01*
X023869Y005241D01*
X023875Y005171D01*
X023877Y005100D01*
X023875Y005029D01*
X023869Y004959D01*
X023859Y004889D01*
X023846Y004819D01*
X023828Y004751D01*
X023807Y004683D01*
X023782Y004617D01*
X023754Y004552D01*
X023721Y004489D01*
X023686Y004428D01*
X023647Y004369D01*
X023605Y004312D01*
X023560Y004257D01*
X023511Y004206D01*
X023461Y004156D01*
X023407Y004110D01*
X023351Y004067D01*
X023292Y004027D01*
X023232Y003990D01*
X023170Y003957D01*
X023105Y003927D01*
X023040Y003901D01*
X022972Y003879D01*
X022904Y003860D01*
X022835Y003845D01*
X022765Y003834D01*
X022695Y003827D01*
X022624Y003823D01*
X022553Y003824D01*
X022483Y003828D01*
X022412Y003837D01*
X022343Y003849D01*
X022274Y003865D01*
X022206Y003885D01*
X022139Y003909D01*
X022074Y003936D01*
X022010Y003967D01*
X021948Y004002D01*
X021889Y004039D01*
X021831Y004081D01*
X021776Y004125D01*
X021723Y004172D01*
X021673Y004222D01*
X021626Y004275D01*
X021581Y004330D01*
X021589Y004335D01*
X021633Y004280D01*
X021681Y004227D01*
X021731Y004177D01*
X021784Y004129D01*
X021840Y004085D01*
X021898Y004044D01*
X021958Y004007D01*
X022020Y003972D01*
X022084Y003942D01*
X022150Y003915D01*
X022217Y003891D01*
X022285Y003872D01*
X022355Y003856D01*
X022425Y003844D01*
X022495Y003836D01*
X022566Y003832D01*
X022637Y003833D01*
X022708Y003837D01*
X022779Y003845D01*
X022849Y003857D01*
X022918Y003873D01*
X022986Y003892D01*
X023054Y003916D01*
X023119Y003943D01*
X023183Y003974D01*
X023245Y004008D01*
X023305Y004046D01*
X023363Y004088D01*
X023419Y004132D01*
X023472Y004179D01*
X023522Y004230D01*
X023569Y004283D01*
X023614Y004338D01*
X023655Y004396D01*
X023692Y004456D01*
X023727Y004519D01*
X023758Y004583D01*
X023785Y004648D01*
X023808Y004715D01*
X023828Y004784D01*
X023844Y004853D01*
X023856Y004923D01*
X023864Y004994D01*
X023868Y005064D01*
X023868Y005136D01*
X023864Y005206D01*
X023856Y005277D01*
X023844Y005347D01*
X023828Y005416D01*
X023808Y005485D01*
X023785Y005552D01*
X023758Y005617D01*
X023727Y005681D01*
X023692Y005744D01*
X023655Y005804D01*
X023614Y005862D01*
X023569Y005917D01*
X023522Y005970D01*
X023472Y006021D01*
X023419Y006068D01*
X023363Y006112D01*
X023305Y006154D01*
X023245Y006192D01*
X023183Y006226D01*
X023119Y006257D01*
X023054Y006284D01*
X022986Y006308D01*
X022918Y006327D01*
X022849Y006343D01*
X022779Y006355D01*
X022708Y006363D01*
X022637Y006367D01*
X022566Y006368D01*
X022495Y006364D01*
X022425Y006356D01*
X022355Y006344D01*
X022285Y006328D01*
X022217Y006309D01*
X022150Y006285D01*
X022084Y006258D01*
X022020Y006228D01*
X021958Y006193D01*
X021898Y006156D01*
X021840Y006115D01*
X021784Y006071D01*
X021731Y006023D01*
X021681Y005973D01*
X021633Y005920D01*
X021589Y005865D01*
X021596Y005859D01*
X021640Y005914D01*
X021687Y005967D01*
X021737Y006017D01*
X021790Y006064D01*
X021845Y006108D01*
X021903Y006148D01*
X021962Y006186D01*
X022024Y006220D01*
X022088Y006250D01*
X022153Y006277D01*
X022220Y006300D01*
X022288Y006320D01*
X022356Y006335D01*
X022426Y006347D01*
X022496Y006355D01*
X022567Y006359D01*
X022637Y006358D01*
X022708Y006354D01*
X022778Y006346D01*
X022847Y006334D01*
X022916Y006319D01*
X022984Y006299D01*
X023050Y006276D01*
X023115Y006249D01*
X023179Y006218D01*
X023241Y006184D01*
X023300Y006146D01*
X023358Y006105D01*
X023413Y006061D01*
X023466Y006014D01*
X023515Y005964D01*
X023562Y005912D01*
X023606Y005856D01*
X023647Y005799D01*
X023685Y005739D01*
X023719Y005677D01*
X023749Y005614D01*
X023776Y005549D01*
X023800Y005482D01*
X023819Y005414D01*
X023835Y005345D01*
X023847Y005276D01*
X023855Y005206D01*
X023859Y005135D01*
X023859Y005065D01*
X023855Y004994D01*
X023847Y004924D01*
X023835Y004855D01*
X023819Y004786D01*
X023800Y004718D01*
X023776Y004651D01*
X023749Y004586D01*
X023719Y004523D01*
X023685Y004461D01*
X023647Y004401D01*
X023606Y004344D01*
X023562Y004288D01*
X023515Y004236D01*
X023466Y004186D01*
X023413Y004139D01*
X023358Y004095D01*
X023300Y004054D01*
X023241Y004016D01*
X023179Y003982D01*
X023115Y003951D01*
X023050Y003924D01*
X022984Y003901D01*
X022916Y003881D01*
X022847Y003866D01*
X022778Y003854D01*
X022708Y003846D01*
X022637Y003842D01*
X022567Y003841D01*
X022496Y003845D01*
X022426Y003853D01*
X022356Y003865D01*
X022288Y003880D01*
X022220Y003900D01*
X022153Y003923D01*
X022088Y003950D01*
X022024Y003980D01*
X021962Y004014D01*
X021903Y004052D01*
X021845Y004092D01*
X021790Y004136D01*
X021737Y004183D01*
X021687Y004233D01*
X021640Y004286D01*
X021596Y004341D01*
X021603Y004346D01*
X021647Y004291D01*
X021694Y004239D01*
X021743Y004190D01*
X021796Y004143D01*
X021850Y004100D01*
X021908Y004059D01*
X021967Y004022D01*
X022028Y003988D01*
X022092Y003958D01*
X022156Y003931D01*
X022223Y003908D01*
X022290Y003889D01*
X022358Y003874D01*
X022427Y003862D01*
X022497Y003854D01*
X022567Y003850D01*
X022637Y003851D01*
X022707Y003855D01*
X022776Y003863D01*
X022845Y003874D01*
X022914Y003890D01*
X022981Y003909D01*
X023047Y003933D01*
X023112Y003960D01*
X023175Y003990D01*
X023236Y004024D01*
X023295Y004061D01*
X023353Y004102D01*
X023407Y004146D01*
X023459Y004192D01*
X023509Y004242D01*
X023556Y004294D01*
X023599Y004349D01*
X023640Y004406D01*
X023677Y004465D01*
X023711Y004527D01*
X023741Y004590D01*
X023768Y004655D01*
X023791Y004721D01*
X023810Y004788D01*
X023826Y004856D01*
X023838Y004925D01*
X023846Y004995D01*
X023850Y005065D01*
X023850Y005135D01*
X023846Y005205D01*
X023838Y005275D01*
X023826Y005344D01*
X023810Y005412D01*
X023791Y005479D01*
X023768Y005545D01*
X023741Y005610D01*
X023711Y005673D01*
X023677Y005735D01*
X023640Y005794D01*
X023599Y005851D01*
X023556Y005906D01*
X023509Y005958D01*
X023459Y006008D01*
X023407Y006054D01*
X023353Y006098D01*
X023295Y006139D01*
X023236Y006176D01*
X023175Y006210D01*
X023112Y006240D01*
X023047Y006267D01*
X022981Y006291D01*
X022914Y006310D01*
X022845Y006326D01*
X022776Y006337D01*
X022707Y006345D01*
X022637Y006349D01*
X022567Y006350D01*
X022497Y006346D01*
X022427Y006338D01*
X022358Y006326D01*
X022290Y006311D01*
X022223Y006292D01*
X022156Y006269D01*
X022092Y006242D01*
X022028Y006212D01*
X021967Y006178D01*
X021908Y006141D01*
X021850Y006100D01*
X021796Y006057D01*
X021743Y006010D01*
X021694Y005961D01*
X021647Y005909D01*
X021603Y005854D01*
X021610Y005849D01*
X021654Y005903D01*
X021700Y005955D01*
X021749Y006004D01*
X021801Y006050D01*
X021856Y006093D01*
X021913Y006133D01*
X021972Y006170D01*
X022033Y006204D01*
X022095Y006234D01*
X022160Y006260D01*
X022225Y006283D01*
X022292Y006302D01*
X022360Y006318D01*
X022429Y006329D01*
X022498Y006337D01*
X022567Y006341D01*
X022637Y006340D01*
X022706Y006336D01*
X022775Y006329D01*
X022844Y006317D01*
X022911Y006301D01*
X022978Y006282D01*
X023044Y006259D01*
X023108Y006232D01*
X023171Y006202D01*
X023232Y006168D01*
X023290Y006131D01*
X023347Y006091D01*
X023401Y006048D01*
X023453Y006001D01*
X023502Y005952D01*
X023549Y005900D01*
X023592Y005846D01*
X023632Y005789D01*
X023669Y005730D01*
X023703Y005669D01*
X023733Y005606D01*
X023760Y005542D01*
X023783Y005477D01*
X023802Y005410D01*
X023817Y005342D01*
X023829Y005273D01*
X023837Y005204D01*
X023841Y005135D01*
X023841Y005065D01*
X023837Y004996D01*
X023829Y004927D01*
X023817Y004858D01*
X023802Y004790D01*
X023783Y004723D01*
X023760Y004658D01*
X023733Y004594D01*
X023703Y004531D01*
X023669Y004470D01*
X023632Y004411D01*
X023592Y004354D01*
X023549Y004300D01*
X023502Y004248D01*
X023453Y004199D01*
X023401Y004152D01*
X023347Y004109D01*
X023290Y004069D01*
X023232Y004032D01*
X023171Y003998D01*
X023108Y003968D01*
X023044Y003941D01*
X022978Y003918D01*
X022911Y003899D01*
X022844Y003883D01*
X022775Y003871D01*
X022706Y003864D01*
X022637Y003860D01*
X022567Y003859D01*
X022498Y003863D01*
X022429Y003871D01*
X022360Y003882D01*
X022292Y003898D01*
X022225Y003917D01*
X022160Y003940D01*
X022095Y003966D01*
X022033Y003996D01*
X021972Y004030D01*
X021913Y004067D01*
X021856Y004107D01*
X021801Y004150D01*
X021749Y004196D01*
X021700Y004245D01*
X021654Y004297D01*
X021610Y004351D01*
X021617Y004357D01*
X021661Y004303D01*
X021707Y004252D01*
X021756Y004203D01*
X021807Y004157D01*
X021861Y004114D01*
X021918Y004074D01*
X021976Y004038D01*
X022037Y004004D01*
X022099Y003974D01*
X022163Y003948D01*
X022228Y003926D01*
X022294Y003907D01*
X022362Y003891D01*
X022430Y003880D01*
X022498Y003872D01*
X022567Y003868D01*
X022636Y003869D01*
X022705Y003873D01*
X022774Y003880D01*
X022842Y003892D01*
X022909Y003907D01*
X022976Y003927D01*
X023041Y003950D01*
X023104Y003976D01*
X023167Y004006D01*
X023227Y004039D01*
X023285Y004076D01*
X023342Y004116D01*
X023396Y004159D01*
X023447Y004205D01*
X023496Y004254D01*
X023542Y004306D01*
X023585Y004360D01*
X023625Y004416D01*
X023661Y004475D01*
X023695Y004535D01*
X023725Y004597D01*
X023751Y004661D01*
X023774Y004726D01*
X023793Y004793D01*
X023808Y004860D01*
X023820Y004928D01*
X023828Y004997D01*
X023832Y005065D01*
X023832Y005135D01*
X023828Y005203D01*
X023820Y005272D01*
X023808Y005340D01*
X023793Y005407D01*
X023774Y005474D01*
X023751Y005539D01*
X023725Y005603D01*
X023695Y005665D01*
X023661Y005725D01*
X023625Y005784D01*
X023585Y005840D01*
X023542Y005894D01*
X023496Y005946D01*
X023447Y005995D01*
X023396Y006041D01*
X023342Y006084D01*
X023285Y006124D01*
X023227Y006161D01*
X023167Y006194D01*
X023104Y006224D01*
X023041Y006250D01*
X022976Y006273D01*
X022909Y006293D01*
X022842Y006308D01*
X022774Y006320D01*
X022705Y006327D01*
X022636Y006331D01*
X022567Y006332D01*
X022498Y006328D01*
X022430Y006320D01*
X022362Y006309D01*
X022294Y006293D01*
X022228Y006274D01*
X022163Y006252D01*
X022099Y006226D01*
X022037Y006196D01*
X021976Y006162D01*
X021918Y006126D01*
X021861Y006086D01*
X021807Y006043D01*
X021756Y005997D01*
X021707Y005948D01*
X021661Y005897D01*
X021617Y005843D01*
X021625Y005838D01*
X021668Y005892D01*
X021714Y005943D01*
X021764Y005992D01*
X021815Y006038D01*
X021870Y006081D01*
X021927Y006121D01*
X021985Y006157D01*
X022046Y006191D01*
X022109Y006220D01*
X022173Y006246D01*
X022239Y006268D01*
X022306Y006287D01*
X022373Y006302D01*
X022442Y006313D01*
X022511Y006320D01*
X022580Y006323D01*
X022649Y006322D01*
X022719Y006317D01*
X022787Y006309D01*
X022855Y006296D01*
X022923Y006280D01*
X022989Y006259D01*
X023054Y006236D01*
X023118Y006208D01*
X023180Y006177D01*
X023240Y006142D01*
X023298Y006104D01*
X023354Y006063D01*
X023407Y006019D01*
X023458Y005972D01*
X023506Y005922D01*
X023551Y005869D01*
X023593Y005814D01*
X023632Y005757D01*
X023667Y005697D01*
X023699Y005636D01*
X023728Y005573D01*
X023753Y005508D01*
X023774Y005442D01*
X023792Y005375D01*
X023805Y005307D01*
X023815Y005238D01*
X023821Y005169D01*
X023823Y005100D01*
X023821Y005031D01*
X023815Y004962D01*
X023805Y004893D01*
X023792Y004825D01*
X023774Y004758D01*
X023753Y004692D01*
X023728Y004627D01*
X023699Y004564D01*
X023667Y004503D01*
X023632Y004443D01*
X023593Y004386D01*
X023551Y004331D01*
X023506Y004278D01*
X023458Y004228D01*
X023407Y004181D01*
X023354Y004137D01*
X023298Y004096D01*
X023240Y004058D01*
X023180Y004023D01*
X023118Y003992D01*
X023054Y003964D01*
X022989Y003941D01*
X022923Y003920D01*
X022855Y003904D01*
X022787Y003891D01*
X022719Y003883D01*
X022649Y003878D01*
X022580Y003877D01*
X022511Y003880D01*
X022442Y003887D01*
X022373Y003898D01*
X022306Y003913D01*
X022239Y003932D01*
X022173Y003954D01*
X022109Y003980D01*
X022046Y004009D01*
X021985Y004043D01*
X021927Y004079D01*
X021870Y004119D01*
X021815Y004162D01*
X021764Y004208D01*
X021714Y004257D01*
X021668Y004308D01*
X021625Y004362D01*
X021632Y004368D01*
X021675Y004314D01*
X021721Y004263D01*
X021770Y004214D01*
X021821Y004169D01*
X021875Y004126D01*
X021932Y004087D01*
X021990Y004050D01*
X022050Y004017D01*
X022113Y003988D01*
X022176Y003962D01*
X022242Y003940D01*
X022308Y003922D01*
X022375Y003907D01*
X022443Y003896D01*
X022512Y003889D01*
X022580Y003886D01*
X022649Y003887D01*
X022718Y003892D01*
X022786Y003900D01*
X022854Y003913D01*
X022920Y003929D01*
X022986Y003949D01*
X023051Y003973D01*
X023114Y004000D01*
X023175Y004031D01*
X023235Y004065D01*
X023293Y004103D01*
X023348Y004144D01*
X023401Y004188D01*
X023451Y004235D01*
X023499Y004284D01*
X023544Y004336D01*
X023586Y004391D01*
X023624Y004448D01*
X023659Y004507D01*
X023691Y004568D01*
X023720Y004631D01*
X023744Y004695D01*
X023766Y004761D01*
X023783Y004827D01*
X023796Y004895D01*
X023806Y004963D01*
X023812Y005031D01*
X023814Y005100D01*
X023812Y005169D01*
X023806Y005237D01*
X023796Y005305D01*
X023783Y005373D01*
X023766Y005439D01*
X023744Y005505D01*
X023720Y005569D01*
X023691Y005632D01*
X023659Y005693D01*
X023624Y005752D01*
X023586Y005809D01*
X023544Y005864D01*
X023499Y005916D01*
X023451Y005965D01*
X023401Y006012D01*
X023348Y006056D01*
X023293Y006097D01*
X023235Y006135D01*
X023175Y006169D01*
X023114Y006200D01*
X023051Y006227D01*
X022986Y006251D01*
X022920Y006271D01*
X022854Y006287D01*
X022786Y006300D01*
X022718Y006308D01*
X022649Y006313D01*
X022580Y006314D01*
X022512Y006311D01*
X022443Y006304D01*
X022375Y006293D01*
X022308Y006278D01*
X022242Y006260D01*
X022176Y006238D01*
X022113Y006212D01*
X022050Y006183D01*
X021990Y006150D01*
X021932Y006113D01*
X021875Y006074D01*
X021821Y006031D01*
X021770Y005986D01*
X021721Y005937D01*
X021675Y005886D01*
X021632Y005832D01*
D15*
X019475Y006425D02*
X019175Y006425D01*
X019475Y006725D01*
X019475Y006800D01*
X019400Y006875D01*
X019250Y006875D01*
X019175Y006800D01*
X017789Y008975D02*
X017744Y008975D01*
X017744Y009065D01*
X017789Y009110D01*
X017789Y009200D01*
X017744Y009245D01*
X017654Y009245D01*
X017609Y009200D01*
X017609Y009110D01*
X017654Y009065D01*
X017654Y008975D01*
X017609Y008975D01*
X017494Y009020D02*
X017494Y009200D01*
X017314Y009020D01*
X017359Y008975D01*
X017449Y008975D01*
X017494Y009020D01*
X017314Y009020D02*
X017314Y009200D01*
X017359Y009245D01*
X017449Y009245D01*
X017494Y009200D01*
X017200Y009200D02*
X017200Y009155D01*
X017155Y009110D01*
X017200Y009065D01*
X017200Y009020D01*
X017155Y008975D01*
X017065Y008975D01*
X017020Y009020D01*
X016905Y009020D02*
X016860Y008975D01*
X016770Y008975D01*
X016725Y009020D01*
X016815Y009110D02*
X016860Y009110D01*
X016905Y009065D01*
X016905Y009020D01*
X016860Y009110D02*
X016905Y009155D01*
X016905Y009200D01*
X016860Y009245D01*
X016770Y009245D01*
X016725Y009200D01*
X017020Y009200D02*
X017065Y009245D01*
X017155Y009245D01*
X017200Y009200D01*
X017155Y009110D02*
X017110Y009110D01*
X015725Y006875D02*
X015725Y006425D01*
X015575Y006425D02*
X015875Y006425D01*
X015575Y006725D02*
X015725Y006875D01*
X015650Y003725D02*
X015800Y003725D01*
X015875Y003650D01*
X015875Y003575D01*
X015800Y003500D01*
X015875Y003425D01*
X015875Y003350D01*
X015800Y003275D01*
X015650Y003275D01*
X015575Y003350D01*
X015725Y003500D02*
X015800Y003500D01*
X015575Y003650D02*
X015650Y003725D01*
X016770Y001745D02*
X016860Y001745D01*
X016905Y001700D01*
X016905Y001655D01*
X016860Y001610D01*
X016905Y001565D01*
X016905Y001520D01*
X016860Y001475D01*
X016770Y001475D01*
X016725Y001520D01*
X016815Y001610D02*
X016860Y001610D01*
X016725Y001700D02*
X016770Y001745D01*
X017020Y001700D02*
X017065Y001745D01*
X017155Y001745D01*
X017200Y001700D01*
X017200Y001655D01*
X017155Y001610D01*
X017200Y001565D01*
X017200Y001520D01*
X017155Y001475D01*
X017065Y001475D01*
X017020Y001520D01*
X017110Y001610D02*
X017155Y001610D01*
X017314Y001520D02*
X017359Y001475D01*
X017449Y001475D01*
X017494Y001520D01*
X017494Y001700D01*
X017314Y001520D01*
X017314Y001700D01*
X017359Y001745D01*
X017449Y001745D01*
X017494Y001700D01*
X017609Y001700D02*
X017609Y001610D01*
X017654Y001565D01*
X017654Y001475D01*
X017609Y001475D01*
X017744Y001475D02*
X017789Y001475D01*
X017744Y001475D02*
X017744Y001565D01*
X017789Y001610D01*
X017789Y001700D01*
X017744Y001745D01*
X017654Y001745D01*
X017609Y001700D01*
X019450Y003275D02*
X019450Y003725D01*
X019225Y003500D01*
X019525Y003500D01*
X021677Y003635D02*
X021902Y003635D01*
X021977Y003560D01*
X021977Y003410D01*
X021902Y003335D01*
X021677Y003335D01*
X021677Y003785D01*
X022137Y003785D02*
X022212Y003785D01*
X022212Y003335D01*
X022137Y003335D02*
X022287Y003335D01*
X022444Y003410D02*
X022519Y003335D01*
X022744Y003335D01*
X022744Y003635D01*
X022905Y003560D02*
X022980Y003635D01*
X023130Y003635D01*
X023205Y003560D01*
X023205Y003485D01*
X022905Y003485D01*
X022905Y003410D02*
X022905Y003560D01*
X022905Y003410D02*
X022980Y003335D01*
X023130Y003335D01*
X022444Y003410D02*
X022444Y003635D01*
X022519Y011335D02*
X022444Y011410D01*
X022444Y011560D01*
X022519Y011635D01*
X022669Y011635D01*
X022744Y011560D01*
X022744Y011485D01*
X022444Y011485D01*
X022519Y011335D02*
X022669Y011335D01*
X022905Y011410D02*
X022905Y011560D01*
X022980Y011635D01*
X023205Y011635D01*
X023205Y011785D02*
X023205Y011335D01*
X022980Y011335D01*
X022905Y011410D01*
X022286Y011635D02*
X022211Y011635D01*
X022061Y011485D01*
X022061Y011335D02*
X022061Y011635D01*
X019525Y011500D02*
X019225Y011500D01*
X019450Y011725D01*
X019450Y011275D01*
X015875Y011350D02*
X015800Y011275D01*
X015650Y011275D01*
X015575Y011350D01*
X015725Y011500D02*
X015800Y011500D01*
X015875Y011425D01*
X015875Y011350D01*
X015800Y011500D02*
X015875Y011575D01*
X015875Y011650D01*
X015800Y011725D01*
X015650Y011725D01*
X015575Y011650D01*
X015575Y014425D02*
X015875Y014425D01*
X015725Y014425D02*
X015725Y014875D01*
X015575Y014725D01*
X019175Y014800D02*
X019250Y014875D01*
X019400Y014875D01*
X019475Y014800D01*
X019475Y014725D01*
X019175Y014425D01*
X019475Y014425D01*
X010705Y011560D02*
X010705Y011335D01*
X010705Y011560D02*
X010630Y011635D01*
X010405Y011635D01*
X010405Y011335D01*
X010244Y011485D02*
X009944Y011485D01*
X009944Y011410D02*
X009944Y011560D01*
X010019Y011635D01*
X010169Y011635D01*
X010244Y011560D01*
X010244Y011485D01*
X010169Y011335D02*
X010019Y011335D01*
X009944Y011410D01*
X009784Y011485D02*
X009484Y011485D01*
X009484Y011410D02*
X009484Y011560D01*
X009559Y011635D01*
X009709Y011635D01*
X009784Y011560D01*
X009784Y011485D01*
X009709Y011335D02*
X009559Y011335D01*
X009484Y011410D01*
X009325Y011635D02*
X009250Y011635D01*
X009100Y011485D01*
X009100Y011335D02*
X009100Y011635D01*
X008940Y011635D02*
X008715Y011635D01*
X008640Y011560D01*
X008640Y011410D01*
X008715Y011335D01*
X008940Y011335D01*
X008940Y011260D02*
X008940Y011635D01*
X008940Y011260D02*
X008865Y011185D01*
X008790Y011185D01*
X007025Y011500D02*
X006725Y011500D01*
X006950Y011725D01*
X006950Y011275D01*
X005244Y009245D02*
X005154Y009245D01*
X005109Y009200D01*
X005109Y009110D01*
X005154Y009065D01*
X005154Y008975D01*
X005109Y008975D01*
X004994Y009020D02*
X004949Y008975D01*
X004859Y008975D01*
X004814Y009020D01*
X004994Y009200D01*
X004994Y009020D01*
X004814Y009020D02*
X004814Y009200D01*
X004859Y009245D01*
X004949Y009245D01*
X004994Y009200D01*
X005244Y009245D02*
X005289Y009200D01*
X005289Y009110D01*
X005244Y009065D01*
X005244Y008975D01*
X005289Y008975D01*
X004700Y009020D02*
X004655Y008975D01*
X004565Y008975D01*
X004520Y009020D01*
X004405Y009020D02*
X004360Y008975D01*
X004270Y008975D01*
X004225Y009020D01*
X004315Y009110D02*
X004360Y009110D01*
X004405Y009065D01*
X004405Y009020D01*
X004360Y009110D02*
X004405Y009155D01*
X004405Y009200D01*
X004360Y009245D01*
X004270Y009245D01*
X004225Y009200D01*
X004520Y009200D02*
X004565Y009245D01*
X004655Y009245D01*
X004700Y009200D01*
X004700Y009155D01*
X004655Y009110D01*
X004700Y009065D01*
X004700Y009020D01*
X004655Y009110D02*
X004610Y009110D01*
X003225Y006875D02*
X003225Y006425D01*
X003075Y006425D02*
X003375Y006425D01*
X003075Y006725D02*
X003225Y006875D01*
X006675Y006800D02*
X006750Y006875D01*
X006900Y006875D01*
X006975Y006800D01*
X006975Y006725D01*
X006675Y006425D01*
X006975Y006425D01*
X006950Y003725D02*
X006725Y003500D01*
X007025Y003500D01*
X006950Y003275D02*
X006950Y003725D01*
X008410Y003635D02*
X008410Y003410D01*
X008485Y003335D01*
X008710Y003335D01*
X008710Y003260D02*
X008635Y003185D01*
X008560Y003185D01*
X008710Y003260D02*
X008710Y003635D01*
X008870Y003560D02*
X008945Y003635D01*
X009095Y003635D01*
X009170Y003560D01*
X009170Y003485D01*
X008870Y003485D01*
X008870Y003410D02*
X008870Y003560D01*
X008870Y003410D02*
X008945Y003335D01*
X009095Y003335D01*
X009330Y003335D02*
X009480Y003335D01*
X009405Y003335D02*
X009405Y003785D01*
X009330Y003785D01*
X009637Y003785D02*
X009712Y003785D01*
X009712Y003335D01*
X009637Y003335D02*
X009787Y003335D01*
X009944Y003410D02*
X010019Y003335D01*
X010169Y003335D01*
X010244Y003410D01*
X010244Y003560D01*
X010169Y003635D01*
X010019Y003635D01*
X009944Y003560D01*
X009944Y003410D01*
X010405Y003410D02*
X010480Y003335D01*
X010555Y003410D01*
X010630Y003335D01*
X010705Y003410D01*
X010705Y003635D01*
X010405Y003635D02*
X010405Y003410D01*
X005289Y001700D02*
X005289Y001610D01*
X005244Y001565D01*
X005244Y001475D01*
X005289Y001475D01*
X005154Y001475D02*
X005154Y001565D01*
X005109Y001610D01*
X005109Y001700D01*
X005154Y001745D01*
X005244Y001745D01*
X005289Y001700D01*
X004994Y001700D02*
X004994Y001520D01*
X004949Y001475D01*
X004859Y001475D01*
X004814Y001520D01*
X004994Y001700D01*
X004949Y001745D01*
X004859Y001745D01*
X004814Y001700D01*
X004814Y001520D01*
X004700Y001520D02*
X004655Y001475D01*
X004565Y001475D01*
X004520Y001520D01*
X004405Y001520D02*
X004360Y001475D01*
X004270Y001475D01*
X004225Y001520D01*
X004315Y001610D02*
X004360Y001610D01*
X004405Y001565D01*
X004405Y001520D01*
X004360Y001610D02*
X004405Y001655D01*
X004405Y001700D01*
X004360Y001745D01*
X004270Y001745D01*
X004225Y001700D01*
X004520Y001700D02*
X004565Y001745D01*
X004655Y001745D01*
X004700Y001700D01*
X004700Y001655D01*
X004655Y001610D01*
X004700Y001565D01*
X004700Y001520D01*
X004655Y001610D02*
X004610Y001610D01*
X005109Y001475D02*
X005154Y001475D01*
X003300Y003275D02*
X003150Y003275D01*
X003075Y003350D01*
X003225Y003500D02*
X003300Y003500D01*
X003375Y003425D01*
X003375Y003350D01*
X003300Y003275D01*
X003300Y003500D02*
X003375Y003575D01*
X003375Y003650D01*
X003300Y003725D01*
X003150Y003725D01*
X003075Y003650D01*
X003150Y011275D02*
X003075Y011350D01*
X003150Y011275D02*
X003300Y011275D01*
X003375Y011350D01*
X003375Y011425D01*
X003300Y011500D01*
X003225Y011500D01*
X003300Y011500D02*
X003375Y011575D01*
X003375Y011650D01*
X003300Y011725D01*
X003150Y011725D01*
X003075Y011650D01*
X003075Y014425D02*
X003375Y014425D01*
X003225Y014425D02*
X003225Y014875D01*
X003075Y014725D01*
X006675Y014800D02*
X006750Y014875D01*
X006900Y014875D01*
X006975Y014800D01*
X006975Y014725D01*
X006675Y014425D01*
X006975Y014425D01*
D16*
X005750Y013750D02*
X005750Y012450D01*
X004450Y012450D01*
X004450Y013750D01*
X005750Y013750D01*
X004800Y013100D02*
X004802Y013134D01*
X004808Y013168D01*
X004817Y013201D01*
X004831Y013232D01*
X004848Y013262D01*
X004868Y013290D01*
X004891Y013315D01*
X004917Y013338D01*
X004945Y013357D01*
X004975Y013373D01*
X005007Y013385D01*
X005040Y013394D01*
X005074Y013399D01*
X005109Y013400D01*
X005143Y013397D01*
X005176Y013390D01*
X005209Y013380D01*
X005240Y013365D01*
X005269Y013348D01*
X005296Y013327D01*
X005321Y013303D01*
X005343Y013276D01*
X005361Y013248D01*
X005376Y013217D01*
X005388Y013185D01*
X005396Y013151D01*
X005400Y013117D01*
X005400Y013083D01*
X005396Y013049D01*
X005388Y013015D01*
X005376Y012983D01*
X005361Y012952D01*
X005343Y012924D01*
X005321Y012897D01*
X005296Y012873D01*
X005269Y012852D01*
X005240Y012835D01*
X005209Y012820D01*
X005176Y012810D01*
X005143Y012803D01*
X005109Y012800D01*
X005074Y012801D01*
X005040Y012806D01*
X005007Y012815D01*
X004975Y012827D01*
X004945Y012843D01*
X004917Y012862D01*
X004891Y012885D01*
X004868Y012910D01*
X004848Y012938D01*
X004831Y012968D01*
X004817Y012999D01*
X004808Y013032D01*
X004802Y013066D01*
X004800Y013100D01*
X004700Y013100D02*
X004702Y013140D01*
X004708Y013179D01*
X004718Y013218D01*
X004731Y013255D01*
X004749Y013291D01*
X004770Y013325D01*
X004794Y013357D01*
X004821Y013386D01*
X004851Y013413D01*
X004883Y013436D01*
X004918Y013456D01*
X004954Y013472D01*
X004992Y013485D01*
X005031Y013494D01*
X005070Y013499D01*
X005110Y013500D01*
X005150Y013497D01*
X005189Y013490D01*
X005227Y013479D01*
X005265Y013465D01*
X005300Y013446D01*
X005333Y013425D01*
X005365Y013400D01*
X005393Y013372D01*
X005419Y013342D01*
X005441Y013309D01*
X005460Y013274D01*
X005476Y013237D01*
X005488Y013199D01*
X005496Y013160D01*
X005500Y013120D01*
X005500Y013080D01*
X005496Y013040D01*
X005488Y013001D01*
X005476Y012963D01*
X005460Y012926D01*
X005441Y012891D01*
X005419Y012858D01*
X005393Y012828D01*
X005365Y012800D01*
X005333Y012775D01*
X005300Y012754D01*
X005265Y012735D01*
X005227Y012721D01*
X005189Y012710D01*
X005150Y012703D01*
X005110Y012700D01*
X005070Y012701D01*
X005031Y012706D01*
X004992Y012715D01*
X004954Y012728D01*
X004918Y012744D01*
X004883Y012764D01*
X004851Y012787D01*
X004821Y012814D01*
X004794Y012843D01*
X004770Y012875D01*
X004749Y012909D01*
X004731Y012945D01*
X004718Y012982D01*
X004708Y013021D01*
X004702Y013060D01*
X004700Y013100D01*
X004450Y005750D02*
X004450Y004450D01*
X005750Y004450D01*
X005750Y005750D01*
X004450Y005750D01*
X004800Y005100D02*
X004802Y005134D01*
X004808Y005168D01*
X004817Y005201D01*
X004831Y005232D01*
X004848Y005262D01*
X004868Y005290D01*
X004891Y005315D01*
X004917Y005338D01*
X004945Y005357D01*
X004975Y005373D01*
X005007Y005385D01*
X005040Y005394D01*
X005074Y005399D01*
X005109Y005400D01*
X005143Y005397D01*
X005176Y005390D01*
X005209Y005380D01*
X005240Y005365D01*
X005269Y005348D01*
X005296Y005327D01*
X005321Y005303D01*
X005343Y005276D01*
X005361Y005248D01*
X005376Y005217D01*
X005388Y005185D01*
X005396Y005151D01*
X005400Y005117D01*
X005400Y005083D01*
X005396Y005049D01*
X005388Y005015D01*
X005376Y004983D01*
X005361Y004952D01*
X005343Y004924D01*
X005321Y004897D01*
X005296Y004873D01*
X005269Y004852D01*
X005240Y004835D01*
X005209Y004820D01*
X005176Y004810D01*
X005143Y004803D01*
X005109Y004800D01*
X005074Y004801D01*
X005040Y004806D01*
X005007Y004815D01*
X004975Y004827D01*
X004945Y004843D01*
X004917Y004862D01*
X004891Y004885D01*
X004868Y004910D01*
X004848Y004938D01*
X004831Y004968D01*
X004817Y004999D01*
X004808Y005032D01*
X004802Y005066D01*
X004800Y005100D01*
X004700Y005100D02*
X004702Y005140D01*
X004708Y005179D01*
X004718Y005218D01*
X004731Y005255D01*
X004749Y005291D01*
X004770Y005325D01*
X004794Y005357D01*
X004821Y005386D01*
X004851Y005413D01*
X004883Y005436D01*
X004918Y005456D01*
X004954Y005472D01*
X004992Y005485D01*
X005031Y005494D01*
X005070Y005499D01*
X005110Y005500D01*
X005150Y005497D01*
X005189Y005490D01*
X005227Y005479D01*
X005265Y005465D01*
X005300Y005446D01*
X005333Y005425D01*
X005365Y005400D01*
X005393Y005372D01*
X005419Y005342D01*
X005441Y005309D01*
X005460Y005274D01*
X005476Y005237D01*
X005488Y005199D01*
X005496Y005160D01*
X005500Y005120D01*
X005500Y005080D01*
X005496Y005040D01*
X005488Y005001D01*
X005476Y004963D01*
X005460Y004926D01*
X005441Y004891D01*
X005419Y004858D01*
X005393Y004828D01*
X005365Y004800D01*
X005333Y004775D01*
X005300Y004754D01*
X005265Y004735D01*
X005227Y004721D01*
X005189Y004710D01*
X005150Y004703D01*
X005110Y004700D01*
X005070Y004701D01*
X005031Y004706D01*
X004992Y004715D01*
X004954Y004728D01*
X004918Y004744D01*
X004883Y004764D01*
X004851Y004787D01*
X004821Y004814D01*
X004794Y004843D01*
X004770Y004875D01*
X004749Y004909D01*
X004731Y004945D01*
X004718Y004982D01*
X004708Y005021D01*
X004702Y005060D01*
X004700Y005100D01*
X016950Y005750D02*
X016950Y004450D01*
X018250Y004450D01*
X018250Y005750D01*
X016950Y005750D01*
X017300Y005100D02*
X017302Y005134D01*
X017308Y005168D01*
X017317Y005201D01*
X017331Y005232D01*
X017348Y005262D01*
X017368Y005290D01*
X017391Y005315D01*
X017417Y005338D01*
X017445Y005357D01*
X017475Y005373D01*
X017507Y005385D01*
X017540Y005394D01*
X017574Y005399D01*
X017609Y005400D01*
X017643Y005397D01*
X017676Y005390D01*
X017709Y005380D01*
X017740Y005365D01*
X017769Y005348D01*
X017796Y005327D01*
X017821Y005303D01*
X017843Y005276D01*
X017861Y005248D01*
X017876Y005217D01*
X017888Y005185D01*
X017896Y005151D01*
X017900Y005117D01*
X017900Y005083D01*
X017896Y005049D01*
X017888Y005015D01*
X017876Y004983D01*
X017861Y004952D01*
X017843Y004924D01*
X017821Y004897D01*
X017796Y004873D01*
X017769Y004852D01*
X017740Y004835D01*
X017709Y004820D01*
X017676Y004810D01*
X017643Y004803D01*
X017609Y004800D01*
X017574Y004801D01*
X017540Y004806D01*
X017507Y004815D01*
X017475Y004827D01*
X017445Y004843D01*
X017417Y004862D01*
X017391Y004885D01*
X017368Y004910D01*
X017348Y004938D01*
X017331Y004968D01*
X017317Y004999D01*
X017308Y005032D01*
X017302Y005066D01*
X017300Y005100D01*
X017200Y005100D02*
X017202Y005140D01*
X017208Y005179D01*
X017218Y005218D01*
X017231Y005255D01*
X017249Y005291D01*
X017270Y005325D01*
X017294Y005357D01*
X017321Y005386D01*
X017351Y005413D01*
X017383Y005436D01*
X017418Y005456D01*
X017454Y005472D01*
X017492Y005485D01*
X017531Y005494D01*
X017570Y005499D01*
X017610Y005500D01*
X017650Y005497D01*
X017689Y005490D01*
X017727Y005479D01*
X017765Y005465D01*
X017800Y005446D01*
X017833Y005425D01*
X017865Y005400D01*
X017893Y005372D01*
X017919Y005342D01*
X017941Y005309D01*
X017960Y005274D01*
X017976Y005237D01*
X017988Y005199D01*
X017996Y005160D01*
X018000Y005120D01*
X018000Y005080D01*
X017996Y005040D01*
X017988Y005001D01*
X017976Y004963D01*
X017960Y004926D01*
X017941Y004891D01*
X017919Y004858D01*
X017893Y004828D01*
X017865Y004800D01*
X017833Y004775D01*
X017800Y004754D01*
X017765Y004735D01*
X017727Y004721D01*
X017689Y004710D01*
X017650Y004703D01*
X017610Y004700D01*
X017570Y004701D01*
X017531Y004706D01*
X017492Y004715D01*
X017454Y004728D01*
X017418Y004744D01*
X017383Y004764D01*
X017351Y004787D01*
X017321Y004814D01*
X017294Y004843D01*
X017270Y004875D01*
X017249Y004909D01*
X017231Y004945D01*
X017218Y004982D01*
X017208Y005021D01*
X017202Y005060D01*
X017200Y005100D01*
X016950Y012450D02*
X016950Y013750D01*
X018250Y013750D01*
X018250Y012450D01*
X016950Y012450D01*
X017300Y013100D02*
X017302Y013134D01*
X017308Y013168D01*
X017317Y013201D01*
X017331Y013232D01*
X017348Y013262D01*
X017368Y013290D01*
X017391Y013315D01*
X017417Y013338D01*
X017445Y013357D01*
X017475Y013373D01*
X017507Y013385D01*
X017540Y013394D01*
X017574Y013399D01*
X017609Y013400D01*
X017643Y013397D01*
X017676Y013390D01*
X017709Y013380D01*
X017740Y013365D01*
X017769Y013348D01*
X017796Y013327D01*
X017821Y013303D01*
X017843Y013276D01*
X017861Y013248D01*
X017876Y013217D01*
X017888Y013185D01*
X017896Y013151D01*
X017900Y013117D01*
X017900Y013083D01*
X017896Y013049D01*
X017888Y013015D01*
X017876Y012983D01*
X017861Y012952D01*
X017843Y012924D01*
X017821Y012897D01*
X017796Y012873D01*
X017769Y012852D01*
X017740Y012835D01*
X017709Y012820D01*
X017676Y012810D01*
X017643Y012803D01*
X017609Y012800D01*
X017574Y012801D01*
X017540Y012806D01*
X017507Y012815D01*
X017475Y012827D01*
X017445Y012843D01*
X017417Y012862D01*
X017391Y012885D01*
X017368Y012910D01*
X017348Y012938D01*
X017331Y012968D01*
X017317Y012999D01*
X017308Y013032D01*
X017302Y013066D01*
X017300Y013100D01*
X017200Y013100D02*
X017202Y013140D01*
X017208Y013179D01*
X017218Y013218D01*
X017231Y013255D01*
X017249Y013291D01*
X017270Y013325D01*
X017294Y013357D01*
X017321Y013386D01*
X017351Y013413D01*
X017383Y013436D01*
X017418Y013456D01*
X017454Y013472D01*
X017492Y013485D01*
X017531Y013494D01*
X017570Y013499D01*
X017610Y013500D01*
X017650Y013497D01*
X017689Y013490D01*
X017727Y013479D01*
X017765Y013465D01*
X017800Y013446D01*
X017833Y013425D01*
X017865Y013400D01*
X017893Y013372D01*
X017919Y013342D01*
X017941Y013309D01*
X017960Y013274D01*
X017976Y013237D01*
X017988Y013199D01*
X017996Y013160D01*
X018000Y013120D01*
X018000Y013080D01*
X017996Y013040D01*
X017988Y013001D01*
X017976Y012963D01*
X017960Y012926D01*
X017941Y012891D01*
X017919Y012858D01*
X017893Y012828D01*
X017865Y012800D01*
X017833Y012775D01*
X017800Y012754D01*
X017765Y012735D01*
X017727Y012721D01*
X017689Y012710D01*
X017650Y012703D01*
X017610Y012700D01*
X017570Y012701D01*
X017531Y012706D01*
X017492Y012715D01*
X017454Y012728D01*
X017418Y012744D01*
X017383Y012764D01*
X017351Y012787D01*
X017321Y012814D01*
X017294Y012843D01*
X017270Y012875D01*
X017249Y012909D01*
X017231Y012945D01*
X017218Y012982D01*
X017208Y013021D01*
X017202Y013060D01*
X017200Y013100D01*
D17*
X016275Y010700D03*
X018925Y010700D03*
X018925Y007500D03*
X016275Y007500D03*
X016275Y002700D03*
X018925Y002700D03*
X006425Y002700D03*
X003775Y002700D03*
X003775Y007500D03*
X006425Y007500D03*
X006425Y010700D03*
X003775Y010700D03*
X003775Y015500D03*
X006425Y015500D03*
X016275Y015500D03*
X018925Y015500D03*
D18*
X020252Y017014D02*
X020598Y017297D01*
X020666Y017258D01*
X020737Y017225D01*
X020935Y017702D01*
X020871Y017735D01*
X020813Y017779D01*
X020763Y017832D01*
X020723Y017892D01*
X020694Y017958D01*
X020675Y018028D01*
X020669Y018100D01*
X020677Y018180D01*
X020699Y018258D01*
X020736Y018330D01*
X020785Y018394D01*
X020846Y018448D01*
X020915Y018489D01*
X020991Y018517D01*
X021071Y018530D01*
X021151Y018528D01*
X021230Y018510D01*
X021305Y018479D01*
X021372Y018434D01*
X021429Y018377D01*
X021475Y018311D01*
X021508Y018237D01*
X021527Y018159D01*
X021530Y018078D01*
X021518Y017998D01*
X021492Y017922D01*
X021452Y017852D01*
X021399Y017790D01*
X021336Y017740D01*
X021265Y017702D01*
X021463Y017225D01*
X021534Y017258D01*
X021602Y017297D01*
X021948Y017014D01*
X022186Y017252D01*
X021903Y017598D01*
X021954Y017690D01*
X021994Y017786D01*
X022023Y017887D01*
X022468Y017932D01*
X022468Y018268D01*
X022023Y018313D01*
X021994Y018414D01*
X021954Y018510D01*
X021903Y018602D01*
X022186Y018948D01*
X021948Y019186D01*
X021602Y018903D01*
X021510Y018954D01*
X021414Y018994D01*
X021313Y019023D01*
X021268Y019468D01*
X020932Y019468D01*
X020887Y019023D01*
X020786Y018994D01*
X020690Y018954D01*
X020598Y018903D01*
X020252Y019186D01*
X020014Y018948D01*
X020297Y018602D01*
X020246Y018510D01*
X020206Y018414D01*
X020177Y018313D01*
X019732Y018268D01*
X019732Y017932D01*
X020177Y017887D01*
X020206Y017786D01*
X020246Y017690D01*
X020297Y017598D01*
X020014Y017252D01*
X020252Y017014D01*
X020245Y017021D02*
X020260Y017021D01*
X020331Y017079D02*
X020187Y017079D01*
X020129Y017136D02*
X020402Y017136D01*
X020472Y017194D02*
X020072Y017194D01*
X020014Y017251D02*
X020543Y017251D01*
X020680Y017251D02*
X020749Y017251D01*
X020772Y017309D02*
X020061Y017309D01*
X020108Y017367D02*
X020796Y017367D01*
X020820Y017424D02*
X020155Y017424D01*
X020202Y017482D02*
X020844Y017482D01*
X020868Y017539D02*
X020249Y017539D01*
X020296Y017597D02*
X020892Y017597D01*
X020915Y017654D02*
X020266Y017654D01*
X020237Y017712D02*
X020916Y017712D01*
X020826Y017769D02*
X020213Y017769D01*
X020194Y017827D02*
X020768Y017827D01*
X020728Y017885D02*
X020178Y017885D01*
X019732Y017942D02*
X020701Y017942D01*
X020683Y018000D02*
X019732Y018000D01*
X019732Y018057D02*
X020673Y018057D01*
X020671Y018115D02*
X019732Y018115D01*
X019732Y018172D02*
X020676Y018172D01*
X020691Y018230D02*
X019732Y018230D01*
X019925Y018287D02*
X020714Y018287D01*
X020748Y018345D02*
X020186Y018345D01*
X020203Y018403D02*
X020795Y018403D01*
X020867Y018460D02*
X020225Y018460D01*
X020250Y018518D02*
X020998Y018518D01*
X021197Y018518D02*
X021950Y018518D01*
X021975Y018460D02*
X021333Y018460D01*
X021404Y018403D02*
X021997Y018403D01*
X022014Y018345D02*
X021452Y018345D01*
X021486Y018287D02*
X022275Y018287D01*
X022468Y018230D02*
X021510Y018230D01*
X021523Y018172D02*
X022468Y018172D01*
X022468Y018115D02*
X021528Y018115D01*
X021527Y018057D02*
X022468Y018057D01*
X022468Y018000D02*
X021519Y018000D01*
X021499Y017942D02*
X022468Y017942D01*
X022022Y017885D02*
X021471Y017885D01*
X021431Y017827D02*
X022006Y017827D01*
X021987Y017769D02*
X021373Y017769D01*
X021283Y017712D02*
X021963Y017712D01*
X021934Y017654D02*
X021285Y017654D01*
X021308Y017597D02*
X021904Y017597D01*
X021951Y017539D02*
X021332Y017539D01*
X021356Y017482D02*
X021998Y017482D01*
X022045Y017424D02*
X021380Y017424D01*
X021404Y017367D02*
X022092Y017367D01*
X022139Y017309D02*
X021428Y017309D01*
X021451Y017251D02*
X021520Y017251D01*
X021657Y017251D02*
X022186Y017251D01*
X022128Y017194D02*
X021728Y017194D01*
X021798Y017136D02*
X022071Y017136D01*
X022013Y017079D02*
X021869Y017079D01*
X021940Y017021D02*
X021955Y017021D01*
X021918Y018575D02*
X020282Y018575D01*
X020271Y018633D02*
X021929Y018633D01*
X021975Y018690D02*
X020225Y018690D01*
X020178Y018748D02*
X022022Y018748D01*
X022069Y018805D02*
X020131Y018805D01*
X020084Y018863D02*
X022116Y018863D01*
X022163Y018921D02*
X021623Y018921D01*
X021571Y018921D02*
X020629Y018921D01*
X020577Y018921D02*
X020037Y018921D01*
X020044Y018978D02*
X020506Y018978D01*
X020436Y019036D02*
X020102Y019036D01*
X020159Y019093D02*
X020365Y019093D01*
X020295Y019151D02*
X020217Y019151D01*
X020748Y018978D02*
X021452Y018978D01*
X021312Y019036D02*
X020888Y019036D01*
X020894Y019093D02*
X021306Y019093D01*
X021300Y019151D02*
X020900Y019151D01*
X020906Y019208D02*
X021294Y019208D01*
X021288Y019266D02*
X020912Y019266D01*
X020917Y019323D02*
X021283Y019323D01*
X021277Y019381D02*
X020923Y019381D01*
X020929Y019439D02*
X021271Y019439D01*
X021694Y018978D02*
X022156Y018978D01*
X022098Y019036D02*
X021764Y019036D01*
X021835Y019093D02*
X022041Y019093D01*
X021983Y019151D02*
X021905Y019151D01*
M02*
