G75*
%MOIN*%
%OFA0B0*%
%FSLAX24Y24*%
%IPPOS*%
%LPD*%
%AMOC8*
5,1,8,0,0,1.08239X$1,22.5*
%
%ADD10C,0.0000*%
%ADD11C,0.0650*%
%ADD12OC8,0.0660*%
%ADD13C,0.0705*%
%ADD14C,0.0740*%
%ADD15C,0.0160*%
%ADD16R,0.0396X0.0396*%
%ADD17R,0.0436X0.0436*%
D10*
X000100Y000100D02*
X000100Y021100D01*
X024600Y021100D01*
X024600Y000100D01*
X000100Y000100D01*
X000549Y001100D02*
X000551Y001147D01*
X000557Y001193D01*
X000567Y001239D01*
X000580Y001284D01*
X000598Y001327D01*
X000619Y001369D01*
X000643Y001409D01*
X000671Y001446D01*
X000702Y001481D01*
X000736Y001514D01*
X000772Y001543D01*
X000811Y001569D01*
X000852Y001592D01*
X000895Y001611D01*
X000939Y001627D01*
X000984Y001639D01*
X001030Y001647D01*
X001077Y001651D01*
X001123Y001651D01*
X001170Y001647D01*
X001216Y001639D01*
X001261Y001627D01*
X001305Y001611D01*
X001348Y001592D01*
X001389Y001569D01*
X001428Y001543D01*
X001464Y001514D01*
X001498Y001481D01*
X001529Y001446D01*
X001557Y001409D01*
X001581Y001369D01*
X001602Y001327D01*
X001620Y001284D01*
X001633Y001239D01*
X001643Y001193D01*
X001649Y001147D01*
X001651Y001100D01*
X001649Y001053D01*
X001643Y001007D01*
X001633Y000961D01*
X001620Y000916D01*
X001602Y000873D01*
X001581Y000831D01*
X001557Y000791D01*
X001529Y000754D01*
X001498Y000719D01*
X001464Y000686D01*
X001428Y000657D01*
X001389Y000631D01*
X001348Y000608D01*
X001305Y000589D01*
X001261Y000573D01*
X001216Y000561D01*
X001170Y000553D01*
X001123Y000549D01*
X001077Y000549D01*
X001030Y000553D01*
X000984Y000561D01*
X000939Y000573D01*
X000895Y000589D01*
X000852Y000608D01*
X000811Y000631D01*
X000772Y000657D01*
X000736Y000686D01*
X000702Y000719D01*
X000671Y000754D01*
X000643Y000791D01*
X000619Y000831D01*
X000598Y000873D01*
X000580Y000916D01*
X000567Y000961D01*
X000557Y001007D01*
X000551Y001053D01*
X000549Y001100D01*
X004745Y003330D02*
X004747Y003367D01*
X004753Y003404D01*
X004762Y003440D01*
X004776Y003474D01*
X004793Y003507D01*
X004813Y003539D01*
X004836Y003568D01*
X004862Y003594D01*
X004891Y003617D01*
X004922Y003637D01*
X004956Y003654D01*
X004990Y003668D01*
X005026Y003677D01*
X005063Y003683D01*
X005100Y003685D01*
X005137Y003683D01*
X005174Y003677D01*
X005210Y003668D01*
X005244Y003654D01*
X005277Y003637D01*
X005309Y003617D01*
X005338Y003594D01*
X005364Y003568D01*
X005387Y003539D01*
X005407Y003508D01*
X005424Y003474D01*
X005438Y003440D01*
X005447Y003404D01*
X005453Y003367D01*
X005455Y003330D01*
X005453Y003293D01*
X005447Y003256D01*
X005438Y003220D01*
X005424Y003186D01*
X005407Y003153D01*
X005387Y003121D01*
X005364Y003092D01*
X005338Y003066D01*
X005309Y003043D01*
X005278Y003023D01*
X005244Y003006D01*
X005210Y002992D01*
X005174Y002983D01*
X005137Y002977D01*
X005100Y002975D01*
X005063Y002977D01*
X005026Y002983D01*
X004990Y002992D01*
X004956Y003006D01*
X004923Y003023D01*
X004891Y003043D01*
X004862Y003066D01*
X004836Y003092D01*
X004813Y003121D01*
X004793Y003152D01*
X004776Y003186D01*
X004762Y003220D01*
X004753Y003256D01*
X004747Y003293D01*
X004745Y003330D01*
X004745Y006870D02*
X004747Y006907D01*
X004753Y006944D01*
X004762Y006980D01*
X004776Y007014D01*
X004793Y007047D01*
X004813Y007079D01*
X004836Y007108D01*
X004862Y007134D01*
X004891Y007157D01*
X004922Y007177D01*
X004956Y007194D01*
X004990Y007208D01*
X005026Y007217D01*
X005063Y007223D01*
X005100Y007225D01*
X005137Y007223D01*
X005174Y007217D01*
X005210Y007208D01*
X005244Y007194D01*
X005277Y007177D01*
X005309Y007157D01*
X005338Y007134D01*
X005364Y007108D01*
X005387Y007079D01*
X005407Y007048D01*
X005424Y007014D01*
X005438Y006980D01*
X005447Y006944D01*
X005453Y006907D01*
X005455Y006870D01*
X005453Y006833D01*
X005447Y006796D01*
X005438Y006760D01*
X005424Y006726D01*
X005407Y006693D01*
X005387Y006661D01*
X005364Y006632D01*
X005338Y006606D01*
X005309Y006583D01*
X005278Y006563D01*
X005244Y006546D01*
X005210Y006532D01*
X005174Y006523D01*
X005137Y006517D01*
X005100Y006515D01*
X005063Y006517D01*
X005026Y006523D01*
X004990Y006532D01*
X004956Y006546D01*
X004923Y006563D01*
X004891Y006583D01*
X004862Y006606D01*
X004836Y006632D01*
X004813Y006661D01*
X004793Y006692D01*
X004776Y006726D01*
X004762Y006760D01*
X004753Y006796D01*
X004747Y006833D01*
X004745Y006870D01*
X004745Y011330D02*
X004747Y011367D01*
X004753Y011404D01*
X004762Y011440D01*
X004776Y011474D01*
X004793Y011507D01*
X004813Y011539D01*
X004836Y011568D01*
X004862Y011594D01*
X004891Y011617D01*
X004922Y011637D01*
X004956Y011654D01*
X004990Y011668D01*
X005026Y011677D01*
X005063Y011683D01*
X005100Y011685D01*
X005137Y011683D01*
X005174Y011677D01*
X005210Y011668D01*
X005244Y011654D01*
X005277Y011637D01*
X005309Y011617D01*
X005338Y011594D01*
X005364Y011568D01*
X005387Y011539D01*
X005407Y011508D01*
X005424Y011474D01*
X005438Y011440D01*
X005447Y011404D01*
X005453Y011367D01*
X005455Y011330D01*
X005453Y011293D01*
X005447Y011256D01*
X005438Y011220D01*
X005424Y011186D01*
X005407Y011153D01*
X005387Y011121D01*
X005364Y011092D01*
X005338Y011066D01*
X005309Y011043D01*
X005278Y011023D01*
X005244Y011006D01*
X005210Y010992D01*
X005174Y010983D01*
X005137Y010977D01*
X005100Y010975D01*
X005063Y010977D01*
X005026Y010983D01*
X004990Y010992D01*
X004956Y011006D01*
X004923Y011023D01*
X004891Y011043D01*
X004862Y011066D01*
X004836Y011092D01*
X004813Y011121D01*
X004793Y011152D01*
X004776Y011186D01*
X004762Y011220D01*
X004753Y011256D01*
X004747Y011293D01*
X004745Y011330D01*
X004745Y014870D02*
X004747Y014907D01*
X004753Y014944D01*
X004762Y014980D01*
X004776Y015014D01*
X004793Y015047D01*
X004813Y015079D01*
X004836Y015108D01*
X004862Y015134D01*
X004891Y015157D01*
X004922Y015177D01*
X004956Y015194D01*
X004990Y015208D01*
X005026Y015217D01*
X005063Y015223D01*
X005100Y015225D01*
X005137Y015223D01*
X005174Y015217D01*
X005210Y015208D01*
X005244Y015194D01*
X005277Y015177D01*
X005309Y015157D01*
X005338Y015134D01*
X005364Y015108D01*
X005387Y015079D01*
X005407Y015048D01*
X005424Y015014D01*
X005438Y014980D01*
X005447Y014944D01*
X005453Y014907D01*
X005455Y014870D01*
X005453Y014833D01*
X005447Y014796D01*
X005438Y014760D01*
X005424Y014726D01*
X005407Y014693D01*
X005387Y014661D01*
X005364Y014632D01*
X005338Y014606D01*
X005309Y014583D01*
X005278Y014563D01*
X005244Y014546D01*
X005210Y014532D01*
X005174Y014523D01*
X005137Y014517D01*
X005100Y014515D01*
X005063Y014517D01*
X005026Y014523D01*
X004990Y014532D01*
X004956Y014546D01*
X004923Y014563D01*
X004891Y014583D01*
X004862Y014606D01*
X004836Y014632D01*
X004813Y014661D01*
X004793Y014692D01*
X004776Y014726D01*
X004762Y014760D01*
X004753Y014796D01*
X004747Y014833D01*
X004745Y014870D01*
X000549Y019100D02*
X000551Y019147D01*
X000557Y019193D01*
X000567Y019239D01*
X000580Y019284D01*
X000598Y019327D01*
X000619Y019369D01*
X000643Y019409D01*
X000671Y019446D01*
X000702Y019481D01*
X000736Y019514D01*
X000772Y019543D01*
X000811Y019569D01*
X000852Y019592D01*
X000895Y019611D01*
X000939Y019627D01*
X000984Y019639D01*
X001030Y019647D01*
X001077Y019651D01*
X001123Y019651D01*
X001170Y019647D01*
X001216Y019639D01*
X001261Y019627D01*
X001305Y019611D01*
X001348Y019592D01*
X001389Y019569D01*
X001428Y019543D01*
X001464Y019514D01*
X001498Y019481D01*
X001529Y019446D01*
X001557Y019409D01*
X001581Y019369D01*
X001602Y019327D01*
X001620Y019284D01*
X001633Y019239D01*
X001643Y019193D01*
X001649Y019147D01*
X001651Y019100D01*
X001649Y019053D01*
X001643Y019007D01*
X001633Y018961D01*
X001620Y018916D01*
X001602Y018873D01*
X001581Y018831D01*
X001557Y018791D01*
X001529Y018754D01*
X001498Y018719D01*
X001464Y018686D01*
X001428Y018657D01*
X001389Y018631D01*
X001348Y018608D01*
X001305Y018589D01*
X001261Y018573D01*
X001216Y018561D01*
X001170Y018553D01*
X001123Y018549D01*
X001077Y018549D01*
X001030Y018553D01*
X000984Y018561D01*
X000939Y018573D01*
X000895Y018589D01*
X000852Y018608D01*
X000811Y018631D01*
X000772Y018657D01*
X000736Y018686D01*
X000702Y018719D01*
X000671Y018754D01*
X000643Y018791D01*
X000619Y018831D01*
X000598Y018873D01*
X000580Y018916D01*
X000567Y018961D01*
X000557Y019007D01*
X000551Y019053D01*
X000549Y019100D01*
X017245Y014870D02*
X017247Y014907D01*
X017253Y014944D01*
X017262Y014980D01*
X017276Y015014D01*
X017293Y015047D01*
X017313Y015079D01*
X017336Y015108D01*
X017362Y015134D01*
X017391Y015157D01*
X017422Y015177D01*
X017456Y015194D01*
X017490Y015208D01*
X017526Y015217D01*
X017563Y015223D01*
X017600Y015225D01*
X017637Y015223D01*
X017674Y015217D01*
X017710Y015208D01*
X017744Y015194D01*
X017777Y015177D01*
X017809Y015157D01*
X017838Y015134D01*
X017864Y015108D01*
X017887Y015079D01*
X017907Y015048D01*
X017924Y015014D01*
X017938Y014980D01*
X017947Y014944D01*
X017953Y014907D01*
X017955Y014870D01*
X017953Y014833D01*
X017947Y014796D01*
X017938Y014760D01*
X017924Y014726D01*
X017907Y014693D01*
X017887Y014661D01*
X017864Y014632D01*
X017838Y014606D01*
X017809Y014583D01*
X017778Y014563D01*
X017744Y014546D01*
X017710Y014532D01*
X017674Y014523D01*
X017637Y014517D01*
X017600Y014515D01*
X017563Y014517D01*
X017526Y014523D01*
X017490Y014532D01*
X017456Y014546D01*
X017423Y014563D01*
X017391Y014583D01*
X017362Y014606D01*
X017336Y014632D01*
X017313Y014661D01*
X017293Y014692D01*
X017276Y014726D01*
X017262Y014760D01*
X017253Y014796D01*
X017247Y014833D01*
X017245Y014870D01*
X017245Y011330D02*
X017247Y011367D01*
X017253Y011404D01*
X017262Y011440D01*
X017276Y011474D01*
X017293Y011507D01*
X017313Y011539D01*
X017336Y011568D01*
X017362Y011594D01*
X017391Y011617D01*
X017422Y011637D01*
X017456Y011654D01*
X017490Y011668D01*
X017526Y011677D01*
X017563Y011683D01*
X017600Y011685D01*
X017637Y011683D01*
X017674Y011677D01*
X017710Y011668D01*
X017744Y011654D01*
X017777Y011637D01*
X017809Y011617D01*
X017838Y011594D01*
X017864Y011568D01*
X017887Y011539D01*
X017907Y011508D01*
X017924Y011474D01*
X017938Y011440D01*
X017947Y011404D01*
X017953Y011367D01*
X017955Y011330D01*
X017953Y011293D01*
X017947Y011256D01*
X017938Y011220D01*
X017924Y011186D01*
X017907Y011153D01*
X017887Y011121D01*
X017864Y011092D01*
X017838Y011066D01*
X017809Y011043D01*
X017778Y011023D01*
X017744Y011006D01*
X017710Y010992D01*
X017674Y010983D01*
X017637Y010977D01*
X017600Y010975D01*
X017563Y010977D01*
X017526Y010983D01*
X017490Y010992D01*
X017456Y011006D01*
X017423Y011023D01*
X017391Y011043D01*
X017362Y011066D01*
X017336Y011092D01*
X017313Y011121D01*
X017293Y011152D01*
X017276Y011186D01*
X017262Y011220D01*
X017253Y011256D01*
X017247Y011293D01*
X017245Y011330D01*
X017245Y006870D02*
X017247Y006907D01*
X017253Y006944D01*
X017262Y006980D01*
X017276Y007014D01*
X017293Y007047D01*
X017313Y007079D01*
X017336Y007108D01*
X017362Y007134D01*
X017391Y007157D01*
X017422Y007177D01*
X017456Y007194D01*
X017490Y007208D01*
X017526Y007217D01*
X017563Y007223D01*
X017600Y007225D01*
X017637Y007223D01*
X017674Y007217D01*
X017710Y007208D01*
X017744Y007194D01*
X017777Y007177D01*
X017809Y007157D01*
X017838Y007134D01*
X017864Y007108D01*
X017887Y007079D01*
X017907Y007048D01*
X017924Y007014D01*
X017938Y006980D01*
X017947Y006944D01*
X017953Y006907D01*
X017955Y006870D01*
X017953Y006833D01*
X017947Y006796D01*
X017938Y006760D01*
X017924Y006726D01*
X017907Y006693D01*
X017887Y006661D01*
X017864Y006632D01*
X017838Y006606D01*
X017809Y006583D01*
X017778Y006563D01*
X017744Y006546D01*
X017710Y006532D01*
X017674Y006523D01*
X017637Y006517D01*
X017600Y006515D01*
X017563Y006517D01*
X017526Y006523D01*
X017490Y006532D01*
X017456Y006546D01*
X017423Y006563D01*
X017391Y006583D01*
X017362Y006606D01*
X017336Y006632D01*
X017313Y006661D01*
X017293Y006692D01*
X017276Y006726D01*
X017262Y006760D01*
X017253Y006796D01*
X017247Y006833D01*
X017245Y006870D01*
X017245Y003330D02*
X017247Y003367D01*
X017253Y003404D01*
X017262Y003440D01*
X017276Y003474D01*
X017293Y003507D01*
X017313Y003539D01*
X017336Y003568D01*
X017362Y003594D01*
X017391Y003617D01*
X017422Y003637D01*
X017456Y003654D01*
X017490Y003668D01*
X017526Y003677D01*
X017563Y003683D01*
X017600Y003685D01*
X017637Y003683D01*
X017674Y003677D01*
X017710Y003668D01*
X017744Y003654D01*
X017777Y003637D01*
X017809Y003617D01*
X017838Y003594D01*
X017864Y003568D01*
X017887Y003539D01*
X017907Y003508D01*
X017924Y003474D01*
X017938Y003440D01*
X017947Y003404D01*
X017953Y003367D01*
X017955Y003330D01*
X017953Y003293D01*
X017947Y003256D01*
X017938Y003220D01*
X017924Y003186D01*
X017907Y003153D01*
X017887Y003121D01*
X017864Y003092D01*
X017838Y003066D01*
X017809Y003043D01*
X017778Y003023D01*
X017744Y003006D01*
X017710Y002992D01*
X017674Y002983D01*
X017637Y002977D01*
X017600Y002975D01*
X017563Y002977D01*
X017526Y002983D01*
X017490Y002992D01*
X017456Y003006D01*
X017423Y003023D01*
X017391Y003043D01*
X017362Y003066D01*
X017336Y003092D01*
X017313Y003121D01*
X017293Y003152D01*
X017276Y003186D01*
X017262Y003220D01*
X017253Y003256D01*
X017247Y003293D01*
X017245Y003330D01*
X023049Y001100D02*
X023051Y001147D01*
X023057Y001193D01*
X023067Y001239D01*
X023080Y001284D01*
X023098Y001327D01*
X023119Y001369D01*
X023143Y001409D01*
X023171Y001446D01*
X023202Y001481D01*
X023236Y001514D01*
X023272Y001543D01*
X023311Y001569D01*
X023352Y001592D01*
X023395Y001611D01*
X023439Y001627D01*
X023484Y001639D01*
X023530Y001647D01*
X023577Y001651D01*
X023623Y001651D01*
X023670Y001647D01*
X023716Y001639D01*
X023761Y001627D01*
X023805Y001611D01*
X023848Y001592D01*
X023889Y001569D01*
X023928Y001543D01*
X023964Y001514D01*
X023998Y001481D01*
X024029Y001446D01*
X024057Y001409D01*
X024081Y001369D01*
X024102Y001327D01*
X024120Y001284D01*
X024133Y001239D01*
X024143Y001193D01*
X024149Y001147D01*
X024151Y001100D01*
X024149Y001053D01*
X024143Y001007D01*
X024133Y000961D01*
X024120Y000916D01*
X024102Y000873D01*
X024081Y000831D01*
X024057Y000791D01*
X024029Y000754D01*
X023998Y000719D01*
X023964Y000686D01*
X023928Y000657D01*
X023889Y000631D01*
X023848Y000608D01*
X023805Y000589D01*
X023761Y000573D01*
X023716Y000561D01*
X023670Y000553D01*
X023623Y000549D01*
X023577Y000549D01*
X023530Y000553D01*
X023484Y000561D01*
X023439Y000573D01*
X023395Y000589D01*
X023352Y000608D01*
X023311Y000631D01*
X023272Y000657D01*
X023236Y000686D01*
X023202Y000719D01*
X023171Y000754D01*
X023143Y000791D01*
X023119Y000831D01*
X023098Y000873D01*
X023080Y000916D01*
X023067Y000961D01*
X023057Y001007D01*
X023051Y001053D01*
X023049Y001100D01*
X023049Y019100D02*
X023051Y019147D01*
X023057Y019193D01*
X023067Y019239D01*
X023080Y019284D01*
X023098Y019327D01*
X023119Y019369D01*
X023143Y019409D01*
X023171Y019446D01*
X023202Y019481D01*
X023236Y019514D01*
X023272Y019543D01*
X023311Y019569D01*
X023352Y019592D01*
X023395Y019611D01*
X023439Y019627D01*
X023484Y019639D01*
X023530Y019647D01*
X023577Y019651D01*
X023623Y019651D01*
X023670Y019647D01*
X023716Y019639D01*
X023761Y019627D01*
X023805Y019611D01*
X023848Y019592D01*
X023889Y019569D01*
X023928Y019543D01*
X023964Y019514D01*
X023998Y019481D01*
X024029Y019446D01*
X024057Y019409D01*
X024081Y019369D01*
X024102Y019327D01*
X024120Y019284D01*
X024133Y019239D01*
X024143Y019193D01*
X024149Y019147D01*
X024151Y019100D01*
X024149Y019053D01*
X024143Y019007D01*
X024133Y018961D01*
X024120Y018916D01*
X024102Y018873D01*
X024081Y018831D01*
X024057Y018791D01*
X024029Y018754D01*
X023998Y018719D01*
X023964Y018686D01*
X023928Y018657D01*
X023889Y018631D01*
X023848Y018608D01*
X023805Y018589D01*
X023761Y018573D01*
X023716Y018561D01*
X023670Y018553D01*
X023623Y018549D01*
X023577Y018549D01*
X023530Y018553D01*
X023484Y018561D01*
X023439Y018573D01*
X023395Y018589D01*
X023352Y018608D01*
X023311Y018631D01*
X023272Y018657D01*
X023236Y018686D01*
X023202Y018719D01*
X023171Y018754D01*
X023143Y018791D01*
X023119Y018831D01*
X023098Y018873D01*
X023080Y018916D01*
X023067Y018961D01*
X023057Y019007D01*
X023051Y019053D01*
X023049Y019100D01*
D11*
X018100Y018600D03*
X018100Y017600D03*
X017100Y017600D03*
X017100Y018600D03*
X016100Y018600D03*
X016100Y017600D03*
X015100Y017600D03*
X015100Y018600D03*
X014100Y018600D03*
X014100Y017600D03*
X013100Y017600D03*
X013100Y018600D03*
X012100Y018600D03*
X012100Y017600D03*
X011100Y017600D03*
X011100Y018600D03*
X010100Y018600D03*
X010100Y017600D03*
X009100Y017600D03*
X009100Y018600D03*
X008100Y018600D03*
X008100Y017600D03*
X007100Y017600D03*
X007100Y018600D03*
X006100Y018600D03*
X006100Y017600D03*
D12*
X009600Y013100D03*
X010600Y013100D03*
X010600Y005100D03*
X009600Y005100D03*
X022100Y005100D03*
X023100Y005100D03*
X023100Y013100D03*
X022100Y013100D03*
D13*
X020413Y012120D02*
X019708Y012120D01*
X019708Y014080D02*
X020413Y014080D01*
X015493Y014080D02*
X014788Y014080D01*
X014788Y012120D02*
X015493Y012120D01*
X015493Y006080D02*
X014788Y006080D01*
X014788Y004120D02*
X015493Y004120D01*
X019708Y004120D02*
X020413Y004120D01*
X020413Y006080D02*
X019708Y006080D01*
X007913Y006080D02*
X007208Y006080D01*
X007208Y004120D02*
X007913Y004120D01*
X002993Y004120D02*
X002288Y004120D01*
X002288Y006080D02*
X002993Y006080D01*
X002993Y012120D02*
X002288Y012120D01*
X002288Y014080D02*
X002993Y014080D01*
X007208Y014080D02*
X007913Y014080D01*
X007913Y012120D02*
X007208Y012120D01*
D14*
X007100Y009100D03*
X003100Y009100D03*
X003100Y001600D03*
X007100Y001600D03*
X015600Y001600D03*
X019600Y001600D03*
X019600Y009100D03*
X015600Y009100D03*
D15*
X015140Y006080D02*
X014100Y006100D01*
X012100Y004100D01*
X009100Y004100D01*
X008600Y004600D01*
X008600Y015100D01*
X007100Y016600D01*
X007100Y017600D01*
X006100Y017600D02*
X006100Y016100D01*
X007560Y014640D01*
X007560Y014080D01*
X009100Y015600D02*
X008100Y016600D01*
X008100Y017600D01*
X009100Y018600D02*
X009100Y019100D01*
X008600Y019600D01*
X005100Y019600D01*
X004100Y018600D01*
X004100Y017600D01*
X009100Y015600D02*
X009100Y008600D01*
X009600Y008100D01*
X009600Y007100D01*
X010600Y005100D02*
X012100Y005100D01*
X013100Y006100D01*
X013100Y017600D01*
X013100Y018600D02*
X013100Y019100D01*
X013600Y019600D01*
X018100Y019600D01*
X019100Y018600D01*
X019100Y016600D01*
X018100Y015600D01*
X014100Y015600D01*
X012100Y018600D02*
X012100Y019600D01*
X012600Y020100D01*
X018600Y020100D01*
X021100Y017600D01*
X021100Y012600D01*
X023100Y010600D01*
X023100Y005100D01*
X014120Y006080D02*
X014100Y006100D01*
X023100Y013100D02*
X023100Y016600D01*
X019100Y020600D01*
X011600Y020600D01*
X011100Y020100D01*
X011100Y018600D01*
X002620Y006100D02*
X002640Y006080D01*
X002620Y006080D02*
X002600Y006100D01*
X002620Y006100D01*
D16*
X014100Y015600D03*
X004100Y017600D03*
D17*
X009600Y007100D03*
M02*
