%
M48
M72
T01C0.0236
T02C0.0276
T03C0.0320
T04C0.0354
T05C0.0400
T06C0.0470
T07C0.0710
T08C0.1181
%
T01
X14100Y16100
X4100Y17600
T02
X9600Y7100
T03
X9600Y5100
X10600Y5100
X10600Y13100
X9600Y13100
X22100Y13100
X23100Y13100
X23100Y5100
X22100Y5100
T04
X19600Y1600
X15600Y1600
X15600Y9100
X19600Y9100
X7100Y9100
X3100Y9100
X3100Y1600
X7100Y1600
T05
X7100Y17600
X7100Y18600
X6100Y18600
X6100Y17600
X8100Y17600
X8100Y18600
X9100Y18600
X9100Y17600
X10100Y17600
X10100Y18600
X11100Y18600
X11100Y17600
X12100Y17600
X12100Y18600
X13100Y18600
X13100Y17600
X14100Y17600
X14100Y18600
X15100Y18600
X15100Y17600
X16100Y17600
X16100Y18600
X17100Y18600
X17100Y17600
X18100Y17600
X18100Y18600
T06
X20060Y14080
X20060Y12120
X15140Y12120
X15140Y14080
X7560Y14080
X7560Y12120
X2640Y12120
X2640Y14080
X2640Y6080
X2640Y4120
X7560Y4120
X7560Y6080
X15140Y6080
X15140Y4120
X20060Y4120
X20060Y6080
T07
X17600Y6870
X17600Y3330
X17600Y11330
X17600Y14870
X5100Y14870
X5100Y11330
X5100Y6870
X5100Y3330
T08
X1100Y1100
X1100Y20100
X23600Y20100
X23600Y1100
M30
