G75*
%MOIN*%
%OFA0B0*%
%FSLAX24Y24*%
%IPPOS*%
%LPD*%
%AMOC8*
5,1,8,0,0,1.08239X$1,22.5*
%
%ADD10C,0.0650*%
%ADD11OC8,0.0660*%
%ADD12C,0.0705*%
%ADD13C,0.0740*%
%ADD14C,0.0160*%
%ADD15R,0.0396X0.0396*%
%ADD16C,0.0100*%
%ADD17R,0.0436X0.0436*%
%ADD18C,0.0120*%
D10*
X006100Y017600D03*
X006100Y018600D03*
X007100Y018600D03*
X007100Y017600D03*
X008100Y017600D03*
X008100Y018600D03*
X009100Y018600D03*
X009100Y017600D03*
X010100Y017600D03*
X010100Y018600D03*
X011100Y018600D03*
X011100Y017600D03*
X012100Y017600D03*
X012100Y018600D03*
X013100Y018600D03*
X013100Y017600D03*
X014100Y017600D03*
X014100Y018600D03*
X015100Y018600D03*
X015100Y017600D03*
X016100Y017600D03*
X016100Y018600D03*
X017100Y018600D03*
X017100Y017600D03*
X018100Y017600D03*
X018100Y018600D03*
D11*
X022100Y013100D03*
X023100Y013100D03*
X023100Y005100D03*
X022100Y005100D03*
X010600Y005100D03*
X009600Y005100D03*
X009600Y013100D03*
X010600Y013100D03*
D12*
X007913Y012120D02*
X007208Y012120D01*
X007208Y014080D02*
X007913Y014080D01*
X002993Y014080D02*
X002288Y014080D01*
X002288Y012120D02*
X002993Y012120D01*
X002993Y006080D02*
X002288Y006080D01*
X002288Y004120D02*
X002993Y004120D01*
X007208Y004120D02*
X007913Y004120D01*
X007913Y006080D02*
X007208Y006080D01*
X014788Y006080D02*
X015493Y006080D01*
X015493Y004120D02*
X014788Y004120D01*
X019708Y004120D02*
X020413Y004120D01*
X020413Y006080D02*
X019708Y006080D01*
X019708Y012120D02*
X020413Y012120D01*
X020413Y014080D02*
X019708Y014080D01*
X015493Y014080D02*
X014788Y014080D01*
X014788Y012120D02*
X015493Y012120D01*
D13*
X015600Y009100D03*
X019600Y009100D03*
X019600Y001600D03*
X015600Y001600D03*
X007100Y001600D03*
X003100Y001600D03*
X003100Y009100D03*
X007100Y009100D03*
D14*
X002098Y000687D02*
X002047Y000600D01*
X007100Y000600D01*
X007780Y001280D01*
X007628Y001280D01*
X007617Y001254D01*
X007446Y001083D01*
X007221Y000990D01*
X006979Y000990D01*
X006754Y001083D01*
X006583Y001254D01*
X006490Y001479D01*
X006490Y001721D01*
X006583Y001946D01*
X006754Y002117D01*
X006979Y002210D01*
X007221Y002210D01*
X007446Y002117D01*
X007617Y001946D01*
X007628Y001920D01*
X007967Y001920D01*
X008600Y002553D01*
X008600Y005760D01*
X008421Y005760D01*
X008415Y005744D01*
X008248Y005578D01*
X008030Y005488D01*
X007090Y005488D01*
X006872Y005578D01*
X006705Y005744D01*
X006699Y005760D01*
X003501Y005760D01*
X003495Y005744D01*
X003328Y005578D01*
X003110Y005488D01*
X002170Y005488D01*
X001952Y005578D01*
X001785Y005744D01*
X001695Y005962D01*
X001695Y006198D01*
X001785Y006416D01*
X001952Y006582D01*
X002170Y006672D01*
X003110Y006672D01*
X003328Y006582D01*
X003495Y006416D01*
X003501Y006400D01*
X004391Y006400D01*
X004265Y006704D01*
X004265Y007036D01*
X004392Y007343D01*
X004627Y007578D01*
X004934Y007705D01*
X005266Y007705D01*
X005573Y007578D01*
X005808Y007343D01*
X005935Y007036D01*
X005935Y006704D01*
X005809Y006400D01*
X006699Y006400D01*
X006705Y006416D01*
X006872Y006582D01*
X007090Y006672D01*
X008030Y006672D01*
X008248Y006582D01*
X008415Y006416D01*
X008421Y006400D01*
X008447Y006400D01*
X008600Y006553D01*
X008600Y008780D01*
X007628Y008780D01*
X007617Y008754D01*
X007446Y008583D01*
X007221Y008490D01*
X006979Y008490D01*
X006754Y008583D01*
X006583Y008754D01*
X006490Y008979D01*
X006490Y009221D01*
X006583Y009446D01*
X006754Y009617D01*
X006979Y009710D01*
X007221Y009710D01*
X007446Y009617D01*
X007617Y009446D01*
X007628Y009420D01*
X008467Y009420D01*
X008600Y009553D01*
X008600Y014600D01*
X009600Y015600D01*
X010280Y015600D01*
X010280Y015664D01*
X010329Y015781D01*
X010827Y016280D01*
X005036Y016280D01*
X004919Y016329D01*
X004086Y017162D01*
X003854Y017162D01*
X003766Y017198D01*
X003698Y017266D01*
X003662Y017354D01*
X003662Y017846D01*
X003698Y017934D01*
X003766Y018002D01*
X003854Y018038D01*
X004346Y018038D01*
X004434Y018002D01*
X004502Y017934D01*
X004538Y017846D01*
X004538Y017614D01*
X005233Y016920D01*
X014664Y016920D01*
X014781Y016871D01*
X014871Y016781D01*
X014871Y016781D01*
X015371Y016281D01*
X015420Y016164D01*
X015420Y014672D01*
X015610Y014672D01*
X015828Y014582D01*
X015995Y014416D01*
X016001Y014400D01*
X016891Y014400D01*
X016765Y014704D01*
X016765Y015036D01*
X016892Y015343D01*
X017127Y015578D01*
X017434Y015705D01*
X017766Y015705D01*
X018073Y015578D01*
X018308Y015343D01*
X018435Y015036D01*
X018435Y014704D01*
X018309Y014400D01*
X019199Y014400D01*
X019205Y014416D01*
X019372Y014582D01*
X019590Y014672D01*
X020530Y014672D01*
X020748Y014582D01*
X020915Y014416D01*
X021005Y014198D01*
X021005Y013962D01*
X020915Y013744D01*
X020748Y013578D01*
X020530Y013488D01*
X019590Y013488D01*
X019372Y013578D01*
X019205Y013744D01*
X019199Y013760D01*
X016001Y013760D01*
X015995Y013744D01*
X015828Y013578D01*
X015610Y013488D01*
X014670Y013488D01*
X014452Y013578D01*
X014285Y013744D01*
X014195Y013962D01*
X014195Y014198D01*
X014285Y014416D01*
X014452Y014582D01*
X014670Y014672D01*
X014780Y014672D01*
X014780Y015967D01*
X014538Y016209D01*
X014538Y015854D01*
X014502Y015766D01*
X014434Y015698D01*
X014346Y015662D01*
X013854Y015662D01*
X013766Y015698D01*
X013698Y015766D01*
X013693Y015780D01*
X011233Y015780D01*
X011053Y015600D01*
X013100Y015600D01*
X014100Y014600D01*
X014100Y002100D01*
X015600Y000600D01*
X020100Y000600D01*
X020780Y001280D01*
X020128Y001280D01*
X020117Y001254D01*
X019946Y001083D01*
X019721Y000990D01*
X019479Y000990D01*
X019254Y001083D01*
X019083Y001254D01*
X018990Y001479D01*
X018990Y001721D01*
X019083Y001946D01*
X019254Y002117D01*
X019479Y002210D01*
X019721Y002210D01*
X019946Y002117D01*
X020117Y001946D01*
X020128Y001920D01*
X020967Y001920D01*
X021100Y002053D01*
X021100Y008780D01*
X020128Y008780D01*
X020117Y008754D01*
X019946Y008583D01*
X019721Y008490D01*
X019479Y008490D01*
X019254Y008583D01*
X019083Y008754D01*
X018990Y008979D01*
X018990Y009221D01*
X019083Y009446D01*
X019254Y009617D01*
X019479Y009710D01*
X019721Y009710D01*
X019946Y009617D01*
X020117Y009446D01*
X020128Y009420D01*
X020967Y009420D01*
X021100Y009553D01*
X021100Y014600D01*
X019100Y016600D01*
X019100Y018100D01*
X018665Y018535D01*
X018665Y018488D01*
X018579Y018280D01*
X018420Y018121D01*
X018369Y018100D01*
X018420Y018079D01*
X018579Y017920D01*
X018665Y017712D01*
X018665Y017488D01*
X018579Y017280D01*
X018420Y017121D01*
X018212Y017035D01*
X017988Y017035D01*
X017780Y017121D01*
X017621Y017280D01*
X017600Y017331D01*
X017579Y017280D01*
X017420Y017121D01*
X017212Y017035D01*
X016988Y017035D01*
X016780Y017121D01*
X016621Y017280D01*
X016568Y017407D01*
X016568Y017406D01*
X016532Y017335D01*
X016485Y017271D01*
X016429Y017215D01*
X016365Y017168D01*
X016294Y017132D01*
X016218Y017107D01*
X016140Y017095D01*
X016120Y017095D01*
X016120Y017580D01*
X016080Y017580D01*
X016080Y017095D01*
X016060Y017095D01*
X015982Y017107D01*
X015906Y017132D01*
X015835Y017168D01*
X015771Y017215D01*
X015715Y017271D01*
X015668Y017335D01*
X015632Y017406D01*
X015632Y017407D01*
X015579Y017280D01*
X015420Y017121D01*
X015212Y017035D01*
X014988Y017035D01*
X014780Y017121D01*
X014621Y017280D01*
X014600Y017331D01*
X014579Y017280D01*
X014420Y017121D01*
X014212Y017035D01*
X013988Y017035D01*
X013780Y017121D01*
X013621Y017280D01*
X013600Y017331D01*
X013579Y017280D01*
X013420Y017121D01*
X013212Y017035D01*
X012988Y017035D01*
X012780Y017121D01*
X012621Y017280D01*
X012600Y017331D01*
X012579Y017280D01*
X012420Y017121D01*
X012212Y017035D01*
X011988Y017035D01*
X011780Y017121D01*
X011621Y017280D01*
X011600Y017331D01*
X011579Y017280D01*
X011420Y017121D01*
X011212Y017035D01*
X010988Y017035D01*
X010780Y017121D01*
X010621Y017280D01*
X010600Y017331D01*
X010579Y017280D01*
X010420Y017121D01*
X010212Y017035D01*
X009988Y017035D01*
X009780Y017121D01*
X009621Y017280D01*
X009600Y017331D01*
X009579Y017280D01*
X009420Y017121D01*
X009212Y017035D01*
X008988Y017035D01*
X008780Y017121D01*
X008621Y017280D01*
X008600Y017331D01*
X008579Y017280D01*
X008420Y017121D01*
X008212Y017035D01*
X007988Y017035D01*
X007780Y017121D01*
X007621Y017280D01*
X007600Y017331D01*
X007579Y017280D01*
X007420Y017121D01*
X007212Y017035D01*
X006988Y017035D01*
X006780Y017121D01*
X006621Y017280D01*
X006600Y017331D01*
X006579Y017280D01*
X006420Y017121D01*
X006212Y017035D01*
X005988Y017035D01*
X005780Y017121D01*
X005621Y017280D01*
X005535Y017488D01*
X005535Y017712D01*
X005621Y017920D01*
X005780Y018079D01*
X005831Y018100D01*
X005780Y018121D01*
X005621Y018280D01*
X005535Y018488D01*
X005535Y018712D01*
X005621Y018920D01*
X005780Y019079D01*
X005988Y019165D01*
X006212Y019165D01*
X006420Y019079D01*
X006579Y018920D01*
X006600Y018869D01*
X006621Y018920D01*
X006780Y019079D01*
X006988Y019165D01*
X007212Y019165D01*
X007420Y019079D01*
X007579Y018920D01*
X007600Y018869D01*
X007621Y018920D01*
X007780Y019079D01*
X007988Y019165D01*
X008212Y019165D01*
X008420Y019079D01*
X008579Y018920D01*
X008600Y018869D01*
X008621Y018920D01*
X008780Y019079D01*
X008988Y019165D01*
X009212Y019165D01*
X009420Y019079D01*
X009579Y018920D01*
X009600Y018869D01*
X009621Y018920D01*
X009780Y019079D01*
X009988Y019165D01*
X010212Y019165D01*
X010420Y019079D01*
X010579Y018920D01*
X010600Y018869D01*
X010621Y018920D01*
X010780Y019079D01*
X010988Y019165D01*
X011212Y019165D01*
X011420Y019079D01*
X011579Y018920D01*
X011600Y018869D01*
X011621Y018920D01*
X011780Y019079D01*
X011988Y019165D01*
X012212Y019165D01*
X012420Y019079D01*
X012579Y018920D01*
X012600Y018869D01*
X012621Y018920D01*
X012780Y019079D01*
X012988Y019165D01*
X013212Y019165D01*
X013420Y019079D01*
X013579Y018920D01*
X013600Y018869D01*
X013621Y018920D01*
X013780Y019079D01*
X013988Y019165D01*
X014212Y019165D01*
X014420Y019079D01*
X014579Y018920D01*
X014600Y018869D01*
X014621Y018920D01*
X014780Y019079D01*
X014988Y019165D01*
X015212Y019165D01*
X015420Y019079D01*
X015579Y018920D01*
X015600Y018869D01*
X015621Y018920D01*
X015780Y019079D01*
X015988Y019165D01*
X016212Y019165D01*
X016420Y019079D01*
X016579Y018920D01*
X016600Y018869D01*
X016621Y018920D01*
X016780Y019079D01*
X016988Y019165D01*
X017212Y019165D01*
X017420Y019079D01*
X017579Y018920D01*
X017600Y018869D01*
X017621Y018920D01*
X017780Y019079D01*
X017988Y019165D01*
X018035Y019165D01*
X017600Y019600D01*
X005100Y019600D01*
X003600Y018100D01*
X003600Y016600D01*
X001600Y014600D01*
X001600Y002047D01*
X001757Y001957D01*
X001957Y001757D01*
X002098Y001513D01*
X002171Y001241D01*
X002171Y000959D01*
X002098Y000687D01*
X002110Y000734D02*
X007234Y000734D01*
X007393Y000893D02*
X002153Y000893D01*
X002171Y001051D02*
X003050Y001051D01*
X003057Y001050D02*
X003091Y001050D01*
X003091Y001591D01*
X003109Y001591D01*
X003109Y001609D01*
X003650Y001609D01*
X003650Y001643D01*
X003636Y001729D01*
X003610Y001811D01*
X003570Y001888D01*
X003520Y001958D01*
X003458Y002020D01*
X003388Y002070D01*
X003311Y002110D01*
X003229Y002136D01*
X003143Y002150D01*
X003109Y002150D01*
X003109Y001609D01*
X003091Y001609D01*
X003091Y002150D01*
X003057Y002150D01*
X002971Y002136D01*
X002889Y002110D01*
X002812Y002070D01*
X002742Y002020D01*
X002680Y001958D01*
X002630Y001888D01*
X002590Y001811D01*
X002564Y001729D01*
X002550Y001643D01*
X002550Y001609D01*
X003091Y001609D01*
X003091Y001591D01*
X002550Y001591D01*
X002550Y001557D01*
X002564Y001471D01*
X002590Y001389D01*
X002630Y001312D01*
X002680Y001242D01*
X002742Y001180D01*
X002812Y001130D01*
X002889Y001090D01*
X002971Y001064D01*
X003057Y001050D01*
X003091Y001051D02*
X003109Y001051D01*
X003109Y001050D02*
X003143Y001050D01*
X003229Y001064D01*
X003311Y001090D01*
X003388Y001130D01*
X003458Y001180D01*
X003520Y001242D01*
X003570Y001312D01*
X003610Y001389D01*
X003636Y001471D01*
X003650Y001557D01*
X003650Y001591D01*
X003109Y001591D01*
X003109Y001050D01*
X003150Y001051D02*
X006831Y001051D01*
X006628Y001210D02*
X003487Y001210D01*
X003599Y001368D02*
X006536Y001368D01*
X006490Y001527D02*
X003645Y001527D01*
X003643Y001685D02*
X006490Y001685D01*
X006541Y001844D02*
X003593Y001844D01*
X003476Y002002D02*
X006639Y002002D01*
X006859Y002161D02*
X001600Y002161D01*
X001600Y002319D02*
X008366Y002319D01*
X008208Y002161D02*
X007341Y002161D01*
X007561Y002002D02*
X008049Y002002D01*
X008100Y001600D02*
X009600Y003100D01*
X009600Y005100D01*
X008600Y005172D02*
X001600Y005172D01*
X001600Y005014D02*
X008600Y005014D01*
X008600Y004855D02*
X001600Y004855D01*
X001600Y004697D02*
X008600Y004697D01*
X008600Y004538D02*
X008243Y004538D01*
X008259Y004526D02*
X008192Y004575D01*
X008117Y004613D01*
X008037Y004639D01*
X007954Y004652D01*
X007598Y004652D01*
X007598Y004158D01*
X007522Y004158D01*
X007522Y004652D01*
X007166Y004652D01*
X007083Y004639D01*
X007003Y004613D01*
X006928Y004575D01*
X006861Y004526D01*
X006801Y004467D01*
X006752Y004399D01*
X006714Y004324D01*
X006688Y004245D01*
X006675Y004162D01*
X006675Y004158D01*
X007522Y004158D01*
X007522Y004082D01*
X007598Y004082D01*
X007598Y004158D01*
X008445Y004158D01*
X008445Y004162D01*
X008432Y004245D01*
X008406Y004324D01*
X008368Y004399D01*
X008319Y004467D01*
X008259Y004526D01*
X008378Y004380D02*
X008600Y004380D01*
X008600Y004221D02*
X008436Y004221D01*
X008445Y004082D02*
X007598Y004082D01*
X007598Y003588D01*
X007954Y003588D01*
X008037Y003601D01*
X008117Y003627D01*
X008192Y003665D01*
X008259Y003714D01*
X008319Y003773D01*
X008368Y003841D01*
X008406Y003916D01*
X008432Y003995D01*
X008445Y004078D01*
X008445Y004082D01*
X008443Y004063D02*
X008600Y004063D01*
X008600Y003904D02*
X008400Y003904D01*
X008291Y003746D02*
X008600Y003746D01*
X008600Y003587D02*
X005897Y003587D01*
X005935Y003496D02*
X005808Y003803D01*
X005573Y004038D01*
X005266Y004165D01*
X004934Y004165D01*
X004627Y004038D01*
X004392Y003803D01*
X004265Y003496D01*
X004265Y003164D01*
X004392Y002857D01*
X004627Y002622D01*
X004934Y002495D01*
X005266Y002495D01*
X005573Y002622D01*
X005808Y002857D01*
X005935Y003164D01*
X005935Y003496D01*
X005935Y003429D02*
X008600Y003429D01*
X008600Y003270D02*
X005935Y003270D01*
X005913Y003112D02*
X008600Y003112D01*
X008600Y002953D02*
X005848Y002953D01*
X005745Y002795D02*
X008600Y002795D01*
X008600Y002636D02*
X005587Y002636D01*
X004613Y002636D02*
X001600Y002636D01*
X001600Y002478D02*
X008525Y002478D01*
X008100Y001600D02*
X007100Y001600D01*
X007572Y001210D02*
X007710Y001210D01*
X007551Y001051D02*
X007369Y001051D01*
X004455Y002795D02*
X001600Y002795D01*
X001600Y002953D02*
X004352Y002953D01*
X004287Y003112D02*
X001600Y003112D01*
X001600Y003270D02*
X004265Y003270D01*
X004265Y003429D02*
X001600Y003429D01*
X001600Y003587D02*
X004303Y003587D01*
X004368Y003746D02*
X003371Y003746D01*
X003399Y003773D02*
X003448Y003841D01*
X003486Y003916D01*
X003512Y003995D01*
X003525Y004078D01*
X003525Y004082D01*
X002678Y004082D01*
X002678Y004158D01*
X002602Y004158D01*
X002602Y004652D01*
X002246Y004652D01*
X002163Y004639D01*
X002083Y004613D01*
X002008Y004575D01*
X001941Y004526D01*
X001881Y004467D01*
X001832Y004399D01*
X001794Y004324D01*
X001768Y004245D01*
X001755Y004162D01*
X001755Y004158D01*
X002602Y004158D01*
X002602Y004082D01*
X002678Y004082D01*
X002678Y003588D01*
X003034Y003588D01*
X003117Y003601D01*
X003197Y003627D01*
X003272Y003665D01*
X003339Y003714D01*
X003399Y003773D01*
X003480Y003904D02*
X004493Y003904D01*
X004686Y004063D02*
X003523Y004063D01*
X003525Y004158D02*
X003525Y004162D01*
X003512Y004245D01*
X003486Y004324D01*
X003448Y004399D01*
X003399Y004467D01*
X003339Y004526D01*
X003272Y004575D01*
X003197Y004613D01*
X003117Y004639D01*
X003034Y004652D01*
X002678Y004652D01*
X002678Y004158D01*
X003525Y004158D01*
X003516Y004221D02*
X006684Y004221D01*
X006675Y004082D02*
X006675Y004078D01*
X006688Y003995D01*
X006714Y003916D01*
X006752Y003841D01*
X006801Y003773D01*
X006861Y003714D01*
X006928Y003665D01*
X007003Y003627D01*
X007083Y003601D01*
X007166Y003588D01*
X007522Y003588D01*
X007522Y004082D01*
X006675Y004082D01*
X006677Y004063D02*
X005514Y004063D01*
X005707Y003904D02*
X006720Y003904D01*
X006829Y003746D02*
X005832Y003746D01*
X006742Y004380D02*
X003458Y004380D01*
X003323Y004538D02*
X006877Y004538D01*
X007522Y004538D02*
X007598Y004538D01*
X007598Y004380D02*
X007522Y004380D01*
X007522Y004221D02*
X007598Y004221D01*
X007598Y004063D02*
X007522Y004063D01*
X007522Y003904D02*
X007598Y003904D01*
X007598Y003746D02*
X007522Y003746D01*
X007086Y005489D02*
X003114Y005489D01*
X003398Y005648D02*
X006802Y005648D01*
X007560Y006080D02*
X008580Y006080D01*
X009600Y007100D01*
X008600Y007074D02*
X005919Y007074D01*
X005935Y006916D02*
X008600Y006916D01*
X008600Y006757D02*
X005935Y006757D01*
X005891Y006599D02*
X006911Y006599D01*
X006730Y006440D02*
X005826Y006440D01*
X005854Y007233D02*
X008600Y007233D01*
X008600Y007391D02*
X005760Y007391D01*
X005601Y007550D02*
X008600Y007550D01*
X008600Y007708D02*
X001600Y007708D01*
X001600Y007550D02*
X004599Y007550D01*
X004440Y007391D02*
X001600Y007391D01*
X001600Y007233D02*
X004346Y007233D01*
X004281Y007074D02*
X001600Y007074D01*
X001600Y006916D02*
X004265Y006916D01*
X004265Y006757D02*
X001600Y006757D01*
X001600Y006599D02*
X001991Y006599D01*
X001810Y006440D02*
X001600Y006440D01*
X001600Y006282D02*
X001730Y006282D01*
X001695Y006123D02*
X001600Y006123D01*
X001600Y005965D02*
X001695Y005965D01*
X001760Y005806D02*
X001600Y005806D01*
X001600Y005648D02*
X001882Y005648D01*
X001600Y005489D02*
X002166Y005489D01*
X001600Y005331D02*
X008600Y005331D01*
X008600Y005489D02*
X008034Y005489D01*
X008318Y005648D02*
X008600Y005648D01*
X008487Y006440D02*
X008390Y006440D01*
X008209Y006599D02*
X008600Y006599D01*
X007560Y006080D02*
X002640Y006080D01*
X003289Y006599D02*
X004309Y006599D01*
X004374Y006440D02*
X003470Y006440D01*
X001600Y007867D02*
X008600Y007867D01*
X008600Y008025D02*
X001600Y008025D01*
X001600Y008184D02*
X008600Y008184D01*
X008600Y008342D02*
X001600Y008342D01*
X001600Y008501D02*
X006953Y008501D01*
X007247Y008501D02*
X008600Y008501D01*
X008600Y008659D02*
X007522Y008659D01*
X007100Y009100D02*
X008600Y009100D01*
X009600Y010100D01*
X009600Y013100D01*
X010600Y013100D02*
X010600Y015600D01*
X011100Y016100D01*
X014100Y016100D01*
X014538Y016109D02*
X014639Y016109D01*
X014538Y015950D02*
X014780Y015950D01*
X014780Y015792D02*
X014512Y015792D01*
X014780Y015633D02*
X011086Y015633D01*
X010656Y016109D02*
X003109Y016109D01*
X003267Y016267D02*
X010814Y016267D01*
X010497Y015950D02*
X002950Y015950D01*
X002792Y015792D02*
X010339Y015792D01*
X010280Y015633D02*
X005440Y015633D01*
X005573Y015578D02*
X005266Y015705D01*
X004934Y015705D01*
X004627Y015578D01*
X004392Y015343D01*
X004265Y015036D01*
X004265Y014704D01*
X004383Y014420D01*
X003490Y014420D01*
X003328Y014582D01*
X003110Y014672D01*
X002170Y014672D01*
X001952Y014582D01*
X001785Y014416D01*
X001695Y014198D01*
X001695Y013962D01*
X001785Y013744D01*
X001952Y013578D01*
X002170Y013488D01*
X003110Y013488D01*
X003328Y013578D01*
X003495Y013744D01*
X003510Y013780D01*
X006690Y013780D01*
X006705Y013744D01*
X006872Y013578D01*
X007090Y013488D01*
X008030Y013488D01*
X008248Y013578D01*
X008415Y013744D01*
X008505Y013962D01*
X008505Y014198D01*
X008415Y014416D01*
X008248Y014582D01*
X008030Y014672D01*
X007090Y014672D01*
X006872Y014582D01*
X006710Y014420D01*
X005817Y014420D01*
X005935Y014704D01*
X005935Y015036D01*
X005808Y015343D01*
X005573Y015578D01*
X005676Y015475D02*
X009475Y015475D01*
X009316Y015316D02*
X005819Y015316D01*
X005885Y015158D02*
X009158Y015158D01*
X008999Y014999D02*
X005935Y014999D01*
X005935Y014841D02*
X008841Y014841D01*
X008682Y014682D02*
X005926Y014682D01*
X005860Y014524D02*
X006813Y014524D01*
X007560Y014080D02*
X007580Y014080D01*
X007600Y014100D01*
X002660Y014100D01*
X002640Y014080D01*
X003316Y013573D02*
X006884Y013573D01*
X006719Y013731D02*
X003481Y013731D01*
X003387Y014524D02*
X004340Y014524D01*
X004274Y014682D02*
X001682Y014682D01*
X001600Y014524D02*
X001893Y014524D01*
X001764Y014365D02*
X001600Y014365D01*
X001600Y014207D02*
X001699Y014207D01*
X001695Y014048D02*
X001600Y014048D01*
X001600Y013890D02*
X001725Y013890D01*
X001799Y013731D02*
X001600Y013731D01*
X001600Y013573D02*
X001964Y013573D01*
X001600Y013414D02*
X008600Y013414D01*
X008600Y013256D02*
X001600Y013256D01*
X001600Y013097D02*
X008600Y013097D01*
X008600Y012939D02*
X001600Y012939D01*
X001600Y012780D02*
X008600Y012780D01*
X008600Y012622D02*
X008092Y012622D01*
X008117Y012613D02*
X008037Y012639D01*
X007954Y012652D01*
X007598Y012652D01*
X007598Y012158D01*
X007522Y012158D01*
X007522Y012652D01*
X007166Y012652D01*
X007083Y012639D01*
X007003Y012613D01*
X006928Y012575D01*
X006861Y012526D01*
X006801Y012467D01*
X006752Y012399D01*
X006714Y012324D01*
X006688Y012245D01*
X006675Y012162D01*
X006675Y012158D01*
X007522Y012158D01*
X007522Y012082D01*
X007598Y012082D01*
X007598Y012158D01*
X008445Y012158D01*
X008445Y012162D01*
X008432Y012245D01*
X008406Y012324D01*
X008368Y012399D01*
X008319Y012467D01*
X008259Y012526D01*
X008192Y012575D01*
X008117Y012613D01*
X008321Y012463D02*
X008600Y012463D01*
X008600Y012305D02*
X008412Y012305D01*
X008600Y012146D02*
X007598Y012146D01*
X007598Y012082D02*
X008445Y012082D01*
X008445Y012078D01*
X008432Y011995D01*
X008406Y011916D01*
X008368Y011841D01*
X008319Y011773D01*
X008259Y011714D01*
X008192Y011665D01*
X008117Y011627D01*
X008037Y011601D01*
X007954Y011588D01*
X007598Y011588D01*
X007598Y012082D01*
X007522Y012082D02*
X007522Y011588D01*
X007166Y011588D01*
X007083Y011601D01*
X007003Y011627D01*
X006928Y011665D01*
X006861Y011714D01*
X006801Y011773D01*
X006752Y011841D01*
X006714Y011916D01*
X006688Y011995D01*
X006675Y012078D01*
X006675Y012082D01*
X007522Y012082D01*
X007522Y012146D02*
X005312Y012146D01*
X005266Y012165D02*
X004934Y012165D01*
X004627Y012038D01*
X004392Y011803D01*
X004265Y011496D01*
X004265Y011164D01*
X004392Y010857D01*
X004627Y010622D01*
X004934Y010495D01*
X005266Y010495D01*
X005573Y010622D01*
X005808Y010857D01*
X005935Y011164D01*
X005935Y011496D01*
X005808Y011803D01*
X005573Y012038D01*
X005266Y012165D01*
X005623Y011988D02*
X006691Y011988D01*
X006761Y011829D02*
X005782Y011829D01*
X005863Y011671D02*
X006920Y011671D01*
X007522Y011671D02*
X007598Y011671D01*
X007598Y011829D02*
X007522Y011829D01*
X007522Y011988D02*
X007598Y011988D01*
X007598Y012305D02*
X007522Y012305D01*
X007522Y012463D02*
X007598Y012463D01*
X007598Y012622D02*
X007522Y012622D01*
X007028Y012622D02*
X003172Y012622D01*
X003197Y012613D02*
X003117Y012639D01*
X003034Y012652D01*
X002678Y012652D01*
X002678Y012158D01*
X002602Y012158D01*
X002602Y012652D01*
X002246Y012652D01*
X002163Y012639D01*
X002083Y012613D01*
X002008Y012575D01*
X001941Y012526D01*
X001881Y012467D01*
X001832Y012399D01*
X001794Y012324D01*
X001768Y012245D01*
X001755Y012162D01*
X001755Y012158D01*
X002602Y012158D01*
X002602Y012082D01*
X002678Y012082D01*
X002678Y012158D01*
X003525Y012158D01*
X003525Y012162D01*
X003512Y012245D01*
X003486Y012324D01*
X003448Y012399D01*
X003399Y012467D01*
X003339Y012526D01*
X003272Y012575D01*
X003197Y012613D01*
X003401Y012463D02*
X006799Y012463D01*
X006708Y012305D02*
X003492Y012305D01*
X003525Y012082D02*
X002678Y012082D01*
X002678Y011588D01*
X003034Y011588D01*
X003117Y011601D01*
X003197Y011627D01*
X003272Y011665D01*
X003339Y011714D01*
X003399Y011773D01*
X003448Y011841D01*
X003486Y011916D01*
X003512Y011995D01*
X003525Y012078D01*
X003525Y012082D01*
X003509Y011988D02*
X004577Y011988D01*
X004418Y011829D02*
X003439Y011829D01*
X003280Y011671D02*
X004337Y011671D01*
X004272Y011512D02*
X001600Y011512D01*
X001600Y011354D02*
X004265Y011354D01*
X004265Y011195D02*
X001600Y011195D01*
X001600Y011037D02*
X004318Y011037D01*
X004383Y010878D02*
X001600Y010878D01*
X001600Y010720D02*
X004530Y010720D01*
X004775Y010561D02*
X001600Y010561D01*
X001600Y010403D02*
X008600Y010403D01*
X008600Y010561D02*
X005425Y010561D01*
X005670Y010720D02*
X008600Y010720D01*
X008600Y010878D02*
X005817Y010878D01*
X005882Y011037D02*
X008600Y011037D01*
X008600Y011195D02*
X005935Y011195D01*
X005935Y011354D02*
X008600Y011354D01*
X008600Y011512D02*
X005928Y011512D01*
X004888Y012146D02*
X002678Y012146D01*
X002602Y012146D02*
X001600Y012146D01*
X001600Y011988D02*
X001771Y011988D01*
X001768Y011995D02*
X001794Y011916D01*
X001832Y011841D01*
X001881Y011773D01*
X001941Y011714D01*
X002008Y011665D01*
X002083Y011627D01*
X002163Y011601D01*
X002246Y011588D01*
X002602Y011588D01*
X002602Y012082D01*
X001755Y012082D01*
X001755Y012078D01*
X001768Y011995D01*
X001841Y011829D02*
X001600Y011829D01*
X001600Y011671D02*
X002000Y011671D01*
X002602Y011671D02*
X002678Y011671D01*
X002678Y011829D02*
X002602Y011829D01*
X002602Y011988D02*
X002678Y011988D01*
X002678Y012305D02*
X002602Y012305D01*
X002602Y012463D02*
X002678Y012463D01*
X002678Y012622D02*
X002602Y012622D01*
X002108Y012622D02*
X001600Y012622D01*
X001600Y012463D02*
X001879Y012463D01*
X001788Y012305D02*
X001600Y012305D01*
X001600Y010244D02*
X008600Y010244D01*
X008600Y010086D02*
X001600Y010086D01*
X001600Y009927D02*
X008600Y009927D01*
X008600Y009769D02*
X001600Y009769D01*
X001600Y009610D02*
X002890Y009610D01*
X002889Y009610D02*
X002812Y009570D01*
X002742Y009520D01*
X002680Y009458D01*
X002630Y009388D01*
X002590Y009311D01*
X002564Y009229D01*
X002550Y009143D01*
X002550Y009109D01*
X003091Y009109D01*
X003091Y009650D01*
X003057Y009650D01*
X002971Y009636D01*
X002889Y009610D01*
X003091Y009610D02*
X003109Y009610D01*
X003109Y009650D02*
X003143Y009650D01*
X003229Y009636D01*
X003311Y009610D01*
X003388Y009570D01*
X003458Y009520D01*
X003520Y009458D01*
X003570Y009388D01*
X003610Y009311D01*
X003636Y009229D01*
X003650Y009143D01*
X003650Y009109D01*
X003109Y009109D01*
X003109Y009091D01*
X003650Y009091D01*
X003650Y009057D01*
X003636Y008971D01*
X003610Y008889D01*
X003570Y008812D01*
X003520Y008742D01*
X003458Y008680D01*
X003388Y008630D01*
X003311Y008590D01*
X003229Y008564D01*
X003143Y008550D01*
X003109Y008550D01*
X003109Y009091D01*
X003091Y009091D01*
X003091Y008550D01*
X003057Y008550D01*
X002971Y008564D01*
X002889Y008590D01*
X002812Y008630D01*
X002742Y008680D01*
X002680Y008742D01*
X002630Y008812D01*
X002590Y008889D01*
X002564Y008971D01*
X002550Y009057D01*
X002550Y009091D01*
X003091Y009091D01*
X003091Y009109D01*
X003109Y009109D01*
X003109Y009650D01*
X003091Y009452D02*
X003109Y009452D01*
X003109Y009293D02*
X003091Y009293D01*
X003091Y009135D02*
X003109Y009135D01*
X003109Y008976D02*
X003091Y008976D01*
X003091Y008818D02*
X003109Y008818D01*
X003109Y008659D02*
X003091Y008659D01*
X002771Y008659D02*
X001600Y008659D01*
X001600Y008818D02*
X002627Y008818D01*
X002563Y008976D02*
X001600Y008976D01*
X001600Y009135D02*
X002550Y009135D01*
X002584Y009293D02*
X001600Y009293D01*
X001600Y009452D02*
X002676Y009452D01*
X003310Y009610D02*
X006747Y009610D01*
X006589Y009452D02*
X003524Y009452D01*
X003616Y009293D02*
X006520Y009293D01*
X006490Y009135D02*
X003650Y009135D01*
X003637Y008976D02*
X006491Y008976D01*
X006557Y008818D02*
X003573Y008818D01*
X003429Y008659D02*
X006678Y008659D01*
X007611Y009452D02*
X008499Y009452D01*
X008600Y009610D02*
X007453Y009610D01*
X008200Y011671D02*
X008600Y011671D01*
X008600Y011829D02*
X008359Y011829D01*
X008429Y011988D02*
X008600Y011988D01*
X008600Y013573D02*
X008236Y013573D01*
X008401Y013731D02*
X008600Y013731D01*
X008600Y013890D02*
X008475Y013890D01*
X008505Y014048D02*
X008600Y014048D01*
X008600Y014207D02*
X008501Y014207D01*
X008436Y014365D02*
X008600Y014365D01*
X008600Y014524D02*
X008307Y014524D01*
X008272Y017060D02*
X008928Y017060D01*
X008683Y017218D02*
X008517Y017218D01*
X007928Y017060D02*
X007272Y017060D01*
X007517Y017218D02*
X007683Y017218D01*
X006928Y017060D02*
X006272Y017060D01*
X006517Y017218D02*
X006683Y017218D01*
X005928Y017060D02*
X005093Y017060D01*
X004935Y017218D02*
X005683Y017218D01*
X005581Y017377D02*
X004776Y017377D01*
X004618Y017535D02*
X005535Y017535D01*
X005535Y017694D02*
X004538Y017694D01*
X004536Y017852D02*
X005593Y017852D01*
X005711Y018011D02*
X004412Y018011D01*
X004100Y017600D02*
X005100Y016600D01*
X014600Y016600D01*
X015100Y016100D01*
X015100Y014100D01*
X015120Y014080D01*
X015140Y014080D01*
X020060Y014080D01*
X020736Y013573D02*
X021100Y013573D01*
X021100Y013731D02*
X020901Y013731D01*
X020975Y013890D02*
X021100Y013890D01*
X021100Y014048D02*
X021005Y014048D01*
X021001Y014207D02*
X021100Y014207D01*
X021100Y014365D02*
X020936Y014365D01*
X020807Y014524D02*
X021100Y014524D01*
X021018Y014682D02*
X018426Y014682D01*
X018435Y014841D02*
X020859Y014841D01*
X020701Y014999D02*
X018435Y014999D01*
X018385Y015158D02*
X020542Y015158D01*
X020384Y015316D02*
X018319Y015316D01*
X018176Y015475D02*
X020225Y015475D01*
X020067Y015633D02*
X017940Y015633D01*
X017260Y015633D02*
X015420Y015633D01*
X015420Y015475D02*
X017024Y015475D01*
X016881Y015316D02*
X015420Y015316D01*
X015420Y015158D02*
X016815Y015158D01*
X016765Y014999D02*
X015420Y014999D01*
X015420Y014841D02*
X016765Y014841D01*
X016774Y014682D02*
X015420Y014682D01*
X015887Y014524D02*
X016840Y014524D01*
X015981Y013731D02*
X019219Y013731D01*
X019384Y013573D02*
X015816Y013573D01*
X015617Y012639D02*
X015534Y012652D01*
X015178Y012652D01*
X015178Y012158D01*
X015102Y012158D01*
X015102Y012652D01*
X014746Y012652D01*
X014663Y012639D01*
X014583Y012613D01*
X014508Y012575D01*
X014441Y012526D01*
X014381Y012467D01*
X014332Y012399D01*
X014294Y012324D01*
X014268Y012245D01*
X014255Y012162D01*
X014255Y012158D01*
X015102Y012158D01*
X015102Y012082D01*
X015178Y012082D01*
X015178Y012158D01*
X016025Y012158D01*
X016025Y012162D01*
X016012Y012245D01*
X015986Y012324D01*
X015948Y012399D01*
X015899Y012467D01*
X015839Y012526D01*
X015772Y012575D01*
X015697Y012613D01*
X015617Y012639D01*
X015672Y012622D02*
X019528Y012622D01*
X019503Y012613D02*
X019583Y012639D01*
X019666Y012652D01*
X020022Y012652D01*
X020022Y012158D01*
X020098Y012158D01*
X020098Y012652D01*
X020454Y012652D01*
X020537Y012639D01*
X020617Y012613D01*
X020692Y012575D01*
X020759Y012526D01*
X020819Y012467D01*
X020868Y012399D01*
X020906Y012324D01*
X020932Y012245D01*
X020945Y012162D01*
X020945Y012158D01*
X020098Y012158D01*
X020098Y012082D01*
X020945Y012082D01*
X020945Y012078D01*
X020932Y011995D01*
X020906Y011916D01*
X020868Y011841D01*
X020819Y011773D01*
X020759Y011714D01*
X020692Y011665D01*
X020617Y011627D01*
X020537Y011601D01*
X020454Y011588D01*
X020098Y011588D01*
X020098Y012082D01*
X020022Y012082D01*
X020022Y011588D01*
X019666Y011588D01*
X019583Y011601D01*
X019503Y011627D01*
X019428Y011665D01*
X019361Y011714D01*
X019301Y011773D01*
X019252Y011841D01*
X019214Y011916D01*
X019188Y011995D01*
X019175Y012078D01*
X019175Y012082D01*
X020022Y012082D01*
X020022Y012158D01*
X019175Y012158D01*
X019175Y012162D01*
X019188Y012245D01*
X019214Y012324D01*
X019252Y012399D01*
X019301Y012467D01*
X019361Y012526D01*
X019428Y012575D01*
X019503Y012613D01*
X019299Y012463D02*
X015901Y012463D01*
X015992Y012305D02*
X019208Y012305D01*
X019191Y011988D02*
X018123Y011988D01*
X018073Y012038D02*
X017766Y012165D01*
X017434Y012165D01*
X017127Y012038D01*
X016892Y011803D01*
X016765Y011496D01*
X016765Y011164D01*
X016892Y010857D01*
X017127Y010622D01*
X017434Y010495D01*
X017766Y010495D01*
X018073Y010622D01*
X018308Y010857D01*
X018435Y011164D01*
X018435Y011496D01*
X018308Y011803D01*
X018073Y012038D01*
X017812Y012146D02*
X020022Y012146D01*
X020098Y012146D02*
X021100Y012146D01*
X021100Y011988D02*
X020929Y011988D01*
X020859Y011829D02*
X021100Y011829D01*
X021100Y011671D02*
X020700Y011671D01*
X021100Y011512D02*
X018428Y011512D01*
X018435Y011354D02*
X021100Y011354D01*
X021100Y011195D02*
X018435Y011195D01*
X018382Y011037D02*
X021100Y011037D01*
X021100Y010878D02*
X018317Y010878D01*
X018170Y010720D02*
X021100Y010720D01*
X021100Y010561D02*
X017925Y010561D01*
X017275Y010561D02*
X014100Y010561D01*
X014100Y010403D02*
X021100Y010403D01*
X021100Y010244D02*
X014100Y010244D01*
X014100Y010086D02*
X021100Y010086D01*
X021100Y009927D02*
X014100Y009927D01*
X014100Y009769D02*
X021100Y009769D01*
X021100Y009610D02*
X019953Y009610D01*
X020111Y009452D02*
X020999Y009452D01*
X021100Y009100D02*
X022100Y010100D01*
X022100Y013100D01*
X021100Y013097D02*
X014100Y013097D01*
X014100Y012939D02*
X021100Y012939D01*
X021100Y012780D02*
X014100Y012780D01*
X014100Y012622D02*
X014608Y012622D01*
X014379Y012463D02*
X014100Y012463D01*
X014100Y012305D02*
X014288Y012305D01*
X014100Y012146D02*
X015102Y012146D01*
X015140Y012120D02*
X015100Y012080D01*
X015102Y012082D02*
X015102Y011588D01*
X014746Y011588D01*
X014663Y011601D01*
X014583Y011627D01*
X014508Y011665D01*
X014441Y011714D01*
X014381Y011773D01*
X014332Y011841D01*
X014294Y011916D01*
X014268Y011995D01*
X014255Y012078D01*
X014255Y012082D01*
X015102Y012082D01*
X015178Y012082D02*
X015178Y011588D01*
X015534Y011588D01*
X015617Y011601D01*
X015697Y011627D01*
X015772Y011665D01*
X015839Y011714D01*
X015899Y011773D01*
X015948Y011841D01*
X015986Y011916D01*
X016012Y011995D01*
X016025Y012078D01*
X016025Y012082D01*
X015178Y012082D01*
X015178Y012146D02*
X017388Y012146D01*
X017077Y011988D02*
X016009Y011988D01*
X015939Y011829D02*
X016918Y011829D01*
X016837Y011671D02*
X015780Y011671D01*
X015178Y011671D02*
X015102Y011671D01*
X015102Y011829D02*
X015178Y011829D01*
X015178Y011988D02*
X015102Y011988D01*
X015102Y012305D02*
X015178Y012305D01*
X015178Y012463D02*
X015102Y012463D01*
X015102Y012622D02*
X015178Y012622D01*
X014271Y011988D02*
X014100Y011988D01*
X014100Y011829D02*
X014341Y011829D01*
X014500Y011671D02*
X014100Y011671D01*
X014100Y011512D02*
X016772Y011512D01*
X016765Y011354D02*
X014100Y011354D01*
X014100Y011195D02*
X016765Y011195D01*
X016818Y011037D02*
X014100Y011037D01*
X014100Y010878D02*
X016883Y010878D01*
X017030Y010720D02*
X014100Y010720D01*
X014100Y009610D02*
X015390Y009610D01*
X015389Y009610D02*
X015312Y009570D01*
X015242Y009520D01*
X015180Y009458D01*
X015130Y009388D01*
X015090Y009311D01*
X015064Y009229D01*
X015050Y009143D01*
X015050Y009109D01*
X015591Y009109D01*
X015591Y009650D01*
X015557Y009650D01*
X015471Y009636D01*
X015389Y009610D01*
X015591Y009610D02*
X015609Y009610D01*
X015609Y009650D02*
X015643Y009650D01*
X015729Y009636D01*
X015811Y009610D01*
X015888Y009570D01*
X015958Y009520D01*
X016020Y009458D01*
X016070Y009388D01*
X016110Y009311D01*
X016136Y009229D01*
X016150Y009143D01*
X016150Y009109D01*
X015609Y009109D01*
X015609Y009091D01*
X016150Y009091D01*
X016150Y009057D01*
X016136Y008971D01*
X016110Y008889D01*
X016070Y008812D01*
X016020Y008742D01*
X015958Y008680D01*
X015888Y008630D01*
X015811Y008590D01*
X015729Y008564D01*
X015643Y008550D01*
X015609Y008550D01*
X015609Y009091D01*
X015591Y009091D01*
X015591Y008550D01*
X015557Y008550D01*
X015471Y008564D01*
X015389Y008590D01*
X015312Y008630D01*
X015242Y008680D01*
X015180Y008742D01*
X015130Y008812D01*
X015090Y008889D01*
X015064Y008971D01*
X015050Y009057D01*
X015050Y009091D01*
X015591Y009091D01*
X015591Y009109D01*
X015609Y009109D01*
X015609Y009650D01*
X015591Y009452D02*
X015609Y009452D01*
X015609Y009293D02*
X015591Y009293D01*
X015591Y009135D02*
X015609Y009135D01*
X015609Y008976D02*
X015591Y008976D01*
X015591Y008818D02*
X015609Y008818D01*
X015609Y008659D02*
X015591Y008659D01*
X015929Y008659D02*
X019178Y008659D01*
X019057Y008818D02*
X016073Y008818D01*
X016137Y008976D02*
X018991Y008976D01*
X018990Y009135D02*
X016150Y009135D01*
X016116Y009293D02*
X019020Y009293D01*
X019089Y009452D02*
X016024Y009452D01*
X015810Y009610D02*
X019247Y009610D01*
X019600Y009100D02*
X021100Y009100D01*
X021100Y008659D02*
X020022Y008659D01*
X019747Y008501D02*
X021100Y008501D01*
X021100Y008342D02*
X014100Y008342D01*
X014100Y008184D02*
X021100Y008184D01*
X021100Y008025D02*
X014100Y008025D01*
X014100Y007867D02*
X021100Y007867D01*
X021100Y007708D02*
X014100Y007708D01*
X014100Y007550D02*
X017099Y007550D01*
X017127Y007578D02*
X016892Y007343D01*
X016765Y007036D01*
X016765Y006704D01*
X016891Y006400D01*
X016001Y006400D01*
X015995Y006416D01*
X015828Y006582D01*
X015610Y006672D01*
X014670Y006672D01*
X014452Y006582D01*
X014285Y006416D01*
X014195Y006198D01*
X014195Y005962D01*
X014285Y005744D01*
X014452Y005578D01*
X014670Y005488D01*
X015610Y005488D01*
X015828Y005578D01*
X015995Y005744D01*
X016001Y005760D01*
X019199Y005760D01*
X019205Y005744D01*
X019372Y005578D01*
X019590Y005488D01*
X020530Y005488D01*
X020748Y005578D01*
X020915Y005744D01*
X021005Y005962D01*
X021005Y006198D01*
X020915Y006416D01*
X020748Y006582D01*
X020530Y006672D01*
X019590Y006672D01*
X019372Y006582D01*
X019205Y006416D01*
X019199Y006400D01*
X018309Y006400D01*
X018435Y006704D01*
X018435Y007036D01*
X018308Y007343D01*
X018073Y007578D01*
X017766Y007705D01*
X017434Y007705D01*
X017127Y007578D01*
X016940Y007391D02*
X014100Y007391D01*
X014100Y007233D02*
X016846Y007233D01*
X016781Y007074D02*
X014100Y007074D01*
X014100Y006916D02*
X016765Y006916D01*
X016765Y006757D02*
X014100Y006757D01*
X014100Y006599D02*
X014491Y006599D01*
X014310Y006440D02*
X014100Y006440D01*
X014100Y006282D02*
X014230Y006282D01*
X014195Y006123D02*
X014100Y006123D01*
X014100Y005965D02*
X014195Y005965D01*
X014260Y005806D02*
X014100Y005806D01*
X014100Y005648D02*
X014382Y005648D01*
X014100Y005489D02*
X014666Y005489D01*
X014100Y005331D02*
X021100Y005331D01*
X021100Y005489D02*
X020534Y005489D01*
X020818Y005648D02*
X021100Y005648D01*
X021100Y005806D02*
X020940Y005806D01*
X021005Y005965D02*
X021100Y005965D01*
X021100Y006123D02*
X021005Y006123D01*
X020970Y006282D02*
X021100Y006282D01*
X021100Y006440D02*
X020890Y006440D01*
X020709Y006599D02*
X021100Y006599D01*
X021100Y006757D02*
X018435Y006757D01*
X018435Y006916D02*
X021100Y006916D01*
X021100Y007074D02*
X018419Y007074D01*
X018354Y007233D02*
X021100Y007233D01*
X021100Y007391D02*
X018260Y007391D01*
X018101Y007550D02*
X021100Y007550D01*
X020060Y006080D02*
X015140Y006080D01*
X015614Y005489D02*
X019586Y005489D01*
X019302Y005648D02*
X015898Y005648D01*
X015970Y006440D02*
X016874Y006440D01*
X016809Y006599D02*
X015789Y006599D01*
X014100Y005172D02*
X021100Y005172D01*
X021100Y005014D02*
X014100Y005014D01*
X014100Y004855D02*
X021100Y004855D01*
X021100Y004697D02*
X014100Y004697D01*
X014100Y004538D02*
X014457Y004538D01*
X014441Y004526D02*
X014381Y004467D01*
X014332Y004399D01*
X014294Y004324D01*
X014268Y004245D01*
X014255Y004162D01*
X014255Y004158D01*
X015102Y004158D01*
X015102Y004652D01*
X014746Y004652D01*
X014663Y004639D01*
X014583Y004613D01*
X014508Y004575D01*
X014441Y004526D01*
X014322Y004380D02*
X014100Y004380D01*
X014100Y004221D02*
X014264Y004221D01*
X014255Y004082D02*
X014255Y004078D01*
X014268Y003995D01*
X014294Y003916D01*
X014332Y003841D01*
X014381Y003773D01*
X014441Y003714D01*
X014508Y003665D01*
X014583Y003627D01*
X014663Y003601D01*
X014746Y003588D01*
X015102Y003588D01*
X015102Y004082D01*
X015178Y004082D01*
X015178Y004158D01*
X015102Y004158D01*
X015102Y004082D01*
X014255Y004082D01*
X014257Y004063D02*
X014100Y004063D01*
X014100Y003904D02*
X014300Y003904D01*
X014409Y003746D02*
X014100Y003746D01*
X014100Y003587D02*
X016803Y003587D01*
X016765Y003496D02*
X016892Y003803D01*
X017127Y004038D01*
X017434Y004165D01*
X017766Y004165D01*
X018073Y004038D01*
X018308Y003803D01*
X018435Y003496D01*
X018435Y003164D01*
X018308Y002857D01*
X018073Y002622D01*
X017766Y002495D01*
X017434Y002495D01*
X017127Y002622D01*
X016892Y002857D01*
X016765Y003164D01*
X016765Y003496D01*
X016765Y003429D02*
X014100Y003429D01*
X014100Y003270D02*
X016765Y003270D01*
X016787Y003112D02*
X014100Y003112D01*
X014100Y002953D02*
X016852Y002953D01*
X016955Y002795D02*
X014100Y002795D01*
X014100Y002636D02*
X017113Y002636D01*
X018087Y002636D02*
X021100Y002636D01*
X021100Y002478D02*
X014100Y002478D01*
X014100Y002319D02*
X021100Y002319D01*
X021100Y002161D02*
X019841Y002161D01*
X020061Y002002D02*
X021049Y002002D01*
X021100Y001600D02*
X022100Y002600D01*
X022100Y005100D01*
X021100Y004538D02*
X020743Y004538D01*
X020759Y004526D02*
X020692Y004575D01*
X020617Y004613D01*
X020537Y004639D01*
X020454Y004652D01*
X020098Y004652D01*
X020098Y004158D01*
X020022Y004158D01*
X020022Y004652D01*
X019666Y004652D01*
X019583Y004639D01*
X019503Y004613D01*
X019428Y004575D01*
X019361Y004526D01*
X019301Y004467D01*
X019252Y004399D01*
X019214Y004324D01*
X019188Y004245D01*
X019175Y004162D01*
X019175Y004158D01*
X020022Y004158D01*
X020022Y004082D01*
X020098Y004082D01*
X020098Y004158D01*
X020945Y004158D01*
X020945Y004162D01*
X020932Y004245D01*
X020906Y004324D01*
X020868Y004399D01*
X020819Y004467D01*
X020759Y004526D01*
X020878Y004380D02*
X021100Y004380D01*
X021100Y004221D02*
X020936Y004221D01*
X020945Y004082D02*
X020098Y004082D01*
X020098Y003588D01*
X020454Y003588D01*
X020537Y003601D01*
X020617Y003627D01*
X020692Y003665D01*
X020759Y003714D01*
X020819Y003773D01*
X020868Y003841D01*
X020906Y003916D01*
X020932Y003995D01*
X020945Y004078D01*
X020945Y004082D01*
X020943Y004063D02*
X021100Y004063D01*
X021100Y003904D02*
X020900Y003904D01*
X020791Y003746D02*
X021100Y003746D01*
X021100Y003587D02*
X018397Y003587D01*
X018435Y003429D02*
X021100Y003429D01*
X021100Y003270D02*
X018435Y003270D01*
X018413Y003112D02*
X021100Y003112D01*
X021100Y002953D02*
X018348Y002953D01*
X018245Y002795D02*
X021100Y002795D01*
X020022Y003588D02*
X020022Y004082D01*
X019175Y004082D01*
X019175Y004078D01*
X019188Y003995D01*
X019214Y003916D01*
X019252Y003841D01*
X019301Y003773D01*
X019361Y003714D01*
X019428Y003665D01*
X019503Y003627D01*
X019583Y003601D01*
X019666Y003588D01*
X020022Y003588D01*
X020022Y003746D02*
X020098Y003746D01*
X020098Y003904D02*
X020022Y003904D01*
X020022Y004063D02*
X020098Y004063D01*
X020098Y004221D02*
X020022Y004221D01*
X020022Y004380D02*
X020098Y004380D01*
X020098Y004538D02*
X020022Y004538D01*
X019377Y004538D02*
X015823Y004538D01*
X015839Y004526D02*
X015772Y004575D01*
X015697Y004613D01*
X015617Y004639D01*
X015534Y004652D01*
X015178Y004652D01*
X015178Y004158D01*
X016025Y004158D01*
X016025Y004162D01*
X016012Y004245D01*
X015986Y004324D01*
X015948Y004399D01*
X015899Y004467D01*
X015839Y004526D01*
X015958Y004380D02*
X019242Y004380D01*
X019184Y004221D02*
X016016Y004221D01*
X016025Y004082D02*
X015178Y004082D01*
X015178Y003588D01*
X015534Y003588D01*
X015617Y003601D01*
X015697Y003627D01*
X015772Y003665D01*
X015839Y003714D01*
X015899Y003773D01*
X015948Y003841D01*
X015986Y003916D01*
X016012Y003995D01*
X016025Y004078D01*
X016025Y004082D01*
X016023Y004063D02*
X017186Y004063D01*
X016993Y003904D02*
X015980Y003904D01*
X015871Y003746D02*
X016868Y003746D01*
X018014Y004063D02*
X019177Y004063D01*
X019220Y003904D02*
X018207Y003904D01*
X018332Y003746D02*
X019329Y003746D01*
X019359Y002161D02*
X014100Y002161D01*
X014198Y002002D02*
X015224Y002002D01*
X015242Y002020D02*
X015180Y001958D01*
X015130Y001888D01*
X015090Y001811D01*
X015064Y001729D01*
X015050Y001643D01*
X015050Y001609D01*
X015591Y001609D01*
X015591Y002150D01*
X015557Y002150D01*
X015471Y002136D01*
X015389Y002110D01*
X015312Y002070D01*
X015242Y002020D01*
X015100Y002100D02*
X015600Y001600D01*
X015609Y001609D02*
X016150Y001609D01*
X016150Y001643D01*
X016136Y001729D01*
X016110Y001811D01*
X016070Y001888D01*
X016020Y001958D01*
X015958Y002020D01*
X015888Y002070D01*
X015811Y002110D01*
X015729Y002136D01*
X015643Y002150D01*
X015609Y002150D01*
X015609Y001609D01*
X015609Y001591D01*
X016150Y001591D01*
X016150Y001557D01*
X016136Y001471D01*
X016110Y001389D01*
X016070Y001312D01*
X016020Y001242D01*
X015958Y001180D01*
X015888Y001130D01*
X015811Y001090D01*
X015729Y001064D01*
X015643Y001050D01*
X015609Y001050D01*
X015609Y001591D01*
X015591Y001591D01*
X015591Y001050D01*
X015557Y001050D01*
X015471Y001064D01*
X015389Y001090D01*
X015312Y001130D01*
X015242Y001180D01*
X015180Y001242D01*
X015130Y001312D01*
X015090Y001389D01*
X015064Y001471D01*
X015050Y001557D01*
X015050Y001591D01*
X015591Y001591D01*
X015591Y001609D01*
X015609Y001609D01*
X015609Y001685D02*
X015591Y001685D01*
X015591Y001527D02*
X015609Y001527D01*
X015609Y001368D02*
X015591Y001368D01*
X015591Y001210D02*
X015609Y001210D01*
X015609Y001051D02*
X015591Y001051D01*
X015550Y001051D02*
X015149Y001051D01*
X015213Y001210D02*
X014990Y001210D01*
X015101Y001368D02*
X014832Y001368D01*
X014673Y001527D02*
X015055Y001527D01*
X015057Y001685D02*
X014515Y001685D01*
X014356Y001844D02*
X015107Y001844D01*
X015591Y001844D02*
X015609Y001844D01*
X015609Y002002D02*
X015591Y002002D01*
X015976Y002002D02*
X019139Y002002D01*
X019041Y001844D02*
X016093Y001844D01*
X016143Y001685D02*
X018990Y001685D01*
X018990Y001527D02*
X016145Y001527D01*
X016099Y001368D02*
X019036Y001368D01*
X019128Y001210D02*
X015987Y001210D01*
X015650Y001051D02*
X019331Y001051D01*
X019869Y001051D02*
X020551Y001051D01*
X020393Y000893D02*
X015307Y000893D01*
X015466Y000734D02*
X020234Y000734D01*
X020072Y001210D02*
X020710Y001210D01*
X021100Y001600D02*
X019600Y001600D01*
X015178Y003746D02*
X015102Y003746D01*
X015102Y003904D02*
X015178Y003904D01*
X015178Y004063D02*
X015102Y004063D01*
X015100Y004080D02*
X015140Y004120D01*
X015102Y004221D02*
X015178Y004221D01*
X015178Y004380D02*
X015102Y004380D01*
X015102Y004538D02*
X015178Y004538D01*
X018326Y006440D02*
X019230Y006440D01*
X019411Y006599D02*
X018391Y006599D01*
X019453Y008501D02*
X014100Y008501D01*
X014100Y008659D02*
X015271Y008659D01*
X015127Y008818D02*
X014100Y008818D01*
X014100Y008976D02*
X015063Y008976D01*
X015050Y009135D02*
X014100Y009135D01*
X014100Y009293D02*
X015084Y009293D01*
X015176Y009452D02*
X014100Y009452D01*
X018363Y011671D02*
X019420Y011671D01*
X019261Y011829D02*
X018282Y011829D01*
X020022Y011829D02*
X020098Y011829D01*
X020098Y011671D02*
X020022Y011671D01*
X020022Y011988D02*
X020098Y011988D01*
X020098Y012305D02*
X020022Y012305D01*
X020022Y012463D02*
X020098Y012463D01*
X020098Y012622D02*
X020022Y012622D01*
X020592Y012622D02*
X021100Y012622D01*
X021100Y012463D02*
X020821Y012463D01*
X020912Y012305D02*
X021100Y012305D01*
X021100Y013256D02*
X014100Y013256D01*
X014100Y013414D02*
X021100Y013414D01*
X019313Y014524D02*
X018360Y014524D01*
X019908Y015792D02*
X015420Y015792D01*
X015420Y015950D02*
X019750Y015950D01*
X019591Y016109D02*
X015420Y016109D01*
X015377Y016267D02*
X019433Y016267D01*
X019274Y016426D02*
X015227Y016426D01*
X015069Y016584D02*
X019116Y016584D01*
X019100Y016743D02*
X014910Y016743D01*
X014709Y016901D02*
X019100Y016901D01*
X019100Y017060D02*
X018272Y017060D01*
X018517Y017218D02*
X019100Y017218D01*
X019100Y017377D02*
X018619Y017377D01*
X018665Y017535D02*
X019100Y017535D01*
X019100Y017694D02*
X018665Y017694D01*
X018607Y017852D02*
X019100Y017852D01*
X019100Y018011D02*
X018489Y018011D01*
X018468Y018169D02*
X019031Y018169D01*
X018872Y018328D02*
X018599Y018328D01*
X018664Y018486D02*
X018714Y018486D01*
X017879Y019120D02*
X017321Y019120D01*
X017537Y018962D02*
X017663Y018962D01*
X017921Y019279D02*
X004779Y019279D01*
X004937Y019437D02*
X017763Y019437D01*
X017604Y019596D02*
X005096Y019596D01*
X004620Y019120D02*
X005879Y019120D01*
X005663Y018962D02*
X004462Y018962D01*
X004303Y018803D02*
X005573Y018803D01*
X005535Y018645D02*
X004145Y018645D01*
X003986Y018486D02*
X005536Y018486D01*
X005601Y018328D02*
X003828Y018328D01*
X003669Y018169D02*
X005732Y018169D01*
X006537Y018962D02*
X006663Y018962D01*
X006879Y019120D02*
X006321Y019120D01*
X007321Y019120D02*
X007879Y019120D01*
X007663Y018962D02*
X007537Y018962D01*
X008321Y019120D02*
X008879Y019120D01*
X008663Y018962D02*
X008537Y018962D01*
X009321Y019120D02*
X009879Y019120D01*
X009663Y018962D02*
X009537Y018962D01*
X010321Y019120D02*
X010879Y019120D01*
X010663Y018962D02*
X010537Y018962D01*
X011321Y019120D02*
X011879Y019120D01*
X011663Y018962D02*
X011537Y018962D01*
X012321Y019120D02*
X012879Y019120D01*
X012663Y018962D02*
X012537Y018962D01*
X013321Y019120D02*
X013879Y019120D01*
X013663Y018962D02*
X013537Y018962D01*
X014321Y019120D02*
X014879Y019120D01*
X014663Y018962D02*
X014537Y018962D01*
X015321Y019120D02*
X015879Y019120D01*
X015663Y018962D02*
X015537Y018962D01*
X016321Y019120D02*
X016879Y019120D01*
X016663Y018962D02*
X016537Y018962D01*
X016120Y017535D02*
X016080Y017535D01*
X016080Y017377D02*
X016120Y017377D01*
X016120Y017218D02*
X016080Y017218D01*
X016432Y017218D02*
X016683Y017218D01*
X016581Y017377D02*
X016553Y017377D01*
X016928Y017060D02*
X015272Y017060D01*
X015517Y017218D02*
X015768Y017218D01*
X015647Y017377D02*
X015619Y017377D01*
X014928Y017060D02*
X014272Y017060D01*
X014517Y017218D02*
X014683Y017218D01*
X013928Y017060D02*
X013272Y017060D01*
X013517Y017218D02*
X013683Y017218D01*
X012928Y017060D02*
X012272Y017060D01*
X012517Y017218D02*
X012683Y017218D01*
X011928Y017060D02*
X011272Y017060D01*
X011517Y017218D02*
X011683Y017218D01*
X010928Y017060D02*
X010272Y017060D01*
X010517Y017218D02*
X010683Y017218D01*
X009928Y017060D02*
X009272Y017060D01*
X009517Y017218D02*
X009683Y017218D01*
X013225Y015475D02*
X014780Y015475D01*
X014780Y015316D02*
X013384Y015316D01*
X013542Y015158D02*
X014780Y015158D01*
X014780Y014999D02*
X013701Y014999D01*
X013859Y014841D02*
X014780Y014841D01*
X014780Y014682D02*
X014018Y014682D01*
X014100Y014524D02*
X014393Y014524D01*
X014264Y014365D02*
X014100Y014365D01*
X014100Y014207D02*
X014199Y014207D01*
X014195Y014048D02*
X014100Y014048D01*
X014100Y013890D02*
X014225Y013890D01*
X014299Y013731D02*
X014100Y013731D01*
X014100Y013573D02*
X014464Y013573D01*
X017272Y017060D02*
X017928Y017060D01*
X017683Y017218D02*
X017517Y017218D01*
X004822Y016426D02*
X003426Y016426D01*
X003584Y016584D02*
X004663Y016584D01*
X004505Y016743D02*
X003600Y016743D01*
X003600Y016901D02*
X004346Y016901D01*
X004188Y017060D02*
X003600Y017060D01*
X003600Y017218D02*
X003746Y017218D01*
X003662Y017377D02*
X003600Y017377D01*
X003600Y017535D02*
X003662Y017535D01*
X003662Y017694D02*
X003600Y017694D01*
X003600Y017852D02*
X003664Y017852D01*
X003600Y018011D02*
X003788Y018011D01*
X004760Y015633D02*
X002633Y015633D01*
X002475Y015475D02*
X004524Y015475D01*
X004381Y015316D02*
X002316Y015316D01*
X002158Y015158D02*
X004315Y015158D01*
X004265Y014999D02*
X001999Y014999D01*
X001841Y014841D02*
X004265Y014841D01*
X002678Y004538D02*
X002602Y004538D01*
X002602Y004380D02*
X002678Y004380D01*
X002678Y004221D02*
X002602Y004221D01*
X002640Y004120D02*
X002600Y004080D01*
X002600Y001600D01*
X003100Y001600D01*
X003091Y001527D02*
X003109Y001527D01*
X003109Y001685D02*
X003091Y001685D01*
X003091Y001844D02*
X003109Y001844D01*
X003109Y002002D02*
X003091Y002002D01*
X002724Y002002D02*
X001679Y002002D01*
X001870Y001844D02*
X002607Y001844D01*
X002557Y001685D02*
X001998Y001685D01*
X002090Y001527D02*
X002555Y001527D01*
X002601Y001368D02*
X002137Y001368D01*
X002171Y001210D02*
X002713Y001210D01*
X003091Y001210D02*
X003109Y001210D01*
X003109Y001368D02*
X003091Y001368D01*
X002602Y003588D02*
X002246Y003588D01*
X002163Y003601D01*
X002083Y003627D01*
X002008Y003665D01*
X001941Y003714D01*
X001881Y003773D01*
X001832Y003841D01*
X001794Y003916D01*
X001768Y003995D01*
X001755Y004078D01*
X001755Y004082D01*
X002602Y004082D01*
X002602Y003588D01*
X002602Y003746D02*
X002678Y003746D01*
X002678Y003904D02*
X002602Y003904D01*
X002602Y004063D02*
X002678Y004063D01*
X001909Y003746D02*
X001600Y003746D01*
X001600Y003904D02*
X001800Y003904D01*
X001757Y004063D02*
X001600Y004063D01*
X001600Y004221D02*
X001764Y004221D01*
X001822Y004380D02*
X001600Y004380D01*
X001600Y004538D02*
X001957Y004538D01*
D15*
X014100Y016100D03*
X004100Y017600D03*
D16*
X015100Y014100D02*
X015140Y014080D01*
D17*
X009600Y007100D03*
D18*
X009024Y002100D02*
X014100Y002100D01*
X015600Y000600D01*
X006600Y000600D01*
X007010Y001010D01*
X007217Y001010D01*
X007434Y001100D01*
X007600Y001266D01*
X007614Y001300D01*
X008160Y001300D01*
X008270Y001346D01*
X009024Y002100D01*
X008920Y001996D02*
X014204Y001996D01*
X014322Y001878D02*
X008802Y001878D01*
X008683Y001759D02*
X014441Y001759D01*
X014559Y001641D02*
X008565Y001641D01*
X008446Y001522D02*
X014678Y001522D01*
X014796Y001404D02*
X008328Y001404D01*
X007976Y001900D02*
X007900Y001900D01*
X008100Y002100D01*
X008176Y002100D01*
X007976Y001900D01*
X007996Y001996D02*
X008072Y001996D01*
X007608Y001285D02*
X014915Y001285D01*
X015033Y001167D02*
X007501Y001167D01*
X007309Y001048D02*
X015152Y001048D01*
X015270Y000930D02*
X006930Y000930D01*
X006811Y000811D02*
X015389Y000811D01*
X015507Y000693D02*
X006693Y000693D01*
M02*
