G75*
%MOIN*%
%OFA0B0*%
%FSLAX24Y24*%
%IPPOS*%
%LPD*%
%AMOC8*
5,1,8,0,0,1.08239X$1,22.5*
%
%ADD10C,0.0000*%
%ADD11C,0.0320*%
D10*
X000600Y020100D02*
X000602Y020144D01*
X000608Y020187D01*
X000617Y020229D01*
X000630Y020271D01*
X000647Y020311D01*
X000667Y020350D01*
X000690Y020387D01*
X000717Y020421D01*
X000746Y020454D01*
X000779Y020483D01*
X000813Y020510D01*
X000850Y020533D01*
X000889Y020553D01*
X000929Y020570D01*
X000971Y020583D01*
X001013Y020592D01*
X001056Y020598D01*
X001100Y020600D01*
D11*
X000759Y000737D02*
X023941Y000737D01*
X023921Y000717D02*
X023850Y000667D01*
X023771Y000630D01*
X023687Y000608D01*
X023600Y000600D01*
X001100Y000600D01*
X001013Y000608D01*
X000929Y000630D01*
X000850Y000667D01*
X000779Y000717D01*
X000717Y000779D01*
X000667Y000850D01*
X000630Y000929D01*
X000608Y001013D01*
X000600Y001100D01*
X000600Y020100D01*
X000608Y020187D01*
X000630Y020271D01*
X000667Y020350D01*
X000717Y020421D01*
X000779Y020483D01*
X000850Y020533D01*
X000929Y020570D01*
X001013Y020592D01*
X001100Y020600D01*
X023600Y020600D01*
X023687Y020592D01*
X023771Y020570D01*
X023850Y020533D01*
X023921Y020483D01*
X023983Y020421D01*
X024033Y020350D01*
X024070Y020271D01*
X024092Y020187D01*
X024100Y020100D01*
X024100Y001100D01*
X024092Y001013D01*
X024070Y000929D01*
X024033Y000850D01*
X023983Y000779D01*
X023921Y000717D01*
X024096Y001056D02*
X000604Y001056D01*
X000600Y001374D02*
X024100Y001374D01*
X024100Y001693D02*
X000600Y001693D01*
X000600Y002011D02*
X024100Y002011D01*
X024100Y002330D02*
X000600Y002330D01*
X000600Y002648D02*
X024100Y002648D01*
X024100Y002967D02*
X000600Y002967D01*
X000600Y003285D02*
X024100Y003285D01*
X024100Y003604D02*
X000600Y003604D01*
X000600Y003922D02*
X024100Y003922D01*
X024100Y004241D02*
X000600Y004241D01*
X000600Y004559D02*
X024100Y004559D01*
X024100Y004878D02*
X000600Y004878D01*
X000600Y005196D02*
X024100Y005196D01*
X024100Y005515D02*
X000600Y005515D01*
X000600Y005833D02*
X024100Y005833D01*
X024100Y006152D02*
X000600Y006152D01*
X000600Y006470D02*
X024100Y006470D01*
X024100Y006789D02*
X000600Y006789D01*
X000600Y007107D02*
X024100Y007107D01*
X024100Y007426D02*
X000600Y007426D01*
X000600Y007744D02*
X024100Y007744D01*
X024100Y008063D02*
X000600Y008063D01*
X000600Y008381D02*
X024100Y008381D01*
X024100Y008700D02*
X000600Y008700D01*
X000600Y009018D02*
X024100Y009018D01*
X024100Y009337D02*
X000600Y009337D01*
X000600Y009655D02*
X024100Y009655D01*
X024100Y009974D02*
X000600Y009974D01*
X000600Y010292D02*
X024100Y010292D01*
X024100Y010611D02*
X000600Y010611D01*
X000600Y010929D02*
X024100Y010929D01*
X024100Y011248D02*
X000600Y011248D01*
X000600Y011566D02*
X024100Y011566D01*
X024100Y011885D02*
X000600Y011885D01*
X000600Y012203D02*
X024100Y012203D01*
X024100Y012522D02*
X000600Y012522D01*
X000600Y012840D02*
X024100Y012840D01*
X024100Y013159D02*
X000600Y013159D01*
X000600Y013477D02*
X024100Y013477D01*
X024100Y013796D02*
X000600Y013796D01*
X000600Y014114D02*
X024100Y014114D01*
X024100Y014433D02*
X000600Y014433D01*
X000600Y014751D02*
X024100Y014751D01*
X024100Y015070D02*
X000600Y015070D01*
X000600Y015388D02*
X024100Y015388D01*
X024100Y015707D02*
X000600Y015707D01*
X000600Y016025D02*
X024100Y016025D01*
X024100Y016344D02*
X000600Y016344D01*
X000600Y016662D02*
X024100Y016662D01*
X024100Y016981D02*
X000600Y016981D01*
X000600Y017299D02*
X024100Y017299D01*
X024100Y017618D02*
X000600Y017618D01*
X000600Y017936D02*
X024100Y017936D01*
X024100Y018255D02*
X000600Y018255D01*
X000600Y018573D02*
X024100Y018573D01*
X024100Y018892D02*
X000600Y018892D01*
X000600Y019210D02*
X024100Y019210D01*
X024100Y019529D02*
X000600Y019529D01*
X000600Y019847D02*
X024100Y019847D01*
X024094Y020166D02*
X000606Y020166D01*
X000780Y020484D02*
X023920Y020484D01*
M02*
