G75*
%MOIN*%
%OFA0B0*%
%FSLAX24Y24*%
%IPPOS*%
%LPD*%
%AMOC8*
5,1,8,0,0,1.08239X$1,22.5*
%
%ADD10C,0.0000*%
%ADD11C,0.0650*%
%ADD12OC8,0.0660*%
%ADD13C,0.0705*%
%ADD14C,0.0740*%
%ADD15C,0.0160*%
%ADD16R,0.0396X0.0396*%
%ADD17R,0.0436X0.0436*%
D10*
X001100Y000100D02*
X023600Y000100D01*
X023660Y000102D01*
X023721Y000107D01*
X023780Y000116D01*
X023839Y000129D01*
X023898Y000145D01*
X023955Y000165D01*
X024010Y000188D01*
X024065Y000215D01*
X024117Y000244D01*
X024168Y000277D01*
X024217Y000313D01*
X024263Y000351D01*
X024307Y000393D01*
X024349Y000437D01*
X024387Y000483D01*
X024423Y000532D01*
X024456Y000583D01*
X024485Y000635D01*
X024512Y000690D01*
X024535Y000745D01*
X024555Y000802D01*
X024571Y000861D01*
X024584Y000920D01*
X024593Y000979D01*
X024598Y001040D01*
X024600Y001100D01*
X024600Y020100D01*
X024598Y020160D01*
X024593Y020221D01*
X024584Y020280D01*
X024571Y020339D01*
X024555Y020398D01*
X024535Y020455D01*
X024512Y020510D01*
X024485Y020565D01*
X024456Y020617D01*
X024423Y020668D01*
X024387Y020717D01*
X024349Y020763D01*
X024307Y020807D01*
X024263Y020849D01*
X024217Y020887D01*
X024168Y020923D01*
X024117Y020956D01*
X024065Y020985D01*
X024010Y021012D01*
X023955Y021035D01*
X023898Y021055D01*
X023839Y021071D01*
X023780Y021084D01*
X023721Y021093D01*
X023660Y021098D01*
X023600Y021100D01*
X001100Y021100D01*
X001040Y021098D01*
X000979Y021093D01*
X000920Y021084D01*
X000861Y021071D01*
X000802Y021055D01*
X000745Y021035D01*
X000690Y021012D01*
X000635Y020985D01*
X000583Y020956D01*
X000532Y020923D01*
X000483Y020887D01*
X000437Y020849D01*
X000393Y020807D01*
X000351Y020763D01*
X000313Y020717D01*
X000277Y020668D01*
X000244Y020617D01*
X000215Y020565D01*
X000188Y020510D01*
X000165Y020455D01*
X000145Y020398D01*
X000129Y020339D01*
X000116Y020280D01*
X000107Y020221D01*
X000102Y020160D01*
X000100Y020100D01*
X000100Y001100D01*
X000102Y001040D01*
X000107Y000979D01*
X000116Y000920D01*
X000129Y000861D01*
X000145Y000802D01*
X000165Y000745D01*
X000188Y000690D01*
X000215Y000635D01*
X000244Y000583D01*
X000277Y000532D01*
X000313Y000483D01*
X000351Y000437D01*
X000393Y000393D01*
X000437Y000351D01*
X000483Y000313D01*
X000532Y000277D01*
X000583Y000244D01*
X000635Y000215D01*
X000690Y000188D01*
X000745Y000165D01*
X000802Y000145D01*
X000861Y000129D01*
X000920Y000116D01*
X000979Y000107D01*
X001040Y000102D01*
X001100Y000100D01*
X000509Y001100D02*
X000511Y001148D01*
X000517Y001196D01*
X000527Y001243D01*
X000540Y001289D01*
X000558Y001334D01*
X000578Y001378D01*
X000603Y001420D01*
X000631Y001459D01*
X000661Y001496D01*
X000695Y001530D01*
X000732Y001562D01*
X000770Y001591D01*
X000811Y001616D01*
X000854Y001638D01*
X000899Y001656D01*
X000945Y001670D01*
X000992Y001681D01*
X001040Y001688D01*
X001088Y001691D01*
X001136Y001690D01*
X001184Y001685D01*
X001232Y001676D01*
X001278Y001664D01*
X001323Y001647D01*
X001367Y001627D01*
X001409Y001604D01*
X001449Y001577D01*
X001487Y001547D01*
X001522Y001514D01*
X001554Y001478D01*
X001584Y001440D01*
X001610Y001399D01*
X001632Y001356D01*
X001652Y001312D01*
X001667Y001267D01*
X001679Y001220D01*
X001687Y001172D01*
X001691Y001124D01*
X001691Y001076D01*
X001687Y001028D01*
X001679Y000980D01*
X001667Y000933D01*
X001652Y000888D01*
X001632Y000844D01*
X001610Y000801D01*
X001584Y000760D01*
X001554Y000722D01*
X001522Y000686D01*
X001487Y000653D01*
X001449Y000623D01*
X001409Y000596D01*
X001367Y000573D01*
X001323Y000553D01*
X001278Y000536D01*
X001232Y000524D01*
X001184Y000515D01*
X001136Y000510D01*
X001088Y000509D01*
X001040Y000512D01*
X000992Y000519D01*
X000945Y000530D01*
X000899Y000544D01*
X000854Y000562D01*
X000811Y000584D01*
X000770Y000609D01*
X000732Y000638D01*
X000695Y000670D01*
X000661Y000704D01*
X000631Y000741D01*
X000603Y000780D01*
X000578Y000822D01*
X000558Y000866D01*
X000540Y000911D01*
X000527Y000957D01*
X000517Y001004D01*
X000511Y001052D01*
X000509Y001100D01*
X004745Y003330D02*
X004747Y003367D01*
X004753Y003404D01*
X004762Y003440D01*
X004776Y003474D01*
X004793Y003507D01*
X004813Y003539D01*
X004836Y003568D01*
X004862Y003594D01*
X004891Y003617D01*
X004922Y003637D01*
X004956Y003654D01*
X004990Y003668D01*
X005026Y003677D01*
X005063Y003683D01*
X005100Y003685D01*
X005137Y003683D01*
X005174Y003677D01*
X005210Y003668D01*
X005244Y003654D01*
X005277Y003637D01*
X005309Y003617D01*
X005338Y003594D01*
X005364Y003568D01*
X005387Y003539D01*
X005407Y003508D01*
X005424Y003474D01*
X005438Y003440D01*
X005447Y003404D01*
X005453Y003367D01*
X005455Y003330D01*
X005453Y003293D01*
X005447Y003256D01*
X005438Y003220D01*
X005424Y003186D01*
X005407Y003153D01*
X005387Y003121D01*
X005364Y003092D01*
X005338Y003066D01*
X005309Y003043D01*
X005278Y003023D01*
X005244Y003006D01*
X005210Y002992D01*
X005174Y002983D01*
X005137Y002977D01*
X005100Y002975D01*
X005063Y002977D01*
X005026Y002983D01*
X004990Y002992D01*
X004956Y003006D01*
X004923Y003023D01*
X004891Y003043D01*
X004862Y003066D01*
X004836Y003092D01*
X004813Y003121D01*
X004793Y003152D01*
X004776Y003186D01*
X004762Y003220D01*
X004753Y003256D01*
X004747Y003293D01*
X004745Y003330D01*
X004745Y006870D02*
X004747Y006907D01*
X004753Y006944D01*
X004762Y006980D01*
X004776Y007014D01*
X004793Y007047D01*
X004813Y007079D01*
X004836Y007108D01*
X004862Y007134D01*
X004891Y007157D01*
X004922Y007177D01*
X004956Y007194D01*
X004990Y007208D01*
X005026Y007217D01*
X005063Y007223D01*
X005100Y007225D01*
X005137Y007223D01*
X005174Y007217D01*
X005210Y007208D01*
X005244Y007194D01*
X005277Y007177D01*
X005309Y007157D01*
X005338Y007134D01*
X005364Y007108D01*
X005387Y007079D01*
X005407Y007048D01*
X005424Y007014D01*
X005438Y006980D01*
X005447Y006944D01*
X005453Y006907D01*
X005455Y006870D01*
X005453Y006833D01*
X005447Y006796D01*
X005438Y006760D01*
X005424Y006726D01*
X005407Y006693D01*
X005387Y006661D01*
X005364Y006632D01*
X005338Y006606D01*
X005309Y006583D01*
X005278Y006563D01*
X005244Y006546D01*
X005210Y006532D01*
X005174Y006523D01*
X005137Y006517D01*
X005100Y006515D01*
X005063Y006517D01*
X005026Y006523D01*
X004990Y006532D01*
X004956Y006546D01*
X004923Y006563D01*
X004891Y006583D01*
X004862Y006606D01*
X004836Y006632D01*
X004813Y006661D01*
X004793Y006692D01*
X004776Y006726D01*
X004762Y006760D01*
X004753Y006796D01*
X004747Y006833D01*
X004745Y006870D01*
X004745Y011330D02*
X004747Y011367D01*
X004753Y011404D01*
X004762Y011440D01*
X004776Y011474D01*
X004793Y011507D01*
X004813Y011539D01*
X004836Y011568D01*
X004862Y011594D01*
X004891Y011617D01*
X004922Y011637D01*
X004956Y011654D01*
X004990Y011668D01*
X005026Y011677D01*
X005063Y011683D01*
X005100Y011685D01*
X005137Y011683D01*
X005174Y011677D01*
X005210Y011668D01*
X005244Y011654D01*
X005277Y011637D01*
X005309Y011617D01*
X005338Y011594D01*
X005364Y011568D01*
X005387Y011539D01*
X005407Y011508D01*
X005424Y011474D01*
X005438Y011440D01*
X005447Y011404D01*
X005453Y011367D01*
X005455Y011330D01*
X005453Y011293D01*
X005447Y011256D01*
X005438Y011220D01*
X005424Y011186D01*
X005407Y011153D01*
X005387Y011121D01*
X005364Y011092D01*
X005338Y011066D01*
X005309Y011043D01*
X005278Y011023D01*
X005244Y011006D01*
X005210Y010992D01*
X005174Y010983D01*
X005137Y010977D01*
X005100Y010975D01*
X005063Y010977D01*
X005026Y010983D01*
X004990Y010992D01*
X004956Y011006D01*
X004923Y011023D01*
X004891Y011043D01*
X004862Y011066D01*
X004836Y011092D01*
X004813Y011121D01*
X004793Y011152D01*
X004776Y011186D01*
X004762Y011220D01*
X004753Y011256D01*
X004747Y011293D01*
X004745Y011330D01*
X004745Y014870D02*
X004747Y014907D01*
X004753Y014944D01*
X004762Y014980D01*
X004776Y015014D01*
X004793Y015047D01*
X004813Y015079D01*
X004836Y015108D01*
X004862Y015134D01*
X004891Y015157D01*
X004922Y015177D01*
X004956Y015194D01*
X004990Y015208D01*
X005026Y015217D01*
X005063Y015223D01*
X005100Y015225D01*
X005137Y015223D01*
X005174Y015217D01*
X005210Y015208D01*
X005244Y015194D01*
X005277Y015177D01*
X005309Y015157D01*
X005338Y015134D01*
X005364Y015108D01*
X005387Y015079D01*
X005407Y015048D01*
X005424Y015014D01*
X005438Y014980D01*
X005447Y014944D01*
X005453Y014907D01*
X005455Y014870D01*
X005453Y014833D01*
X005447Y014796D01*
X005438Y014760D01*
X005424Y014726D01*
X005407Y014693D01*
X005387Y014661D01*
X005364Y014632D01*
X005338Y014606D01*
X005309Y014583D01*
X005278Y014563D01*
X005244Y014546D01*
X005210Y014532D01*
X005174Y014523D01*
X005137Y014517D01*
X005100Y014515D01*
X005063Y014517D01*
X005026Y014523D01*
X004990Y014532D01*
X004956Y014546D01*
X004923Y014563D01*
X004891Y014583D01*
X004862Y014606D01*
X004836Y014632D01*
X004813Y014661D01*
X004793Y014692D01*
X004776Y014726D01*
X004762Y014760D01*
X004753Y014796D01*
X004747Y014833D01*
X004745Y014870D01*
X000509Y020100D02*
X000511Y020148D01*
X000517Y020196D01*
X000527Y020243D01*
X000540Y020289D01*
X000558Y020334D01*
X000578Y020378D01*
X000603Y020420D01*
X000631Y020459D01*
X000661Y020496D01*
X000695Y020530D01*
X000732Y020562D01*
X000770Y020591D01*
X000811Y020616D01*
X000854Y020638D01*
X000899Y020656D01*
X000945Y020670D01*
X000992Y020681D01*
X001040Y020688D01*
X001088Y020691D01*
X001136Y020690D01*
X001184Y020685D01*
X001232Y020676D01*
X001278Y020664D01*
X001323Y020647D01*
X001367Y020627D01*
X001409Y020604D01*
X001449Y020577D01*
X001487Y020547D01*
X001522Y020514D01*
X001554Y020478D01*
X001584Y020440D01*
X001610Y020399D01*
X001632Y020356D01*
X001652Y020312D01*
X001667Y020267D01*
X001679Y020220D01*
X001687Y020172D01*
X001691Y020124D01*
X001691Y020076D01*
X001687Y020028D01*
X001679Y019980D01*
X001667Y019933D01*
X001652Y019888D01*
X001632Y019844D01*
X001610Y019801D01*
X001584Y019760D01*
X001554Y019722D01*
X001522Y019686D01*
X001487Y019653D01*
X001449Y019623D01*
X001409Y019596D01*
X001367Y019573D01*
X001323Y019553D01*
X001278Y019536D01*
X001232Y019524D01*
X001184Y019515D01*
X001136Y019510D01*
X001088Y019509D01*
X001040Y019512D01*
X000992Y019519D01*
X000945Y019530D01*
X000899Y019544D01*
X000854Y019562D01*
X000811Y019584D01*
X000770Y019609D01*
X000732Y019638D01*
X000695Y019670D01*
X000661Y019704D01*
X000631Y019741D01*
X000603Y019780D01*
X000578Y019822D01*
X000558Y019866D01*
X000540Y019911D01*
X000527Y019957D01*
X000517Y020004D01*
X000511Y020052D01*
X000509Y020100D01*
X017245Y014870D02*
X017247Y014907D01*
X017253Y014944D01*
X017262Y014980D01*
X017276Y015014D01*
X017293Y015047D01*
X017313Y015079D01*
X017336Y015108D01*
X017362Y015134D01*
X017391Y015157D01*
X017422Y015177D01*
X017456Y015194D01*
X017490Y015208D01*
X017526Y015217D01*
X017563Y015223D01*
X017600Y015225D01*
X017637Y015223D01*
X017674Y015217D01*
X017710Y015208D01*
X017744Y015194D01*
X017777Y015177D01*
X017809Y015157D01*
X017838Y015134D01*
X017864Y015108D01*
X017887Y015079D01*
X017907Y015048D01*
X017924Y015014D01*
X017938Y014980D01*
X017947Y014944D01*
X017953Y014907D01*
X017955Y014870D01*
X017953Y014833D01*
X017947Y014796D01*
X017938Y014760D01*
X017924Y014726D01*
X017907Y014693D01*
X017887Y014661D01*
X017864Y014632D01*
X017838Y014606D01*
X017809Y014583D01*
X017778Y014563D01*
X017744Y014546D01*
X017710Y014532D01*
X017674Y014523D01*
X017637Y014517D01*
X017600Y014515D01*
X017563Y014517D01*
X017526Y014523D01*
X017490Y014532D01*
X017456Y014546D01*
X017423Y014563D01*
X017391Y014583D01*
X017362Y014606D01*
X017336Y014632D01*
X017313Y014661D01*
X017293Y014692D01*
X017276Y014726D01*
X017262Y014760D01*
X017253Y014796D01*
X017247Y014833D01*
X017245Y014870D01*
X017245Y011330D02*
X017247Y011367D01*
X017253Y011404D01*
X017262Y011440D01*
X017276Y011474D01*
X017293Y011507D01*
X017313Y011539D01*
X017336Y011568D01*
X017362Y011594D01*
X017391Y011617D01*
X017422Y011637D01*
X017456Y011654D01*
X017490Y011668D01*
X017526Y011677D01*
X017563Y011683D01*
X017600Y011685D01*
X017637Y011683D01*
X017674Y011677D01*
X017710Y011668D01*
X017744Y011654D01*
X017777Y011637D01*
X017809Y011617D01*
X017838Y011594D01*
X017864Y011568D01*
X017887Y011539D01*
X017907Y011508D01*
X017924Y011474D01*
X017938Y011440D01*
X017947Y011404D01*
X017953Y011367D01*
X017955Y011330D01*
X017953Y011293D01*
X017947Y011256D01*
X017938Y011220D01*
X017924Y011186D01*
X017907Y011153D01*
X017887Y011121D01*
X017864Y011092D01*
X017838Y011066D01*
X017809Y011043D01*
X017778Y011023D01*
X017744Y011006D01*
X017710Y010992D01*
X017674Y010983D01*
X017637Y010977D01*
X017600Y010975D01*
X017563Y010977D01*
X017526Y010983D01*
X017490Y010992D01*
X017456Y011006D01*
X017423Y011023D01*
X017391Y011043D01*
X017362Y011066D01*
X017336Y011092D01*
X017313Y011121D01*
X017293Y011152D01*
X017276Y011186D01*
X017262Y011220D01*
X017253Y011256D01*
X017247Y011293D01*
X017245Y011330D01*
X017245Y006870D02*
X017247Y006907D01*
X017253Y006944D01*
X017262Y006980D01*
X017276Y007014D01*
X017293Y007047D01*
X017313Y007079D01*
X017336Y007108D01*
X017362Y007134D01*
X017391Y007157D01*
X017422Y007177D01*
X017456Y007194D01*
X017490Y007208D01*
X017526Y007217D01*
X017563Y007223D01*
X017600Y007225D01*
X017637Y007223D01*
X017674Y007217D01*
X017710Y007208D01*
X017744Y007194D01*
X017777Y007177D01*
X017809Y007157D01*
X017838Y007134D01*
X017864Y007108D01*
X017887Y007079D01*
X017907Y007048D01*
X017924Y007014D01*
X017938Y006980D01*
X017947Y006944D01*
X017953Y006907D01*
X017955Y006870D01*
X017953Y006833D01*
X017947Y006796D01*
X017938Y006760D01*
X017924Y006726D01*
X017907Y006693D01*
X017887Y006661D01*
X017864Y006632D01*
X017838Y006606D01*
X017809Y006583D01*
X017778Y006563D01*
X017744Y006546D01*
X017710Y006532D01*
X017674Y006523D01*
X017637Y006517D01*
X017600Y006515D01*
X017563Y006517D01*
X017526Y006523D01*
X017490Y006532D01*
X017456Y006546D01*
X017423Y006563D01*
X017391Y006583D01*
X017362Y006606D01*
X017336Y006632D01*
X017313Y006661D01*
X017293Y006692D01*
X017276Y006726D01*
X017262Y006760D01*
X017253Y006796D01*
X017247Y006833D01*
X017245Y006870D01*
X017245Y003330D02*
X017247Y003367D01*
X017253Y003404D01*
X017262Y003440D01*
X017276Y003474D01*
X017293Y003507D01*
X017313Y003539D01*
X017336Y003568D01*
X017362Y003594D01*
X017391Y003617D01*
X017422Y003637D01*
X017456Y003654D01*
X017490Y003668D01*
X017526Y003677D01*
X017563Y003683D01*
X017600Y003685D01*
X017637Y003683D01*
X017674Y003677D01*
X017710Y003668D01*
X017744Y003654D01*
X017777Y003637D01*
X017809Y003617D01*
X017838Y003594D01*
X017864Y003568D01*
X017887Y003539D01*
X017907Y003508D01*
X017924Y003474D01*
X017938Y003440D01*
X017947Y003404D01*
X017953Y003367D01*
X017955Y003330D01*
X017953Y003293D01*
X017947Y003256D01*
X017938Y003220D01*
X017924Y003186D01*
X017907Y003153D01*
X017887Y003121D01*
X017864Y003092D01*
X017838Y003066D01*
X017809Y003043D01*
X017778Y003023D01*
X017744Y003006D01*
X017710Y002992D01*
X017674Y002983D01*
X017637Y002977D01*
X017600Y002975D01*
X017563Y002977D01*
X017526Y002983D01*
X017490Y002992D01*
X017456Y003006D01*
X017423Y003023D01*
X017391Y003043D01*
X017362Y003066D01*
X017336Y003092D01*
X017313Y003121D01*
X017293Y003152D01*
X017276Y003186D01*
X017262Y003220D01*
X017253Y003256D01*
X017247Y003293D01*
X017245Y003330D01*
X023009Y001100D02*
X023011Y001148D01*
X023017Y001196D01*
X023027Y001243D01*
X023040Y001289D01*
X023058Y001334D01*
X023078Y001378D01*
X023103Y001420D01*
X023131Y001459D01*
X023161Y001496D01*
X023195Y001530D01*
X023232Y001562D01*
X023270Y001591D01*
X023311Y001616D01*
X023354Y001638D01*
X023399Y001656D01*
X023445Y001670D01*
X023492Y001681D01*
X023540Y001688D01*
X023588Y001691D01*
X023636Y001690D01*
X023684Y001685D01*
X023732Y001676D01*
X023778Y001664D01*
X023823Y001647D01*
X023867Y001627D01*
X023909Y001604D01*
X023949Y001577D01*
X023987Y001547D01*
X024022Y001514D01*
X024054Y001478D01*
X024084Y001440D01*
X024110Y001399D01*
X024132Y001356D01*
X024152Y001312D01*
X024167Y001267D01*
X024179Y001220D01*
X024187Y001172D01*
X024191Y001124D01*
X024191Y001076D01*
X024187Y001028D01*
X024179Y000980D01*
X024167Y000933D01*
X024152Y000888D01*
X024132Y000844D01*
X024110Y000801D01*
X024084Y000760D01*
X024054Y000722D01*
X024022Y000686D01*
X023987Y000653D01*
X023949Y000623D01*
X023909Y000596D01*
X023867Y000573D01*
X023823Y000553D01*
X023778Y000536D01*
X023732Y000524D01*
X023684Y000515D01*
X023636Y000510D01*
X023588Y000509D01*
X023540Y000512D01*
X023492Y000519D01*
X023445Y000530D01*
X023399Y000544D01*
X023354Y000562D01*
X023311Y000584D01*
X023270Y000609D01*
X023232Y000638D01*
X023195Y000670D01*
X023161Y000704D01*
X023131Y000741D01*
X023103Y000780D01*
X023078Y000822D01*
X023058Y000866D01*
X023040Y000911D01*
X023027Y000957D01*
X023017Y001004D01*
X023011Y001052D01*
X023009Y001100D01*
X023009Y020100D02*
X023011Y020148D01*
X023017Y020196D01*
X023027Y020243D01*
X023040Y020289D01*
X023058Y020334D01*
X023078Y020378D01*
X023103Y020420D01*
X023131Y020459D01*
X023161Y020496D01*
X023195Y020530D01*
X023232Y020562D01*
X023270Y020591D01*
X023311Y020616D01*
X023354Y020638D01*
X023399Y020656D01*
X023445Y020670D01*
X023492Y020681D01*
X023540Y020688D01*
X023588Y020691D01*
X023636Y020690D01*
X023684Y020685D01*
X023732Y020676D01*
X023778Y020664D01*
X023823Y020647D01*
X023867Y020627D01*
X023909Y020604D01*
X023949Y020577D01*
X023987Y020547D01*
X024022Y020514D01*
X024054Y020478D01*
X024084Y020440D01*
X024110Y020399D01*
X024132Y020356D01*
X024152Y020312D01*
X024167Y020267D01*
X024179Y020220D01*
X024187Y020172D01*
X024191Y020124D01*
X024191Y020076D01*
X024187Y020028D01*
X024179Y019980D01*
X024167Y019933D01*
X024152Y019888D01*
X024132Y019844D01*
X024110Y019801D01*
X024084Y019760D01*
X024054Y019722D01*
X024022Y019686D01*
X023987Y019653D01*
X023949Y019623D01*
X023909Y019596D01*
X023867Y019573D01*
X023823Y019553D01*
X023778Y019536D01*
X023732Y019524D01*
X023684Y019515D01*
X023636Y019510D01*
X023588Y019509D01*
X023540Y019512D01*
X023492Y019519D01*
X023445Y019530D01*
X023399Y019544D01*
X023354Y019562D01*
X023311Y019584D01*
X023270Y019609D01*
X023232Y019638D01*
X023195Y019670D01*
X023161Y019704D01*
X023131Y019741D01*
X023103Y019780D01*
X023078Y019822D01*
X023058Y019866D01*
X023040Y019911D01*
X023027Y019957D01*
X023017Y020004D01*
X023011Y020052D01*
X023009Y020100D01*
D11*
X018100Y018600D03*
X018100Y017600D03*
X017100Y017600D03*
X017100Y018600D03*
X016100Y018600D03*
X016100Y017600D03*
X015100Y017600D03*
X015100Y018600D03*
X014100Y018600D03*
X014100Y017600D03*
X013100Y017600D03*
X013100Y018600D03*
X012100Y018600D03*
X012100Y017600D03*
X011100Y017600D03*
X011100Y018600D03*
X010100Y018600D03*
X010100Y017600D03*
X009100Y017600D03*
X009100Y018600D03*
X008100Y018600D03*
X008100Y017600D03*
X007100Y017600D03*
X007100Y018600D03*
X006100Y018600D03*
X006100Y017600D03*
D12*
X009600Y013100D03*
X010600Y013100D03*
X010600Y005100D03*
X009600Y005100D03*
X022100Y005100D03*
X023100Y005100D03*
X023100Y013100D03*
X022100Y013100D03*
D13*
X020413Y012120D02*
X019708Y012120D01*
X019708Y014080D02*
X020413Y014080D01*
X015493Y014080D02*
X014788Y014080D01*
X014788Y012120D02*
X015493Y012120D01*
X015493Y006080D02*
X014788Y006080D01*
X014788Y004120D02*
X015493Y004120D01*
X019708Y004120D02*
X020413Y004120D01*
X020413Y006080D02*
X019708Y006080D01*
X007913Y006080D02*
X007208Y006080D01*
X007208Y004120D02*
X007913Y004120D01*
X002993Y004120D02*
X002288Y004120D01*
X002288Y006080D02*
X002993Y006080D01*
X002993Y012120D02*
X002288Y012120D01*
X002288Y014080D02*
X002993Y014080D01*
X007208Y014080D02*
X007913Y014080D01*
X007913Y012120D02*
X007208Y012120D01*
D14*
X007100Y009100D03*
X003100Y009100D03*
X003100Y001600D03*
X007100Y001600D03*
X015600Y001600D03*
X019600Y001600D03*
X019600Y009100D03*
X015600Y009100D03*
D15*
X015140Y006080D02*
X014100Y006100D01*
X012100Y004100D01*
X009100Y004100D01*
X008600Y004600D01*
X008600Y015100D01*
X007100Y016600D01*
X007100Y017600D01*
X006100Y017600D02*
X006100Y016100D01*
X007560Y014640D01*
X007560Y014080D01*
X009100Y015600D02*
X008100Y016600D01*
X008100Y017600D01*
X009100Y018600D02*
X009100Y019100D01*
X008600Y019600D01*
X005100Y019600D01*
X004100Y018600D01*
X004100Y017600D01*
X009100Y015600D02*
X009100Y008600D01*
X009600Y008100D01*
X009600Y007100D01*
X010600Y005100D02*
X012100Y005100D01*
X013100Y006100D01*
X013100Y017600D01*
X013100Y018600D02*
X013100Y019100D01*
X013600Y019600D01*
X018100Y019600D01*
X019100Y018600D01*
X019100Y016600D01*
X018600Y016100D01*
X014100Y016100D01*
X012100Y018600D02*
X012100Y019600D01*
X012600Y020100D01*
X018600Y020100D01*
X021100Y017600D01*
X021100Y012600D01*
X023100Y010600D01*
X023100Y005100D01*
X014120Y006080D02*
X014100Y006100D01*
X023100Y013100D02*
X023100Y016600D01*
X019100Y020600D01*
X011600Y020600D01*
X011100Y020100D01*
X011100Y018600D01*
X002620Y006100D02*
X002640Y006080D01*
X002620Y006080D02*
X002600Y006100D01*
X002620Y006100D01*
D16*
X014100Y016100D03*
X004100Y017600D03*
D17*
X009600Y007100D03*
M02*
