G75*
%MOIN*%
%OFA0B0*%
%FSLAX24Y24*%
%IPPOS*%
%LPD*%
%AMOC8*
5,1,8,0,0,1.08239X$1,22.5*
%
%ADD10C,0.1261*%
%ADD11C,0.0730*%
%ADD12OC8,0.0740*%
%ADD13C,0.0785*%
%ADD14C,0.0790*%
%ADD15C,0.0820*%
%ADD16R,0.0476X0.0476*%
%ADD17R,0.0516X0.0516*%
D10*
X001100Y001100D03*
X001100Y020100D03*
X023600Y020100D03*
X023600Y001100D03*
D11*
X018100Y017600D03*
X018100Y018600D03*
X017100Y018600D03*
X017100Y017600D03*
X016100Y017600D03*
X016100Y018600D03*
X015100Y018600D03*
X015100Y017600D03*
X014100Y017600D03*
X014100Y018600D03*
X013100Y018600D03*
X013100Y017600D03*
X012100Y017600D03*
X012100Y018600D03*
X011100Y018600D03*
X011100Y017600D03*
X010100Y017600D03*
X010100Y018600D03*
X009100Y018600D03*
X009100Y017600D03*
X008100Y017600D03*
X008100Y018600D03*
X007100Y018600D03*
X007100Y017600D03*
X006100Y017600D03*
X006100Y018600D03*
D12*
X009600Y013100D03*
X010600Y013100D03*
X010600Y005100D03*
X009600Y005100D03*
X022100Y005100D03*
X023100Y005100D03*
X023100Y013100D03*
X022100Y013100D03*
D13*
X020413Y012120D02*
X019708Y012120D01*
X019708Y014080D02*
X020413Y014080D01*
X015493Y014080D02*
X014788Y014080D01*
X014788Y012120D02*
X015493Y012120D01*
X015493Y006080D02*
X014788Y006080D01*
X014788Y004120D02*
X015493Y004120D01*
X019708Y004120D02*
X020413Y004120D01*
X020413Y006080D02*
X019708Y006080D01*
X007913Y006080D02*
X007208Y006080D01*
X007208Y004120D02*
X007913Y004120D01*
X002993Y004120D02*
X002288Y004120D01*
X002288Y006080D02*
X002993Y006080D01*
X002993Y012120D02*
X002288Y012120D01*
X002288Y014080D02*
X002993Y014080D01*
X007208Y014080D02*
X007913Y014080D01*
X007913Y012120D02*
X007208Y012120D01*
D14*
X005100Y011330D03*
X005100Y014870D03*
X005100Y006870D03*
X005100Y003330D03*
X017600Y003330D03*
X017600Y006870D03*
X017600Y011330D03*
X017600Y014870D03*
D15*
X015600Y009100D03*
X019600Y009100D03*
X019600Y001600D03*
X015600Y001600D03*
X007100Y001600D03*
X003100Y001600D03*
X003100Y009100D03*
X007100Y009100D03*
D16*
X014100Y016100D03*
X004100Y017600D03*
D17*
X009600Y007100D03*
M02*
